<svg xmlns="http://www.w3.org/2000/svg" width="16.11" height="6.36" viewBox="0 0 16.11 6.36"><defs><style>.cls-1{fill:#f5c614;}</style></defs><g id="Layer_2" data-name="Layer 2"><g id="home"><polygon class="cls-1" points="12.93 6.36 12.57 6 15.14 3.43 15.64 3.43 15.75 3.54 12.93 6.36"/><polygon class="cls-1" points="15.75 3.54 15.64 3.43 15.86 3.43 15.75 3.54"/><polygon class="cls-1" points="15.14 3.43 0 3.43 0 2.93 15.14 2.93 15.39 3.18 15.14 3.43"/><polygon class="cls-1" points="15.64 3.43 15.14 3.43 15.39 3.18 15.64 3.43"/><polygon class="cls-1" points="15.86 3.43 15.64 3.43 15.39 3.18 15.64 2.93 15.86 2.93 16.11 3.18 15.86 3.43"/><polygon class="cls-1" points="15.39 3.18 15.14 2.93 15.64 2.93 15.39 3.18"/><polygon class="cls-1" points="15.64 2.93 15.14 2.93 12.57 0.36 12.93 0 15.75 2.82 15.64 2.93"/><polygon class="cls-1" points="15.86 2.93 15.64 2.93 15.75 2.82 15.86 2.93"/></g></g></svg>