<svg xmlns="http://www.w3.org/2000/svg" width="207.96" height="117.21" viewBox="0 0 207.96 117.21"><defs><style>.cls-1{fill:#f5c614;}</style></defs><g id="Layer_2" data-name="Layer 2"><g id="home"><path class="cls-1" d="M69.57,33.4a14.24,14.24,0,0,1,1.76-1.33,12.4,12.4,0,0,0,1.19-.92c1.69-1.46,3.38-2.93,5.13-4.32A10.3,10.3,0,0,1,78.87,26a17.84,17.84,0,0,0,1.85-1.27l2-1.54A10.77,10.77,0,0,1,84.61,22a12,12,0,0,0,1.26-.78c1.35-1,2.76-1.93,4.14-2.89a9.62,9.62,0,0,1,1.32-.76,14.5,14.5,0,0,0,2-1.05c1.16-.79,2.39-1.5,3.6-2.22a13.76,13.76,0,0,1,2-1,15.58,15.58,0,0,0,2.07-1c1.71-1,3.51-1.83,5.26-2.74a8.54,8.54,0,0,1,1.44-.57,20.06,20.06,0,0,0,2.86-1.1c1.29-.56,2.61-1.08,3.93-1.62a9.69,9.69,0,0,1,1.43-.4,16.56,16.56,0,0,0,2.19-.62c1.06-.42,2.16-.71,3.24-1.06s2.17-.67,3.27-.93a4.7,4.7,0,0,1,.72-.12c.91-.1,1.78-.28,3-.52s2.49-.54,3.75-.78l3.82-.58a7.35,7.35,0,0,1,1.52-.06A18.08,18.08,0,0,0,140.54,1c.56-.06,1.14,0,1.7-.08a13.9,13.9,0,0,1,2.31.07c.69,0,1.42.12,2.31.14,2.56,0,5.1.23,7.65.46a15.24,15.24,0,0,1,2.17.49,11.13,11.13,0,0,0,1.51.31c1,.14,1.94.38,2.92.56s1.94.38,2.9.65a16.83,16.83,0,0,1,2.21.73c.32.13.63.25,1,.37s.71.29,1.16.44c1.07.36,2.15.7,3.21,1.09l3.15,1.3c1.06.4,2.05,1,3.07,1.46a6.86,6.86,0,0,1,.6.38c.77.48,1.5,1,2.57,1.65.73.43,1.47.85,2.19,1.3l2.11,1.45c.51.35.94.67,1.33,1s.68.67,1,1a11.56,11.56,0,0,0,1.16,1,52.09,52.09,0,0,1,6.62,6.58,6.39,6.39,0,0,1,1,1.26c.55,1,1.28,2,2.1,3.25a52.29,52.29,0,0,1,3.42,5.83,9.25,9.25,0,0,1,.56,1.42c.19.63.38,1.18.72,2.07a53.47,53.47,0,0,1,2,5.53,12.26,12.26,0,0,1,.48,2.24,16.74,16.74,0,0,0,.37,2.22,54.42,54.42,0,0,1,1,6.6c.09,1.11.18,2.22.18,3.33,0,.24,0,.47-.06.69a35.13,35.13,0,0,0-.26,3.81,17.5,17.5,0,0,1-.39,3.11,5.07,5.07,0,0,0-.26,1.94,7.83,7.83,0,0,1-.14,1.47c-.27,1.63-.67,3.25-1.1,4.85a9.1,9.1,0,0,1-.52,1.4c-.24.61-.53,1.1-.85,2a57.11,57.11,0,0,1-5.32,11.16,15.78,15.78,0,0,1-1.34,1.78c-.42.52-.89,1-1.39,1.74a58,58,0,0,1-8.27,9.1,12.64,12.64,0,0,1-1.75,1.25c-.39.26-.76.49-1.21.83-1.59,1.3-3.35,2.34-5,3.49-.85.57-1.77,1-2.65,1.53s-1.76,1-2.71,1.43a17.4,17.4,0,0,1-2.08.82c-.63.18-1.21.43-2.05.74a77.76,77.76,0,0,1-14.81,4.3,11.15,11.15,0,0,1-2.12.22,4,4,0,0,0-1.32.22,4.22,4.22,0,0,1-1.9.26c-.6,0-1.16-.06-1.79-.06a8.43,8.43,0,0,0-1.9.31,4.57,4.57,0,0,1-.64,0,18,18,0,0,0-2.1,0,28.46,28.46,0,0,0-3.67.43c-.22,0-.45.09-.69.1-1.34.09-2.7.08-4,.1-.67-.07-1.29-.15-2-.2-.44,0-1,0-1.55,0a23.26,23.26,0,0,1-4.4.16l-.81,0a13,13,0,0,1-2.19-.24,21.7,21.7,0,0,0-2.19-.26c-2.15-.13-4.32-.3-6.47-.47a14.39,14.39,0,0,1-3.42-.61c-.49-.15-.56-.22-.1-.23.22,0,.48,0,.71,0,7,.67,14,1.11,21,1.08.26,0,.55,0,.79,0a6.08,6.08,0,0,1,.66.07,17,17,0,0,0,2.91.15c4-.19,8.07-.42,12.05-1a10,10,0,0,1,1.42-.07,11.22,11.22,0,0,0,2.92-.33c.26-.05.57-.1.79-.16.56-.15,1.06-.32,1.58-.48a16.4,16.4,0,0,1,1.8-.55,5.05,5.05,0,0,0,.61-.23,4.55,4.55,0,0,1,1.86-.48c.6,0,1.21-.16,1.73-.19a3.11,3.11,0,0,0,1.26-.39,23.94,23.94,0,0,1,2.71-1.07c1.88-.73,1.88-.65,4.19-1.38a8.3,8.3,0,0,0,2-1,6.37,6.37,0,0,1,1.1-.65c.2-.09.42-.13.62-.2a13.93,13.93,0,0,0,2-.93l1.4-.78.72-.41.65-.39a12.53,12.53,0,0,1,1.19-.62,7.82,7.82,0,0,0,1.26-.7,49.25,49.25,0,0,0,6.3-5c1-.9,1.92-1.89,2.86-2.86s1.81-2,2.63-3.07a8.78,8.78,0,0,1,1-1l.45-.48a6.18,6.18,0,0,0,1.42-2.2c0-.11-.05-.11-.05-.2a1.79,1.79,0,0,1,.38-.86c.33-.45.5-.53.6-.48s.33-.13.63-.59a12.37,12.37,0,0,0,.77-1.34c.57-1.17.76-1.79,1-2.29l.83-1.76a52.11,52.11,0,0,0,2.92-7.53c.31-1,.61-2.07.85-3.12a4.49,4.49,0,0,1,.22-.65,15.75,15.75,0,0,0,.9-3.6c0-.27.07-.54.1-.81a15.37,15.37,0,0,1,.24-1.57c.08-.47.16-.9.26-1.31a9.26,9.26,0,0,0,.21-1.47,55,55,0,0,0-2.34-18.56c-.24-.84-.45-1.5-.57-2.16a9.45,9.45,0,0,0-.65-2.12,50.61,50.61,0,0,0-6.84-12.14c-.17-.21-.35-.44-.49-.65s-.24-.4-.35-.59a19.94,19.94,0,0,0-1.82-2.36,56.36,56.36,0,0,0-6.67-6.16c-.41-.34-.74-.65-1.09-1a15.27,15.27,0,0,0-1.72-1.39,60.66,60.66,0,0,0-7.93-4.48c-.53-.27-1-.47-1.38-.7a18.79,18.79,0,0,0-2.66-1.32,71.74,71.74,0,0,0-7.12-2.26A12.82,12.82,0,0,1,162.88,5a11.47,11.47,0,0,0-2.12-.62c-2.16-.48-4.37-.76-6.57-1.08a6.55,6.55,0,0,1-.71-.12,25.2,25.2,0,0,0-3.78-.52l-4.17-.09c-1.39,0-2.78.09-4.17.14-.94,0-1.54,0-2.19,0a10.08,10.08,0,0,0-1.52,0c-1.39.09-2.77.36-4.15.56-.87.13-1.6.2-2.28.26A14.64,14.64,0,0,0,129,3.9c-.53.13-1.09.21-1.63.36a15.57,15.57,0,0,1-3,.61,7.84,7.84,0,0,0-1.47.3,101.91,101.91,0,0,0-11,4c-.51.2-.94.34-1.4.49a15.1,15.1,0,0,0-2.08.77c-1.27.57-2.51,1.22-3.75,1.85a20.68,20.68,0,0,1-2.06.9,17.49,17.49,0,0,0-2.07,1c-.73.4-1.46.82-2.17,1.26l-.68.43a9.14,9.14,0,0,0-2,1.8,1.83,1.83,0,0,0,.27.52c0,.09-.08.27-.34.53-.8.82-.76.8-.61,1s.15.14.17.24.37.1.87-.09.85-.27,1-.16c1-.33,1.89-.6,1.78-.17,0,0,.15,0,.28,0s.33-.11.5-.17A5.24,5.24,0,0,0,100,19c.3-.31,0-.32.67-.83a17.4,17.4,0,0,1,2-1.21,103.23,103.23,0,0,1,11.69-5.67,13.46,13.46,0,0,1,2-.63,9.39,9.39,0,0,0,1.41-.41l2.28-.82a11.82,11.82,0,0,1,2.16-.55,13.48,13.48,0,0,0,2.11-.51c1-.29,2.08-.54,3.13-.82,1.55-.43,3.15-.69,4.72-1a2.59,2.59,0,0,1,.67,0,19.07,19.07,0,0,0,2.88-.24c.92-.17,1.86-.25,2.79-.34s1.87-.19,2.8-.24a7.32,7.32,0,0,0,1.39-.17c.91-.21,2.55-.27,3.47-.4a3.34,3.34,0,0,1,1.3,0,22.44,22.44,0,0,0,2.89.3,8.79,8.79,0,0,1,1.47.18,1.45,1.45,0,0,1,.38.12,3,3,0,0,1-.6,0c-1,0-2.09-.21-3-.1l-.62.08c.21,0,.38.08.61.11l3.1.24c1,.11,1,0,2.89.09a1.43,1.43,0,0,1,1.2.4,3,3,0,0,0,1.6.46c1,.16,2.08.41,3.13.6.76.15,1.34.15,1.44,0a2.43,2.43,0,0,0,.15-.26c-.25,0-.54-.11-.76-.13A18,18,0,0,1,159.49,7a12.18,12.18,0,0,1-1.56-.63c-.1,0-.18-.11-.1-.12a2,2,0,0,1,.63,0l2.33.46a5,5,0,0,1,.69.19c.45.14.65.26.62.36l1.54.42a6.28,6.28,0,0,1,.74.22c.92.4,2.08.84,2.18,1.18.05.12.18.25.63.47a1.73,1.73,0,0,0,.88.08c.07,0,.07-.08.17-.09a6.58,6.58,0,0,1,1.93.49c.59.32,1.1.65,1.74,1,.88.44,1.91.79,2.83,1.29l2.13,1.05a6,6,0,0,1,1.16.77c.43.38.87.75,1.31,1.12a4.54,4.54,0,0,0,1.6.94,11.42,11.42,0,0,1,1.21.71l1.93,1.34,1.83,1.49a41.67,41.67,0,0,1,3.48,3.16,5,5,0,0,1,.89,1.05,12.85,12.85,0,0,0,1.24,1.66l1,1.16L193.5,28c.64.81,1.21,1.68,1.79,2.54a5.85,5.85,0,0,1,.32.59,32.23,32.23,0,0,0,1.59,3.16c.42.78.86,1.57,1.21,2.4s.76,1.63,1.07,2.47a1.66,1.66,0,0,1,.13.56c-.05.06-.27-.25-.48-.75-.42-1.08-1-2.11-1.44-3.16s-1.05-2.06-1.68-3l-.79-1.32-.87-1.26a2.35,2.35,0,0,0-.39-.42c-.16-.12-.06.14.22.65A45.29,45.29,0,0,1,198,37.11a8.9,8.9,0,0,1,.69,1.92c.19.87.6,1.76.92,2.72s.46,1.16.75,1.42.52.64.88,1.87c.2.61.33,1.24.48,1.87s.31,1.25.42,1.88a9.19,9.19,0,0,1,.17,1.42c0,.79,0,1.64.18,2.75s.18,2,.27,3,.08,2.05.06,3.07a11.81,11.81,0,0,1-.3,2.74,3.57,3.57,0,0,0-.06.59,5.5,5.5,0,0,1-.23,2.42,13,13,0,0,0-.32,2.06c0,.44,0,.79-.05,1.24a6.42,6.42,0,0,1-.48,2c-.15.35-.3.74-.44,1.16s-.31.89-.46,1.42a8,8,0,0,1-.75,2,15.19,15.19,0,0,0-.84,1.84c-.27.7-.56,1.41-.86,2.11a60.88,60.88,0,0,1-3.54,6.74A13.25,13.25,0,0,1,193.21,87c-.28.32-.57.62-.86,1-1.29,1.86-2.78,3.56-4.24,5.28-.14.16-.33.42-.31.46s.35-.12.71-.53c1.2-1.3,2.33-2.68,3.4-4.1a3.29,3.29,0,0,1,.41-.42c.39-.34.52-.24.32.22a6.32,6.32,0,0,1-1.22,1.66L191,91a10.73,10.73,0,0,0-1.77,2l-.35.52a14.14,14.14,0,0,1-2.48,2.61c-.18.15-.34.25-.51.37-.52.36-1,.71-1.63,1.26a45.75,45.75,0,0,1-5.51,4.13,9.16,9.16,0,0,1-1.22.72c-.7.37-1.49.63-2.46,1.19a63.15,63.15,0,0,1-10.51,4.69,10.38,10.38,0,0,1-1.36.31,13,13,0,0,0-2,.42c-1.09.38-2.24.58-3.36.87s-2.26.55-3.42.74a11.23,11.23,0,0,1-2.08.24,6.36,6.36,0,0,0-1.84.34,16,16,0,0,1-2.16.39,10.21,10.21,0,0,1-2.14.13,13.59,13.59,0,0,0-2.09,0c-1.69.18-3.39.25-5.09.33s-3.42.1-5.13.14a11.14,11.14,0,0,1-2.1-.16,21.39,21.39,0,0,0-3.71-.15,6,6,0,0,0-.65.06,5.25,5.25,0,0,1-1.92-.06,14,14,0,0,0-2.13-.23c-6.1-.32-12.2-.92-18.34-1.62a8.87,8.87,0,0,1-1.45-.25c-.36-.1-.83-.19-1.26-.29s-.84,0-1.3,0a4.07,4.07,0,0,1-.62-.11,16.69,16.69,0,0,0-2-.44c-4.25-.54-8.48-1.16-12.7-1.82l-.72-.16-.64-.19a25.58,25.58,0,0,0-3.64-.79c-.6-.11-.87-.27-.72-.3a3.29,3.29,0,0,1,.6,0,7.33,7.33,0,0,1,.76.11c4.47.76,9,1.47,13.45,2.06a17.51,17.51,0,0,1,2.14.43A12.33,12.33,0,0,0,99,109c.79.09,1.59.19,2.38.3a8.92,8.92,0,0,0,1.48.09,8,8,0,0,1,2.58.29,1.54,1.54,0,0,0,1,0c.23-.18-.52-.42-1.76-.56-1.86-.2-3.72-.45-5.58-.68-.26,0-.54-.06-.79-.11a18,18,0,0,1-2-.48c-1-.09-1.58,0-2.73-.14l-5.54-.8a16.92,16.92,0,0,1-2.13-.46,13.46,13.46,0,0,0-2.08-.51c-2.1-.34-4.2-.71-6.28-1.11-.58-.17-.81-.28-.58-.3a3.19,3.19,0,0,1,.6,0l2.34.42c.58.09.94.07.86,0a1.78,1.78,0,0,0-.55-.19c-2.33-.46-4.68-.86-7-1.36a4.6,4.6,0,0,0-1.23-.1.45.45,0,0,0-.22.1l2.2.47a1.77,1.77,0,0,1,.49.2s-.06.05-.17.06a6.11,6.11,0,0,1-1.33-.2c-.72-.18-.93-.27-1.18-.53a3.53,3.53,0,0,1-1.53-.57c-.37-.37-.63-.45-2-.76-2-.48-4.13-.9-6.16-1.44a3.7,3.7,0,0,0-1,0,.23.23,0,0,0-.15.26c0,.28-.74.19-1.69-.21a18.3,18.3,0,0,0-2.06-.69A11.54,11.54,0,0,1,54.61,99l-1-.49a13.9,13.9,0,0,0-2.67-1,34.52,34.52,0,0,0-4.19-1,20.33,20.33,0,0,0-2.7-.67,3.17,3.17,0,0,1-.6-.16,4.32,4.32,0,0,1-.57-.28,10,10,0,0,0-2.59-1c-.4-.09-.8-.18-1.24-.31a3.27,3.27,0,0,1-.54-.29l-1-.57a4.57,4.57,0,0,0-1.63-.8l-1.25-.32-2.54-1L29.57,90a9.22,9.22,0,0,1-1.16-.66,5.07,5.07,0,0,0-1.71-.72A6.69,6.69,0,0,1,25.4,88c-.9-.47-1.06-.57-1.19-.88A2.56,2.56,0,0,0,23,86.28c-1.6-.75-3.07-1.7-4.43-2.16a2.76,2.76,0,0,1-1-.63,9.91,9.91,0,0,0-1.54-1.15c-1-.65-1.92-1.33-2.8-2-1.17-1-1.19-.84-.74-.18.23.34.24.41-.3,0a3.65,3.65,0,0,1-.5-.4c-.62-.58-.74-.75-.77-1.06s-.09-.45-.6-1a7.32,7.32,0,0,0-.79-.79c-.74-.58-.71-.62-.9-1.06a6.37,6.37,0,0,1-.3-.79,2.58,2.58,0,0,0-.54-1.14l-.53-.68a10.76,10.76,0,0,1-.94-4.3,2.41,2.41,0,0,1,.08-.42c.1-.32.15-.64.26-1a5.05,5.05,0,0,0,.12-.56c0-.2.11-.41.16-.63a21.37,21.37,0,0,1,5.11-8.79,45.1,45.1,0,0,1,4.25-4.14c.75-.66,1.64-1.31,2.45-2s1.65-1.32,2.53-1.91a11,11,0,0,0,1.49-1.27,9.68,9.68,0,0,1,1.05-.86,84.38,84.38,0,0,1,16-8.27,7.63,7.63,0,0,1,1.26-.33,4.43,4.43,0,0,0,1.69-.63,8.43,8.43,0,0,1,1.23-.56A87,87,0,0,1,74.4,33.21l.75,0a8.32,8.32,0,0,1,1.31.22,13.2,13.2,0,0,0,2,.31l1.11.07,1.11.15,2.22.29L84,34.22c.14-.22.36-.44-.58-.76A1.86,1.86,0,0,1,82.6,33a8.46,8.46,0,0,0-1.25-.52c0-.26-.87-.57-1.77-.83l-3.29-.84a4.86,4.86,0,0,0-1.41-.17l-.77,0a7.11,7.11,0,0,1-1.42-.11c-.28-.06-.09-.13.29-.22.85-.2.86-.31.16-.51-.43-.12-1-.23-1-.4,0-.43,0-.87,0-1.3,0-.15-.29-.28-.79-.41s-.83-.25-.82-.4c0-.34,0-.34-1-.49A14.3,14.3,0,0,0,66,26.61a92.58,92.58,0,0,0-12.85,1.67c-2.13.36-4.21,1-6.31,1.46-1,.29-2.07.62-3.11.93s-2.07.63-3.08,1l-.75.28c-.23.1-.42.2-.62.3a10,10,0,0,1-2.45.92,4.26,4.26,0,0,0-.57.25,18.38,18.38,0,0,1-2.6,1.31c-.94.38-1.82.86-2.74,1.29s-1.83.86-2.71,1.35c-1.76,1-3.57,1.89-5.25,3a9.13,9.13,0,0,0-1.14.85A28,28,0,0,1,19.48,43,23.2,23.2,0,0,0,16,45.76a11.64,11.64,0,0,1-1.18,1,2.12,2.12,0,0,1-.87.42c-.63.13-.83.21-1.85,1.08a47.58,47.58,0,0,0-3.52,3.28,4,4,0,0,0-.38.51,1.55,1.55,0,0,0-.2.38c.1.34-.57,1.16-1.53,2.3S5.39,56,4.94,56.19s-.62.4-1.12,1.18a24.94,24.94,0,0,0-2.25,4.2,3.62,3.62,0,0,0-.34,1.21c0,.07.14-.19.24-.32.23-.33.4-.52.38-.33a10.89,10.89,0,0,1-.38,1.33,16.45,16.45,0,0,0-.86,4.48,3.53,3.53,0,0,1-.1.61c0,.13-.09.28-.1.23a3.38,3.38,0,0,1-.07-.57,7.42,7.42,0,0,1,.1-1.48c.06-.5.12-1,.18-1.45,0-.17,0-.29,0-.44-.07.19-.15.36-.22.57a3.2,3.2,0,0,0-.16.71A17,17,0,0,0,2.35,77.48c.3.49.54.93.75,1.34s.44.76.64,1.14a2.37,2.37,0,0,0,.38.49c1.36,1.23,2.77,2.78,4.34,4.18.17.15.31.32.46.48A10.77,10.77,0,0,0,11.16,87l.66.46.67.46a9.55,9.55,0,0,0,1.9,1c1.1.41,1.42,1,2.2,1.37s1.59.61,2.64,1.17l3.64,1.77a10.23,10.23,0,0,1,1.27.73,15.4,15.4,0,0,0,2.6,1.37A22.47,22.47,0,0,0,31,97a9.36,9.36,0,0,1,1.43.51l2.25.91a31.67,31.67,0,0,1,4,1.79c.49.17,1.06.41,1.46.51a34.4,34.4,0,0,1,4.3,1.2l1.53.52c.23.08.44.18.64.27a21.59,21.59,0,0,0,2.7,1c7.52,2.26,15.15,4.12,22.85,5.68a8.76,8.76,0,0,1,1.39.39c1.12.43,2.93.74,4,1.17a10.14,10.14,0,0,0,1.48.33c11,1.93,22,3.35,33.05,4.44a10.75,10.75,0,0,1,1.48.23c.37.09.85.17,1.28.25l1.34-.06c.21,0,.47,0,.71,0,1.35.12,2.7.18,4,.29a3.46,3.46,0,0,1,.67.12,31.21,31.21,0,0,0,6.11.44,5.05,5.05,0,0,0,.68-.07,5,5,0,0,1,1.94,0,10,10,0,0,0,1.43.14c1.63,0,3.26,0,4.89,0,.55,0,1,0,1.46.06a14.07,14.07,0,0,0,2.16.07c3.95-.17,7.89-.63,11.81-1.19a88.86,88.86,0,0,0,11.59-2.68,16.08,16.08,0,0,1,2.17-.51,14.4,14.4,0,0,0,2.15-.65,65,65,0,0,0,15.31-8.11,15.62,15.62,0,0,1,1.84-1.17,8,8,0,0,0,1.23-.87,57.5,57.5,0,0,0,7.1-7c.36-.4.67-.73,1-1a4.85,4.85,0,0,0,1.22-1.58,12,12,0,0,1,1.72-2.4,16.09,16.09,0,0,0,1.36-1.76A62.66,62.66,0,0,0,203.08,80a16,16,0,0,1,1-2,10.54,10.54,0,0,0,.6-1.35c.49-1.32.85-2.68,1.25-4s.69-2.73.91-4.12.43-2.78.62-4.18.25-2.8.25-4.21a13,13,0,0,1,.14-1.51,14.17,14.17,0,0,0,.09-3.07,15.23,15.23,0,0,1,0-2.31,13.84,13.84,0,0,0-.14-2.29A56.15,56.15,0,0,0,203.94,37c-.11-.26-.23-.54-.31-.79s-.15-.45-.22-.67a12.62,12.62,0,0,0-1.18-2.85c-.34-.63-.66-1.27-1-1.89l-1.11-1.85c-.27-.48-.5-.89-.72-1.33a13.41,13.41,0,0,0-1.18-2l-1.44-1.89c-.51-.61-1-1.2-1.56-1.8l-1.58-1.78-1.71-1.64a11.62,11.62,0,0,1-1.11-1.17,16,16,0,0,0-2.23-2.13c-1.42-1.23-3-2.23-4.54-3.31-.76-.55-1.6-1-2.39-1.46s-1.6-1-2.44-1.38a10.7,10.7,0,0,1-1.32-.78,15.65,15.65,0,0,0-1.95-1.16L173.15,6l-1.39-.58-1.43-.48A15.31,15.31,0,0,1,168.18,4,11,11,0,0,0,166,3.25l-2.91-.76-2.95-.6a10.42,10.42,0,0,1-1.52-.39,18.81,18.81,0,0,0-3-.62c-1-.15-2-.23-3-.31s-2-.17-3-.23a9.39,9.39,0,0,1-1.5-.15l-.69-.1a6.18,6.18,0,0,0-2.75.11,1.23,1.23,0,0,1-.6.28,3.79,3.79,0,0,1-.58.05,1.68,1.68,0,0,1-.58-.08c0-.29-1.22-.37-2.72-.31-.52,0-.93,0-1.41,0a6.67,6.67,0,0,0-2.74.4c-.16.12-.09.23-.54.34a8.72,8.72,0,0,1-2,.19c-.26,0-.51,0-.78.08a15.71,15.71,0,0,0-1.69.3c-1.68.36-3.37.64-5,1.12a13.27,13.27,0,0,1-2.19.38c-.9.07-2.07.53-3,.66a11.51,11.51,0,0,0-3,.83,9.87,9.87,0,0,1-1.51.45,15.16,15.16,0,0,0-2.92.9c-2.92,1.18-5.79,2.45-8.58,3.87a10.13,10.13,0,0,1-1.39.58c-.59.19-1.19.37-1.78.6a14.62,14.62,0,0,0-2.81,1.37,7.74,7.74,0,0,0-1.32.86l-1.08.84-1.25.55a7.48,7.48,0,0,0-1.38.76A18.24,18.24,0,0,1,91,16.75a7,7,0,0,0-1.29.71l-2.8,1.92-2.74,2a11.72,11.72,0,0,1-1.28.82,15.11,15.11,0,0,0-2.52,1.72c-.71.54-1.3.95-1.89,1.32a14.29,14.29,0,0,0-1.85,1.32c-1.1.88-2.16,1.8-3.22,2.71a17.18,17.18,0,0,1-1.79,1.32,17.27,17.27,0,0,0-1.82,1.47M47.87,102.39a1.72,1.72,0,0,1,.51.25c.11.09-.18.09-.75-.06-.72-.2-1.49-.43-2.22-.69a2.35,2.35,0,0,1-1.16-.69c-1.22-.47-1.7-.77-1.37-.84a2,2,0,0,1,.92.17,1.63,1.63,0,0,1,.45.25c.08.07,0,.1,0,.15a2.61,2.61,0,0,1-.06.27C45.43,101.62,46.65,102,47.87,102.39ZM23.44,90.65a10.82,10.82,0,0,1-3.07-2s.08,0,.19,0a3.74,3.74,0,0,1,.59.2l1.36.66c1.21.6,1.69.93,1.67,1.15a1.2,1.2,0,0,1-.08.27c.67.33,1.34.68,2,1a1.57,1.57,0,0,1,.71.53c.08.14,0,.19-.38.1a3.44,3.44,0,0,1-1.06-.52l-1.19-.91c-.1-.09,0-.12-.06-.17Zm48.48,18.08c-.55-.14-.82-.27-.69-.31a1.65,1.65,0,0,1,.53,0l2.24.44c.07,0,.07-.08.2-.1a4.26,4.26,0,0,1,1.22.07c3.38.65,6.78,1.23,10.18,1.79.57.13.87.24.71.28a2.3,2.3,0,0,1-.59,0l-5.88-1L74,108.87A3.64,3.64,0,0,1,71.92,108.73ZM59.07,101a12.8,12.8,0,0,1,2,.68,9.58,9.58,0,0,0,1.34.44c1.79.47,3.61.84,5.42,1.27a13.23,13.23,0,0,0,2.16.35,4.42,4.42,0,0,1,1.84.38c.62.22,1.37.39,2.08.58a1.77,1.77,0,0,1,.52.2,2,2,0,0,1-1,0c-5.22-1-10.37-2.25-15.5-3.56a13.35,13.35,0,0,1-2-.73,9.62,9.62,0,0,0-1.32-.48C50.52,99,46.5,97.7,42.52,96.33a5,5,0,0,1-.66-.26c-.2-.1-.36-.2-.54-.3l.47.08c.19,0,.43.09.65.16l4.48,1.51c1.5.48,3,.92,4.53,1.39h0C54,99.68,56.52,100.37,59.07,101ZM4.29,64.15a9,9,0,0,1-.44,1,9.09,9.09,0,0,0-.39,1c-.08.38-.14.8-.2,1.24s0,.63,0,1a4.93,4.93,0,0,0,0,.94,3.24,3.24,0,0,1,0,.55c0,.32-.11.26-.22-.12a3.51,3.51,0,0,1,0-2.5,9.58,9.58,0,0,0,.27-1.77,4.71,4.71,0,0,1,.11-1.08,6,6,0,0,1,.43-1.22l.61-1.1c.18-.27.31-.49.43-.69.22-.42.43-.79.86-1.53A31.76,31.76,0,0,1,9.1,55.22a14.67,14.67,0,0,1,1-1.09c.16-.16.33-.3.48-.43.35-.28.35-.18.1.22a19.94,19.94,0,0,1-1.86,2.52,30.51,30.51,0,0,0-2.5,3.45h0A22.37,22.37,0,0,0,4.29,64.15Zm25.2,26.43c.21.1.45.21.63.32a2.46,2.46,0,0,1,.48.32,2.21,2.21,0,0,1-.39-.08,5.67,5.67,0,0,1-.62-.21l-3.3-1.47-3.24-1.58a64.5,64.5,0,0,1-6.13-3.3,31.8,31.8,0,0,1-9.46-8.25c-.24-.39-.29-.65-.2-.6a1.88,1.88,0,0,1,.32.32c2.3,3.32,6.06,6.27,10.25,8.73h0a64,64,0,0,0,5.66,3l3,1.45Zm39.78,15a12.64,12.64,0,0,1,2.06.58,20.75,20.75,0,0,0,2.9.74c1.14.23,1.88.55,1.52.67a1.9,1.9,0,0,1-.45,0,6.7,6.7,0,0,1-1.44-.19,18.55,18.55,0,0,1-2.22-.53,9.84,9.84,0,0,0-1.23-.43,22.23,22.23,0,0,1-3.32-1c-.16-.06-.5-.12-.76-.18A9.06,9.06,0,0,0,65,105a15.8,15.8,0,0,1-2.11-.32,13.09,13.09,0,0,1-3.67-1.34c-.07,0,0-.08.11-.08a3.36,3.36,0,0,1,.65.09c1.8.45,3.61.91,5.43,1.31C66.67,105,68,105.28,69.27,105.54Zm-18.92-4.26a5.63,5.63,0,0,1-.61-.27,7.39,7.39,0,0,0-2.46-.71,7.6,7.6,0,0,1-2-.7c-.45-.27-.43-.44.08-.39l1.08.14a5,5,0,0,1,1.81.57,9.56,9.56,0,0,0,1.32.52c2,.65,4.08,1.23,6.14,1.8.89.25,1.32.46,1.34.64s.07.13-.05.14a4.79,4.79,0,0,1-1.24-.19l-2.32-.64h0C52.38,101.92,51.36,101.61,50.35,101.28Zm-9.6-4a2.77,2.77,0,0,1,.91.49,5.2,5.2,0,0,1-1.29-.33l-3.7-1.37c-1.24-.45-2.44-1-3.66-1.46a10.7,10.7,0,0,0-1.34-.42,4,4,0,0,1-1.73-.71c-.54-.34-1.21-.66-1.88-1s-.67-.43-.32-.34a3.38,3.38,0,0,1,.6.17c2.14,1,4.33,1.86,6.52,2.74h0C36.8,95.84,38.8,96.5,40.75,97.26Zm18.41,8.56a2.08,2.08,0,0,1-.86-.42c-.18-.16.52-.22,1-.1,1.53.37,3,.8,4.59,1.12a12.91,12.91,0,0,1,3.08,1c.15.07.42.2.36.2a6.72,6.72,0,0,1-1.29-.17l-3.85-.88h0C61.19,106.34,60.16,106.1,59.16,105.82ZM4.47,75.26a2.09,2.09,0,0,1-.26-.88,5.11,5.11,0,0,1,.6.94,9.46,9.46,0,0,0,.66,1.15,8.1,8.1,0,0,0,.75,1.12l.5.69.56.67c.36.45.78.87,1.19,1.29a13.77,13.77,0,0,0,1,1,8.94,8.94,0,0,0,1.08.89c.54.37,1,.63,1.57,1A6.79,6.79,0,0,1,13.2,84c.25.24.13.26-.3.07l-.49-.25a7.56,7.56,0,0,1-1.62-1,29,29,0,0,1-3.64-3.52h0A17.89,17.89,0,0,1,4.47,75.26Zm195.92.44a9.59,9.59,0,0,1-1.7,3.23s-.06-.05,0-.15a3,3,0,0,1,.15-.59q1-2.41,1.79-4.9a4.58,4.58,0,0,1,.47-1.09c.07-.1.1,0,.14,0s.1.59-.11,1.34c-.13.49-.31,1-.47,1.43h0Zm-97.73,38a2.08,2.08,0,0,1-1.16-.07,9.51,9.51,0,0,0-2.53-.28,4.44,4.44,0,0,1-.62-.1l-1.24-.31H95.83l-.68,0a8.16,8.16,0,0,1-1.45-.25c-.33-.1-.2-.16.27-.19a15.64,15.64,0,0,1,3.39.17l3.92.5c.84.1,1.38.27,1.41.4S102.74,113.63,102.66,113.66ZM62.44,103.09c.55.15.85.32.74.35a1.55,1.55,0,0,1-.57,0c-2.25-.57-4.52-1.08-6.74-1.72a6.76,6.76,0,0,1-1.23-.47,3,3,0,0,1,1,.14c1.25.33,2.49.69,3.75,1h0C60.44,102.58,61.46,102.82,62.44,103.09ZM15.28,86.62c-.74-.5-.75-.65-.12-.41l.49.2a3.76,3.76,0,0,1,1.5.84,16.61,16.61,0,0,0,1.64,1.1c.81.46.84.61.19.42a7.76,7.76,0,0,1-1.61-.63C16.73,87.67,16.18,87.2,15.28,86.62ZM203.6,60.43a2.27,2.27,0,0,1-.1.57c-.06.13-.12-.16-.17-.71a53.29,53.29,0,0,0-.22-6.8,4.88,4.88,0,0,1,0-1.11,4.84,4.84,0,0,1,.28,1.24l.06.76c0,.5.08,1,.13,1.57s0,1.17,0,1.89S203.63,59.43,203.6,60.43ZM131.63,6a4.54,4.54,0,0,1,1.31-.12,4.69,4.69,0,0,1-1,.35c-1.78.38-3.58.73-5.34,1.21-.55.14-.89.12-.79,0a1.82,1.82,0,0,1,.53-.23l1.52-.42C129.58,6.41,130.61,6.24,131.63,6ZM35.94,97.68c.5.22.64.36.67.47s-.08.17-.49.08a7.31,7.31,0,0,1-1.94-.73c-.49-.3-.94-.59-1.39-.88-.12-.08-.28-.21-.21-.2a6.3,6.3,0,0,1,1.27.39l.78.32Zm29.72,4.5a4,4,0,0,1-1.72-.39,3.45,3.45,0,0,1-1.06-.58,23.15,23.15,0,0,1,2.74.54,6.75,6.75,0,0,1,1.24.39A3.28,3.28,0,0,1,65.66,102.18ZM12.54,86.6c.46.35.64.57.5.54a2,2,0,0,1-.51-.24A25.37,25.37,0,0,1,9,84.21a3.72,3.72,0,0,1-.38-.44c.13.07.25.12.39.21a4.06,4.06,0,0,1,.52.36c.57.48,1.19.92,1.79,1.38h0C11.71,86,12.18,86.31,12.54,86.6Zm6.2,4.32a6.31,6.31,0,0,1-1.08-.71,4.1,4.1,0,0,1,1,.38c1.12.59,2.32,1.12,3.45,1.71.52.26.74.48.6.47a2.05,2.05,0,0,1-.56-.18L20.83,92C20.12,91.61,19.41,91.29,18.74,90.92ZM9.49,58.18a4.31,4.31,0,0,1-.55.93c-.38.5-.69,1-1.06,1.51a4,4,0,0,1-.31.34s0-.12,0-.23a2.37,2.37,0,0,1,.22-.46,16,16,0,0,1,1-1.51C9,58.61,9.53,58,9.49,58.18ZM197,82.28a6.29,6.29,0,0,1-.79,1.76l-.37.64c-.13.2-.26.43-.38.61a3.72,3.72,0,0,1-.35.43c-.15.13-.11-.08.15-.6s.48-.83-.08.13A30.23,30.23,0,0,1,197,82.28ZM106.77,114c-1.64-.15-1.84-.17-2.21-.46-.15-.11,0-.19.37-.2a3.78,3.78,0,0,1,1.16.19l1.34.45A5,5,0,0,1,106.77,114ZM2.58,77a4.49,4.49,0,0,1,.73,1c.33.62.83,1.17,1.16,1.76.1.18.18.33.28.49a2.86,2.86,0,0,1-.35-.28c-.12-.14-.28-.29-.41-.46l-.38-.52C2.65,77.49,2.4,76.79,2.58,77ZM30.07,96.09a3.77,3.77,0,0,1-1.23-.42,21.27,21.27,0,0,1-2-.93l-.51-.31a4.52,4.52,0,0,1,.47.11,6.16,6.16,0,0,1,.61.2l.76.34C29.67,95.73,30.33,96.11,30.07,96.09Zm145.36,9.68a9.1,9.1,0,0,1,1.64-1.08l.65-.36c.21-.13.43-.29.61-.39a4.29,4.29,0,0,1,.52-.24c.2-.06.07.11-.41.48a8.12,8.12,0,0,1-1.26.77A8.32,8.32,0,0,1,175.43,105.77ZM5.91,73.56a2.43,2.43,0,0,1-.24-.88c0-.06,0-.06.09,0a1.85,1.85,0,0,1,.4.8,4.08,4.08,0,0,1,.22.8A2.34,2.34,0,0,1,5.91,73.56Zm17.26-29a3.34,3.34,0,0,1-.42.36,7.25,7.25,0,0,1-1.58.92,2.7,2.7,0,0,1,.38-.37,5.58,5.58,0,0,1,1.1-.79C23.14,44.47,23.33,44.42,23.17,44.59ZM99.79,110a4,4,0,0,1,1.27.25c.07,0,0,.07,0,.08a3.83,3.83,0,0,1-1.3-.07,4.92,4.92,0,0,1-1.12-.28A5.29,5.29,0,0,1,99.79,110ZM12.35,52.08a4.13,4.13,0,0,1,.72-.84,3.07,3.07,0,0,1,1-.72c.18-.07.09.09-.29.48S12.29,52.23,12.35,52.08Zm189.4-8.22a6.87,6.87,0,0,1,.34,1.31,1.39,1.39,0,0,1,0,.5,8.44,8.44,0,0,1-.63-1.77,3.76,3.76,0,0,1-.07-.55C201.45,43.19,201.56,43.33,201.75,43.86ZM21,91.36a7.39,7.39,0,0,1-1.23-.64,1.88,1.88,0,0,1-.4-.31,8,8,0,0,1,1.79.75,3.37,3.37,0,0,1,.46.32C21.68,91.6,21.49,91.58,21,91.36ZM23.9,92.6a3.25,3.25,0,0,1,.54.17,8.4,8.4,0,0,1,1.68.91,2.75,2.75,0,0,1-.53-.13A7.1,7.1,0,0,1,24.3,93C23.82,92.7,23.67,92.56,23.9,92.6Zm-8.67-3.68c-.34-.26-.46-.41-.49-.53s.1-.16.55,0a3,3,0,0,1,.42.26c.42.3.51.45.31.45S15.66,89.12,15.23,88.92ZM54,104.16a7.61,7.61,0,0,1-1.34-.41,2.22,2.22,0,0,1-.47-.23,7.47,7.47,0,0,1,1.92.41,3.13,3.13,0,0,1,.52.23C54.8,104.26,54.61,104.28,54,104.16ZM157.7,5.56a4.29,4.29,0,0,1-1.28-.27c-.07,0,0-.07,0-.08a4.36,4.36,0,0,1,1.32.09,4.12,4.12,0,0,1,1.12.35A8.65,8.65,0,0,1,157.7,5.56Z"/></g></g></svg>