<svg xmlns="http://www.w3.org/2000/svg" width="82.62" height="37.09" viewBox="0 0 82.62 37.09"><defs><style>.footer-arrow{fill:#fff;}</style></defs><g id="Layer_2" data-name="Layer 2"><g id="home"><path class="footer-arrow" d="M82.51,11.1c0-.08,0-.16-.16-.23s-.21-.15-.18-.23a4.8,4.8,0,0,0,.09-.75s.08-.05.12-.07l.24-.13-.26-.12c-.09,0-.11-.08-.11-.13a6.36,6.36,0,0,0-.08-.75A6.14,6.14,0,0,0,81.58,7c0-.08-.18-.07-.33-.07s-.2,0-.22,0a6.44,6.44,0,0,0-1.21-1.35,9.64,9.64,0,0,0-2.58-1.52c-.08,0-.12-.05-.33.18-.06.06-.08,0,0-.16s.25-.51.32-.48a12.08,12.08,0,0,1,1.24.55,8.45,8.45,0,0,1,1.29.8s.14,0,.25-.06.19,0,.14.14,0,.12,0,.12A.92.92,0,0,0,80.42,5c.18-.17.26-.31.19-.38a1.62,1.62,0,0,1-.19-.18c-.08-.1-.25-.07-.46,0s-.22,0-.22-.1.05-.2.05-.27-.06-.18-.24-.09-.29.16-.37.11a10,10,0,0,0-1.3-.67c-.49-.21-.78-.31-1-.39,0,0-.09.06-.14.14s-.15.2-.2.18l-.67-.25a.56.56,0,0,0-.13.24.27.27,0,0,0,0,.14l1,.4s0,.06,0,.11a.5.5,0,0,1,0,.13.58.58,0,0,1-.08.12,4.06,4.06,0,0,1-.85-.29s-.11,0-.19.15-.16.18-.2.17L74.6,4s0,0,0,0a.38.38,0,0,0-.08.09c-.16.22-.25.26-.3.19a.35.35,0,0,1,0-.19c0-.13,0-.27,0-.28a.75.75,0,0,1-.25-.09L73.66,4l0-.37-.63-.26s0,0-.07.06c-.15.21-.25.27-.32.23-.26-.13-.54-.23-.8-.34a.16.16,0,0,1-.08-.06s0-.08,0-.13.06-.3-.07-.11-.16.18-.2.16l-.86-.36v0l-1-.42a1.1,1.1,0,0,1,.06-.31,1.8,1.8,0,0,1,.16-.36A.38.38,0,0,1,70,1.63s.1,0,.2-.24,0-.18-.07-.2A4.56,4.56,0,0,0,69.62,1s0,0-.06.05c-.18.18-.19.19-.18,0s0-.16,0-.17L68.91.75,68.22.53s-.11,0-.19.16-.14.19-.24.17-.07-.14-.06-.29,0-.15-.09,0-.1.18-.12,0-.06-.23-.17-.05l-.07.12c-.08.12-.13.13-.15,0a1,1,0,0,0,0-.35c-.07-.07-.16-.07-.29.2-.05.1-.09.14-.13.13s-.2,0-.3-.06a1.2,1.2,0,0,0-.2,0s-.08.1-.12.2,0,.21,0,.22c.62.12,1.24.27,1.85.45,0,0,.08-.06.13-.14s.15-.24.2-.21.2.06.29.1,0,.06,0,.1c0,.26,0,.37.11.4a1.15,1.15,0,0,1,.5.2.37.37,0,0,1,0,.14.75.75,0,0,1-.06.13s-.06.09-.07.08c-.72-.24-1.45-.47-2.2-.64a.18.18,0,0,0-.1,0,.35.35,0,0,0-.07.11c-.09.16-.17.26-.23.24a27.14,27.14,0,0,0-4.7-.56l-.42,0s-.06-.07-.08-.16-.06-.27-.12-.26-.28,0-.42,0a1.31,1.31,0,0,0-.28,0c-.05,0-.09-.11-.12-.25l-.06-.3A2.5,2.5,0,0,1,60.17,0c0,.09-.05.18-.08.26S60,.4,60,.26,59.91.09,59.89,0c0,.08,0,.16-.08.25s-.09.1-.13.24,0,.55-.08.75a1.14,1.14,0,0,0,0,.52,2.29,2.29,0,0,1,0,.39v.22a2.65,2.65,0,0,0,.07.75c0,.14.06.3.11.3l.76,0s.09.06.12.2.06.24.11.24c.45,0,.89,0,1.33.06a.11.11,0,0,1,.08,0s0,.06,0,.11.08.32.14.31a2.33,2.33,0,0,1,.38,0s0,0,0,0a1,1,0,0,1,0,.12c0,.29.09.31.18,0s.12-.23.15,0l0,.13c0,.23.11.19.19.07s.06-.17.09-.23.09-.11.11,0,0,.15,0,.23l.1-.25c.05-.13.09-.06.13-.08s0,0,.06.14S64,5,64,5c.22,0,.43.06.64.09a17.56,17.56,0,0,1,3.2.84c1.08.4,2.23.9,3.41,1.39l.39.15s.09-.05.14-.12.17-.2.21-.18c.64.27,1.3.52,1.95.78a.7.7,0,0,0,.14,0s0,0,.07-.07.21-.26.27-.23l.93.36a4.23,4.23,0,0,1,1.14.59s.07,0,.17-.07.27-.15.29-.12a1.21,1.21,0,0,0,.2.19s0,.09-.16.17l-.08.07-.27.07s-.11-.06-.18-.13-.18-.23-.27-.2a3.88,3.88,0,0,1-.61.15s0,0-.08-.08-.25-.27-.36-.24-.45.12-.68.18c0,0-.11,0-.17-.11s-.19-.24-.27-.21-.45.12-.68.18l-.91.23c-.08,0-.16,0-.26-.15s-.18-.19-.26-.16a2.54,2.54,0,0,0-.37.1c-.09,0-.18-.1-.27-.21A.24.24,0,0,0,71,8.15c-.08,0-.14.08-.16.23s0,.21-.19,0-.12-.14-.17-.13l-.76.18c-.05,0-.11,0-.18-.13s-.17-.17-.18,0,0,.19-.09.2L68.1,8.9s-.11,0-.17-.12-.18-.23-.27-.21l-2.5.63c-.08,0-.16,0-.25-.16s-.18-.17-.26-.15l-2,.52s0,0-.07,0,0,.09,0,.13c-.07.32-.07.31-.2.35s-.16,0-.26-.14-.17-.2-.26-.18a6,6,0,0,1-.61.14s-.06-.06-.09-.09-.23-.26-.34-.23l-5.47,1.35-1.76.43s-.11,0-.17-.13-.18-.23-.27-.2a2.44,2.44,0,0,1-.53.14c-.09,0-.13.12-.15.27s-.14.24-.24.27-.11,0-.17-.11c-.25-.3-.28-.28-.35,0,0,.13-.06.26-.15.27a1.26,1.26,0,0,0-.38.1c-.06,0-.11,0-.18-.09s-.24-.27-.35-.23-.45.12-.68.19c0,0-.08.09-.1.19s0,.22-.17.06-.13-.14-.18-.13l-1.54.4s-.08.08-.09.19a.7.7,0,0,0,0,.14c0,.12-.05.17-.11.17s-.14.07-.24,0a.36.36,0,0,1-.1-.11c-.08-.13-.12-.13-.14,0s0,.3-.13.32l-1,.28c-.08,0-.13.11-.15.26s-.07.25-.15.27l-.77.2s-.06-.06-.1-.1l-.18-.19-.06.29a.13.13,0,0,1-.11.14c-.84.24-1.68.48-2.52.74-.09,0-.11.16-.13.3s0,.19-.08.21l-1.9.59-3,1c-.1,0-.1,0-.18.36,0,.09-.07.08-.14-.09s-.14-.56,0-.6l1.28-.44,1.44-.49c.05,0,.07-.11.07-.23s.09-.14.19,0,.09.1.1.08a.9.9,0,0,0,0-.37c-.08-.22-.18-.36-.27-.34a1.89,1.89,0,0,1-.23,0c-.12,0-.17.16-.18.38s-.1.18-.2.11-.13-.16-.2-.2-.17-.06-.19.12,0,.31-.11.34l-1.29.43-1.29.45s-.06.11-.07.21,0,.28-.12.3l-1.2.45a.35.35,0,0,0,0,.27c0,.05.08.12.1.11l1.74-.59s.06,0,.09.08a.25.25,0,0,1,.07.12c0,.06,0,.14,0,.15a14.66,14.66,0,0,1-1.48.58c-.07,0-.12.11-.13.26s0,.26-.12.29l-1.27.47s-.05,0-.07,0a.44.44,0,0,0,0,.13c0,.29-.1.39-.24.4a.35.35,0,0,1-.19-.12c-.1-.09-.21-.2-.29-.15a3.25,3.25,0,0,1-.43.18l-.06.4-.3-.26-1.11.44s0,.06,0,.1c0,.27-.08.4-.21.45-.47.16-.93.36-1.4.54a.27.27,0,0,1-.15,0s-.07-.05-.11-.08-.21-.24-.2,0,0,.26-.11.3l-1.45.6v0l-1.61.64a.72.72,0,0,1-.21-.26.93.93,0,0,1-.12-.37c0-.05,0-.1,0-.12s.11-.1,0-.34-.19-.09-.26-.06c-.27.11-.54.22-.8.35,0,0,0,.06,0,.1-.07.28-.06.29-.21.16s-.14-.1-.19-.07l-.65.28-1,.45c-.08,0-.11.13-.11.28s0,.25-.17.33-.19,0-.3-.15-.12-.1-.12.05,0,.22-.17.08-.24-.12-.25.11v.14c0,.16-.07.21-.18.12s-.23-.22-.32-.21-.25.08-.22.39c0,.12,0,.17-.07.19l-.42.21a1.22,1.22,0,0,0-.28.14c-.05,0,0,.14,0,.25s.15.15.2.13c.9-.44,1.82-.83,2.72-1.24.05,0,.06-.11.06-.21s0-.3.09-.33.29-.12.43-.17.07,0,.1.05c.2.18.34.22.47.16a2.79,2.79,0,0,1,.8-.32s.07.05.11.1a.49.49,0,0,1,0,.14s0,.11,0,.12l-3.36,1.53a.39.39,0,0,0-.14.08s0,.08,0,.13,0,.34-.14.38c-2.37,1.12-14.74,7.21-17.08,8.38l-.64.3c-.05,0-.12,0-.2-.09s-.22-.18-.3-.13-.42.21-.63.31a3.29,3.29,0,0,0-.42.21c-.08,0-.18,0-.3-.13L.73,34,.5,33.79a2.71,2.71,0,0,0,0,.29c0,.15-.07.18-.2.09L.08,34v.28c0,.16-.09.16-.08.31s.2.52.21.73a.73.73,0,0,0,.26.46,1.45,1.45,0,0,1,.22.33l.1.19a1.7,1.7,0,0,0,.45.61c.11.1.23.22.31.18l1.19-.58c.07,0,.16,0,.28.08s.21.16.29.12l2.1-1a.67.67,0,0,1,.15-.06.26.26,0,0,1,.1.07c.15.12.29.21.39.15s.42-.2.63-.3c0,0,10.05-5,10.09-5l.11.08c.22.21.32.18.31-.12s.06-.29.23-.16l.11.09c.21.15.3.06.36-.11s0-.19,0-.27.08-.17.21,0,.14.09.2.14v-.28c0-.15.1-.13.16-.18s.1,0,.19,0,.28.2.38.15l1.12-.53c3.88-1.83,7.8-3.55,11.76-5.11l.64-.27s.06-.1.07-.2,0-.28.1-.31c1.07-.43,2.16-.83,3.25-1.23a1,1,0,0,0,.21-.09s0-.07,0-.11.05-.35.15-.39c.54-.19,1.07-.4,1.61-.57,1.2-.4,2.38-.82,3.59-1.19.05,0,.08-.09.09-.19s0-.29.12-.31a5,5,0,0,0,.66-.2c.08,0,.17,0,.27.14s.19.18.26.14a.57.57,0,0,1,.22-.07c.06,0,.08-.07.1-.17s0-.31.11-.33L45,18.39c.05,0,.08-.09.08-.21s.09-.15.19,0,.13.13.18.11l.89-.26s.07-.1.09-.2.05-.27.13-.29l2.78-.77a2.81,2.81,0,0,1,.31-.08c.09,0,.12-.13.13-.28s0-.18.13,0,.13.17.15.09.08-.34.19-.37l2.35-.59c.11,0,.24.28.34.23.09-.24.09-.24.24-.07s.07.09.09.09c.2-.05.41-.09.61-.15l7.44-1.83a.93.93,0,0,1,.23,0s.06,0,.09.07.24.27.35.24l1.44-.36,4.41-1.09.39-.06s.06.06.09.1.18.21.2,0a.25.25,0,0,1,.15-.25c.11,0,.22,0,.35.2s.12.12.17.1L71.74,12c.08,0,.16,0,.26.14s.18.19.26.17L73.7,12c.09,0,.18.09.27.19s.13.14.18.12l1.67-.42c.05,0,.11.05.18.13s.18.22.27.19a1.64,1.64,0,0,1,.38-.1c.2-.05.41-.09.61-.16s.16.06.25.17c-.26.27-.53.52-.86.81,0,0-.28-.19-.32-.13.08.22.08.22-.1.11l-.1-.06-.28.23c-1.13,1-2.27,2-3.42,2.86l-.11.07s-.06,0-.09-.05-.27-.19-.32-.15c-.21.17-.44.34-.66.5-.67.49-1.4.9-2.2,1.45a.91.91,0,0,1-.22.11s-.07,0-.1-.07-.21-.17-.13,0,.05.21,0,.25-.15,0-.31-.12-.13-.09-.16-.07c-.43.32-.84.64-1.25,1,0,0-.11,0-.23-.07s-.2-.14-.24-.1l-.7.56s-.15,0-.26-.11S65.33,19,65.3,19l-.8.65s-.09,0-.17-.07-.23-.16-.26-.12a.9.9,0,0,1-.18.16,2.17,2.17,0,0,0-.29.24s-.13,0-.24-.1-.16-.1-.18-.08a3.19,3.19,0,0,0-.4.33c0,.05-.16,0-.32-.12l-.1-.06s-.07,0,0,.11a3.42,3.42,0,0,0,.45.72c.22.27.29.48.56.78l.18.29c.09.15.17.28.25.43l.1.13c.1.08.15.09.17.07s.08-.05.11-.09.11,0,.23.07.21.13.25.1a1.34,1.34,0,0,1,.29-.23s.06,0,.1.06.28.18.32.12a.79.79,0,0,1,.18-.14s.09,0,.17.07.22.15.26.12a1.28,1.28,0,0,1,.29-.23s.05,0,.09,0,.29.19.33.14.22-.17.32-.26.08,0,.16.06.23.17.27.14a2.73,2.73,0,0,1,.31-.27l.42-.34s.11,0,.23.08.2.13.23.1.13-.08.17-.14.16.05.26.13.17.07.2,0,0-.09,0-.22-.08-.18.08-.07.14.11.17.09l.35-.26s.08,0,.16.09.19.12.1-.06-.08-.16,0-.18l.54-.42s.08,0,.15.08.21.18.25.16c.36-.27.71-.5,1.12-.77,0,0,.12,0,.22.12s.19.14.23.11c.35-.23.77-.51,1.14-.78,0,0,0,0,0-.05a.41.41,0,0,0,0-.12c-.09-.29-.08-.28,0-.34s.11,0,.22.08.21.14.25.1a2.44,2.44,0,0,1,.33-.23.64.64,0,0,1,.11.06c.14.11.27.18.33.14.94-.75,1.81-1.48,2.68-2.21l.82-.7s.09,0,.17.07.23.16.26.11a1.27,1.27,0,0,1,.25-.21s0-.13-.06-.26,0-.22,0-.26.08,0,.16.05c.3.2.31.19.21-.08s-.1-.23-.05-.26a.91.91,0,0,0,.21-.18s.07,0,.16,0,.34.12.42,0,.38-.4.57-.6c0,0,0-.12,0-.22s-.08-.2.14-.16.2,0,.24,0a9,9,0,0,0,1.05-1.44s0-.12-.07-.2,0-.07-.09-.1-.09-.14,0-.19,0-.15.19-.18l.15,0c.17,0,.19,0,.12-.11s-.22-.19-.18-.28A6.85,6.85,0,0,0,82.51,11.1ZM77.28,8.91c.07,0,.12,0,.13,0a1.33,1.33,0,0,1,.09.21h0s-.06,0-.09-.09Z"/></g></g></svg>