<svg xmlns="http://www.w3.org/2000/svg" width="59.28" height="59.88" viewBox="0 0 59.28 59.88"><defs><style>.outer{fill:#212626;}.base{fill:#e8c65f;}</style></defs><g id="Layer_2" data-name="Layer 2"><g id="home"><path class="outer" d="M27,23.78V48.73h5.47V28.38h7.22v-4.6Zm5.47-7.44H27v5.91h5.47V16.34ZM19.59,23.78H25.5v4.6H19.59v-4.6Z" transform="translate(-0.36 -0.06)"/><path class="base" d="M47.63,44.55h0a23,23,0,0,1-27.54,6.36l-.91,2a25.23,25.23,0,0,0,30.12-7h0a25.22,25.22,0,0,0,5.23-11.24l-2.12-.4a22.93,22.93,0,0,1-4.78,10.28ZM18.12,13.38a20.3,20.3,0,0,0-5.52,5.79l1.82,1.15a18.16,18.16,0,0,1,4.93-5.18,18.43,18.43,0,0,1,3.76-2,18,18,0,0,1,6.66-1.26A18.19,18.19,0,0,1,47.55,26.39h0a18.2,18.2,0,0,1,.32,2.35c0,.43,0,.85,0,1.26a18.1,18.1,0,0,1-4.07,11.46l1.67,1.36a20.35,20.35,0,0,0,4.21-9.06A20.63,20.63,0,0,0,50.07,30c0-.45,0-.93,0-1.41A21,21,0,0,0,49.67,26h0A20.27,20.27,0,0,0,18.12,13.38ZM9.82,26.23A20.74,20.74,0,0,0,9.47,30a20.42,20.42,0,0,0,.36,3.82h0a20.33,20.33,0,0,0,11.41,14.6,19.9,19.9,0,0,0,2.05.82l.69-2a17.88,17.88,0,0,1-1.83-.73,18.24,18.24,0,0,1-9.47-10.38A17.26,17.26,0,0,1,12,33.42h0A18.77,18.77,0,0,1,11.63,30a18.14,18.14,0,0,1,.31-3.37l-2.12-.4Zm20,31.55A27.79,27.79,0,0,1,2.48,35.23l-2.12.41A29.94,29.94,0,0,0,53,48.91l-1.67-1.36A27.7,27.7,0,0,1,29.77,57.78ZM50.24,8.15a29.95,29.95,0,0,0-48,10.11l2,.85a27.79,27.79,0,0,1,53.29,9l2.15-.14a29.86,29.86,0,0,0-9.4-19.78Zm-43.65,12a24.94,24.94,0,0,0-2,9.88A26,26,0,0,0,5,34.74l2.12-.4A23.45,23.45,0,0,1,6.73,30a22.89,22.89,0,0,1,1.84-9,23.2,23.2,0,0,1,8-9.84L15.31,9.37A25.21,25.21,0,0,0,6.59,20.12ZM29.77,7a23,23,0,0,0-8.46,1.6l-.79-2A25.22,25.22,0,0,1,54.46,25l-2.11.43A23.1,23.1,0,0,0,29.77,7Z" transform="translate(-0.36 -0.06)"/></g></g></svg>