<svg xmlns="http://www.w3.org/2000/svg" width="59.28" height="59.88" viewBox="0 0 167.31 170.13"><defs><style>.cross-blacked-out{fill:#1e2626;}</style></defs><g id="Layer_2" data-name="Layer 2"><g id="home"><g id="Layer_2-2" data-name="Layer 2"><g id="home-2" data-name="home"><path class="cross-blacked-out" d="M74.82,65.24v70.51h14.1V79.34h22.56V65.24ZM88.92,45.5H74.82V62.42h14.1ZM55.07,65.24H72v14.1H55.07Z"/><path class="cross-blacked-out" d="M133.32,125.44h0a64.87,64.87,0,0,1-77.67,17.94L53.08,149a71.16,71.16,0,0,0,85-19.74h0a71.1,71.1,0,0,0,14.75-31.7l-6-1.13A64.7,64.7,0,0,1,133.32,125.44ZM50.09,37.53A57.28,57.28,0,0,0,34.52,53.86l5.14,3.24a51.2,51.2,0,0,1,13.9-14.61,52.39,52.39,0,0,1,10.61-5.64A50.72,50.72,0,0,1,83,33.3,51.3,51.3,0,0,1,133.1,74.22h0a64.12,64.12,0,0,1,1,6.63V84.4a51.38,51.38,0,0,1-11.53,32.33l4.71,3.83A57.48,57.48,0,0,0,139.11,95a32.59,32.59,0,0,0,.58-10.61v-4a22,22,0,0,0-.61-7.31h0a57.17,57.17,0,0,0-89-35.59ZM26.68,73.77a59.31,59.31,0,0,0-1,10.63,57.3,57.3,0,0,0,1,10.78h0a57.35,57.35,0,0,0,32.18,41.18,56.59,56.59,0,0,0,5.78,2.31l2-5.64A50,50,0,0,1,61.46,131a51.4,51.4,0,0,1-26.71-29.28,47.73,47.73,0,0,1-1.92-7.64h0a53.06,53.06,0,0,1-1-9.65,50.5,50.5,0,0,1,.87-9.5ZM83.09,164A78.39,78.39,0,0,1,6,100.36l-6,1.15a84.44,84.44,0,0,0,148.47,37.43l-4.71-3.84A78.13,78.13,0,0,1,83,164ZM140.68,22.78A84.47,84.47,0,0,0,5.3,51.29l5.64,2.4A78.39,78.39,0,0,1,161.25,79.07l6.06-.39A84.24,84.24,0,0,0,140.8,22.89ZM18.41,56.62a70.24,70.24,0,0,0-5.64,27.87,73.9,73.9,0,0,0,1.15,13.28l6-1.13A66.9,66.9,0,0,1,18.8,84.4,64.77,64.77,0,0,1,46.56,31.27L43,26.22A71.09,71.09,0,0,0,18.41,56.54ZM83,19.53a64.74,64.74,0,0,0-23.86,4.52L56.86,18.4a71.14,71.14,0,0,1,95.73,51.9l-6,1.21A65.16,65.16,0,0,0,83,19.53Z"/></g></g></g></g></svg>