<svg xmlns="http://www.w3.org/2000/svg" width="161.96" height="163.61" viewBox="0 0 161.96 163.61"><defs><style>.cross-white{fill:#fff;}.flare-yellow{fill:#f5c717;}</style></defs><g id="Layer_2" data-name="Layer 2"><g id="home"><g id="Layer_2-2" data-name="Layer 2"><g id="home-2" data-name="home"><path class="cross-white" d="M72.45,65v68.63H87.7V77.69h19.07V65ZM87.7,44.65H72.45V61.17H87.7ZM52.12,65H68.64V77.69H52.12Z"/><path class="flare-yellow" d="M129.64,121.54h0a63,63,0,0,1-75.26,17.39l-2.48,5.34a68.84,68.84,0,0,0,82.3-19.07h0a68.83,68.83,0,0,0,14.29-30.72l-5.78-1.08a63.17,63.17,0,0,1-13.07,28.08ZM48.57,36.38A55.39,55.39,0,0,0,33.44,52.21l5,3.14a49.56,49.56,0,0,1,90.52,16.52h0a51.45,51.45,0,0,1,.86,6.43c.08,1.18.12,2.34.12,3.44a49.46,49.46,0,0,1-11.14,31.32l4.57,3.72a55.35,55.35,0,0,0,12.46-35,34.66,34.66,0,0,0-.14-3.81,54.75,54.75,0,0,0-1-7.21h0A55.42,55.42,0,0,0,48.57,36.38ZM25.85,71.33a56.49,56.49,0,0,0-1,10.3,55.33,55.33,0,0,0,1,10.43h0a55.19,55.19,0,0,0,2.23,8.2,55.55,55.55,0,0,0,34.54,34l1.88-5.58a51.32,51.32,0,0,1-5-2,50,50,0,0,1-25.86-28.4,48.77,48.77,0,0,1-2-7.31h0a49.82,49.82,0,0,1,0-18.54l-5.79-1.1Zm54.49,86.38A76,76,0,0,1,5.78,96.09L0,97.19a81.82,81.82,0,0,0,143.77,36.28l-4.56-3.73a75.66,75.66,0,0,1-58.85,28ZM136.26,22.1A81.83,81.83,0,0,0,5.07,49.73L10.45,52a75.93,75.93,0,0,1,145.64,24.5l5.87-.41A81.44,81.44,0,0,0,136.26,22.1ZM17,54.81a68.37,68.37,0,0,0-5.49,27,70.46,70.46,0,0,0,1.27,13l5.79-1.1a63.78,63.78,0,0,1-1.12-11.86A62.79,62.79,0,0,1,44.26,30.25l-3.38-4.82A69,69,0,0,0,17,54.81ZM80.34,18.89a62.32,62.32,0,0,0-23.1,4.37l-2.16-5.52a68.88,68.88,0,0,1,92.77,50.34l-5.77,1.17A63.1,63.1,0,0,0,80.34,18.89Z"/></g></g></g></g></svg>