<svg xmlns="http://www.w3.org/2000/svg" width="347.13" height="94.62" viewBox="0 0 347.13 94.62"><defs><style>.logo-white{fill:#fff;}.cls-2{fill:#f5c717;}</style></defs><g id="Layer_2" data-name="Layer 2"><g id="home"><g id="Layer_2-2" data-name="Layer 2"><g id="home-2" data-name="home"><path class="logo-white" d="M54.23,49.63l-.06,39.56h8.75l0-32.06H74.21V49.66ZM63,38H54.25l0,9.16H63ZM42.57,49.61l9.16,0V56.7H42.56Z" transform="translate(-11.92 -12.15)"/><path class="cls-2" d="M86.61,82.52h0a36.44,36.44,0,0,1-43.56,10L41.61,95.6A39.87,39.87,0,0,0,89.25,84.67h0A39.86,39.86,0,0,0,97.54,66.9l-3.33-.64a36.51,36.51,0,0,1-7.58,16.23ZM40,33.17a32.15,32.15,0,0,0-8.74,9.15l2.88,1.83A28.7,28.7,0,0,1,86.53,53.8h0A29.6,29.6,0,0,1,87,57.55c0,.68.07,1.35.07,2a28.65,28.65,0,0,1-6.48,18.09l2.64,2.16a32.12,32.12,0,0,0,7.24-20.26c0-.72,0-1.47-.08-2.23a30.56,30.56,0,0,0-.55-4.16h0A32.07,32.07,0,0,0,40,33.17ZM26.87,53.34a32.23,32.23,0,0,0,0,12h0a31.07,31.07,0,0,0,1.3,4.74A32.28,32.28,0,0,0,44.88,88.44a30.41,30.41,0,0,0,3.24,1.3l1.09-3.23A28.76,28.76,0,0,1,31.37,68.93a28.1,28.1,0,0,1-1.14-4.23h0a28.89,28.89,0,0,1,0-10.73l-3.33-.63Zm31.47,50A44,44,0,0,1,15.25,67.63l-3.33.64a47.34,47.34,0,0,0,83.16,21.1l-2.64-2.15a43.78,43.78,0,0,1-34.08,16.13ZM90.82,25A47.32,47.32,0,0,0,14.88,40.86L18,42.2a43.93,43.93,0,0,1,84.22,14.28l3.4-.23A47.09,47.09,0,0,0,90.82,25ZM21.76,43.81a39.67,39.67,0,0,0-3.2,15.61,40.11,40.11,0,0,0,.7,7.5l3.33-.64A36.72,36.72,0,0,1,22,59.42,36.34,36.34,0,0,1,37.53,29.63l-2-2.8a40,40,0,0,0-13.81,17ZM58.44,23.05a36,36,0,0,0-13.37,2.51l-1.25-3.17A39.87,39.87,0,0,1,97.44,51.61l-3.33.67a36.51,36.51,0,0,0-35.65-29.2Z" transform="translate(-11.92 -12.15)"/><path class="cls-2" d="M118.72,87.89a12,12,0,0,1,12.36-12.24,11.62,11.62,0,0,1,10.18,5.72l-1.6.91a9.69,9.69,0,0,0-8.58-4.89,10.52,10.52,0,1,0,0,21,9.72,9.72,0,0,0,8.66-5l1.59.92a11.61,11.61,0,0,1-10.25,5.79,12,12,0,0,1-12.33-12.27Z" transform="translate(-11.92 -12.15)"/><polygon class="cls-2" points="150.95 63.87 150.91 87.61 149.25 87.61 149.26 76.36 135.52 76.34 135.51 87.58 133.84 87.58 133.88 63.85 135.54 63.85 135.53 74.68 149.27 74.7 149.28 63.87 150.95 63.87 150.95 63.87"/><path class="cls-2" d="M168.68,91.85l0-15.82h1.66l0,15.82c0,3.87,2.39,6.59,6.84,6.6s6.9-2.71,6.9-6.58l0-15.82h2.09l0,15.83c0,5-3.52,8.32-8.77,8.31S168.67,96.88,168.68,91.85Z" transform="translate(-11.92 -12.15)"/><path class="cls-2" d="M193.25,88.56H201a5.42,5.42,0,0,0,0-10.83h-7.72Zm7.7,1.67h-7.71V99.8h-1.66l0-23.74H201a7,7,0,0,1,1.78,13.76l5.88,10h-2.09L201,90.26Z" transform="translate(-11.92 -12.15)"/><path class="cls-2" d="M211.05,88a12,12,0,0,1,12.37-12.23,11.58,11.58,0,0,1,10.17,5.71l-1.59.92a9.7,9.7,0,0,0-8.58-4.9,10.52,10.52,0,1,0,0,21,9.75,9.75,0,0,0,8.66-5l1.59.92a11.56,11.56,0,0,1-10.25,5.79A12,12,0,0,1,211.07,88Z" transform="translate(-11.92 -12.15)"/><polygon class="cls-2" points="243.39 64.01 243.35 87.74 241.69 87.74 241.7 76.5 227.54 76.48 227.53 87.72 225.86 87.72 225.9 63.98 227.56 63.98 227.55 74.81 241.7 74.83 241.72 64 243.39 64.01 243.39 64.01"/><path class="logo-white" d="M135.87,31.74v3.5c-6.22,0-12.08,3.85-12.09,13.18l0,20.46H120l.06-36.64h3.74v7.15c2.49-5.76,7.17-7.65,12.09-7.64Z" transform="translate(-11.92 -12.15)"/><path class="logo-white" d="M175.26,50.65A15.27,15.27,0,0,0,159.9,35.1a15.53,15.53,0,1,0,0,31.05A15.28,15.28,0,0,0,175.26,50.65Zm3.91-18.33,0,36.64h-3.75V60.69a17.69,17.69,0,0,1-15.82,9.06,19.13,19.13,0,1,1,.05-38.26,17.7,17.7,0,0,1,15.8,9.12V32.32Z" transform="translate(-11.92 -12.15)"/><path class="logo-white" d="M222.34,50.72a15.35,15.35,0,1,0,0,.3Zm3.9-32.9L226.17,69h-3.75l0-8.49a17.83,17.83,0,0,1-16.13,9.27,19.1,19.1,0,1,1,.05-38.19,17.8,17.8,0,0,1,16.1,9.31l0-23.12Z" transform="translate(-11.92 -12.15)"/><path class="logo-white" d="M237.05,32.41h3.75l-.06,36.64H237Zm-.89-11.63a2.92,2.92,0,1,1,2.91,2.92A2.92,2.92,0,0,1,236.16,20.78Z" transform="translate(-11.92 -12.15)"/><path class="logo-white" d="M284.15,50.81a15.27,15.27,0,0,0-15.36-15.55,15.53,15.53,0,1,0,0,31.05A15.28,15.28,0,0,0,284.15,50.81Zm3.7-18.33-.05,36.64h-3.75V60.84a17.65,17.65,0,0,1-15.81,9.07,19.13,19.13,0,1,1,.06-38.26h0a17.66,17.66,0,0,1,15.78,9.12V32.48Z" transform="translate(-11.92 -12.15)"/><path class="logo-white" d="M329.88,46.39l0,22.79H326.1l0-22.67c0-6.71-3.82-11.08-10.63-11.09-7.1,0-12.68,4.64-12.7,14.48l0,19.24H299l0-36.64h3.75v7c2.77-5.43,7.41-7.75,13-7.74,8.63,0,14.08,5.81,14.07,14.67Z" transform="translate(-11.92 -12.15)"/><path class="logo-white" d="M348.22,36.32l0,23.62C348,66.36,359,65.86,359,65.86v3.39c-9.83,1.49-15-.92-15-9.47l0-23.47h-7.92V32.55h8.33V23.45l3.75-1.08,0,10.2h10.83v3.75Z" transform="translate(-11.92 -12.15)"/></g></g></g></g></svg>