<?xml version="1.0" standalone="no"?>
<!DOCTYPE svg PUBLIC "-//W3C//DTD SVG 20010904//EN"
 "http://www.w3.org/TR/2001/REC-SVG-20010904/DTD/svg10.dtd">
<svg version="1.0" xmlns="http://www.w3.org/2000/svg"
 width="700.000000pt" height="700.000000pt" viewBox="0 0 700.000000 700.000000"
 preserveAspectRatio="xMidYMid meet">
<metadata>
Created by potrace 1.11, written by Peter Selinger 2001-2013
</metadata>
<g transform="translate(0.000000,700.000000) scale(0.100000,-0.100000)"
fill="#000000" stroke="none">
<path d="M3337 6834 c-1 -1 -49 -4 -107 -8 -58 -3 -116 -8 -130 -10 -14 -3
-47 -7 -75 -11 -27 -3 -75 -10 -105 -15 -30 -5 -70 -12 -88 -15 -61 -10 -336
-83 -417 -110 -139 -47 -275 -104 -431 -181 -160 -78 -179 -90 -374 -220 -320
-213 -619 -501 -838 -809 -40 -55 -76 -105 -82 -112 -5 -6 -18 -27 -28 -45
-11 -18 -38 -64 -62 -103 -51 -83 -176 -331 -185 -367 -6 -23 -1 -27 96 -67
56 -23 109 -39 117 -36 8 3 12 8 9 11 -7 7 108 240 163 329 22 37 40 71 40 75
0 5 3 10 8 12 4 2 29 37 56 78 322 494 841 915 1408 1144 124 50 224 85 303
106 17 5 55 15 85 23 51 14 198 46 245 53 11 2 31 5 45 8 127 23 250 31 485
31 202 0 333 -7 400 -20 11 -2 38 -6 60 -9 172 -21 485 -105 672 -180 408
-164 733 -378 1044 -686 305 -303 523 -627 684 -1015 110 -264 198 -619 220
-885 4 -41 9 -77 11 -79 3 -3 26 -3 52 -2 26 2 63 5 82 6 19 2 50 3 68 4 l33
1 -6 83 c-3 45 -8 89 -10 97 -2 8 -7 40 -10 70 -7 64 -13 97 -56 285 -42 186
-111 401 -173 539 -107 236 -191 391 -309 566 -447 661 -1146 1157 -1913 1355
-130 34 -305 69 -402 80 -26 3 -58 8 -72 10 -70 12 -501 28 -513 19z"/>
<path d="M3318 6305 c-2 -2 -41 -6 -88 -10 -140 -11 -210 -22 -370 -56 -127
-27 -410 -119 -410 -133 0 -14 70 -198 80 -209 4 -4 38 4 76 18 58 22 168 56
224 70 71 17 214 46 255 51 28 3 59 8 70 10 79 16 376 22 510 11 145 -12 313
-36 367 -53 10 -3 29 -7 42 -10 157 -28 483 -159 684 -274 598 -342 1049 -943
1213 -1620 17 -73 25 -90 38 -86 9 2 52 12 96 21 44 8 89 18 101 20 l21 5 -24
102 c-159 666 -576 1268 -1148 1657 -83 57 -308 191 -320 191 -2 0 -42 18 -89
40 -221 103 -541 200 -741 225 -22 2 -56 7 -75 10 -97 14 -150 17 -322 20
-103 1 -189 1 -190 0z"/>
<path d="M1785 5739 c-156 -117 -351 -300 -454 -425 -240 -293 -409 -595 -522
-936 -36 -105 -93 -339 -105 -423 -2 -16 -6 -41 -9 -54 -2 -13 -7 -56 -10 -95
-4 -39 -8 -87 -11 -106 -4 -40 -4 -325 0 -385 6 -72 17 -186 21 -205 6 -31 19
-114 20 -125 0 -5 5 -10 10 -10 10 0 106 17 115 20 3 1 29 5 59 10 l53 8 -5
51 c-3 28 -9 62 -12 76 -20 91 -28 487 -12 625 19 167 23 189 63 352 81 335
231 648 451 941 99 133 319 357 437 447 43 33 90 69 103 80 l24 20 -65 94
c-36 51 -66 95 -68 97 -2 2 -40 -24 -83 -57z"/>
<path d="M3195 5744 c-648 -87 -1201 -423 -1580 -958 -34 -48 -46 -72 -39 -82
5 -7 49 -39 98 -69 73 -45 91 -53 98 -41 9 17 115 160 150 203 53 66 239 244
318 304 229 176 478 296 750 362 95 24 125 30 210 42 118 18 292 22 435 12
561 -42 1106 -340 1450 -792 156 -206 284 -475 349 -734 52 -203 73 -483 52
-686 -37 -361 -179 -725 -392 -1009 l-52 -69 32 -26 c17 -14 33 -28 36 -31 13
-15 113 -90 119 -90 10 1 116 150 177 250 175 287 279 603 320 965 9 79 9 345
0 415 -4 30 -9 71 -11 90 -50 402 -222 798 -490 1130 -108 135 -325 339 -433
407 -15 10 -29 20 -32 24 -3 4 -48 33 -100 64 -258 157 -582 276 -850 311 -25
3 -72 9 -105 14 -94 12 -400 9 -510 -6z"/>
<path d="M3160 5010 c-4 -3 -8 -154 -8 -337 l0 -332 311 2 311 2 1 333 c0 214
-4 332 -10 333 -33 4 -598 3 -605 -1z"/>
<path d="M2326 4180 c-2 -3 -3 -119 -3 -257 l0 -253 36 0 c57 -1 520 -1 582
-1 l55 1 0 258 -1 257 -333 0 c-183 1 -335 -1 -336 -5z"/>
<path d="M3155 4180 c-2 -3 -3 -632 -3 -1398 l0 -1392 36 -1 c282 -4 576 1
581 9 3 6 6 517 6 1136 -1 1007 1 1126 15 1131 8 2 152 4 320 4 168 0 335 1
373 1 l67 0 0 258 0 258 -696 0 c-382 0 -697 -3 -699 -6z"/>
<path d="M1245 3887 c-24 -144 -33 -261 -30 -427 2 -85 6 -171 9 -190 3 -19 8
-55 11 -80 10 -90 46 -250 81 -361 124 -393 359 -754 672 -1031 78 -69 268
-204 355 -252 164 -92 395 -192 408 -178 4 4 22 55 42 114 l35 106 -31 12
c-116 44 -193 78 -267 118 -668 356 -1083 1050 -1074 1797 1 131 7 211 21 295
10 64 9 73 -12 76 -33 5 -189 35 -201 39 -7 2 -15 -14 -19 -38z"/>
<path d="M6016 3011 c-3 -9 -14 -56 -26 -106 -103 -448 -352 -890 -689 -1225
-200 -198 -414 -351 -666 -475 -124 -62 -298 -133 -365 -151 -8 -2 -46 -13
-85 -24 -332 -97 -739 -121 -1095 -64 -188 30 -422 97 -599 173 -41 17 -75 30
-76 29 -11 -14 -86 -186 -88 -200 -3 -24 103 -71 298 -134 141 -45 183 -56
315 -84 25 -5 54 -11 65 -14 12 -2 48 -7 80 -11 33 -4 69 -9 80 -12 79 -16
406 -22 545 -10 359 30 671 114 1003 271 94 44 324 177 377 218 14 11 48 36
77 57 386 279 722 707 918 1171 62 146 140 404 160 525 l6 41 -78 13 c-43 7
-95 17 -115 21 -30 6 -38 5 -42 -9z"/>
<path d="M318 2896 c-59 -12 -109 -24 -113 -27 -3 -4 -1 -28 6 -55 6 -27 13
-60 15 -74 3 -14 8 -34 11 -45 4 -11 8 -25 9 -31 8 -46 64 -222 106 -334 165
-441 430 -852 768 -1190 117 -117 154 -149 326 -288 16 -13 99 -70 184 -127
243 -162 507 -292 780 -384 110 -37 336 -98 412 -111 29 -5 91 -15 138 -24 47
-8 112 -17 145 -20 33 -3 89 -8 125 -12 89 -9 364 -9 480 0 125 9 167 14 285
33 22 3 49 7 60 9 156 20 497 122 730 217 81 33 362 180 453 237 275 172 554
411 759 650 l64 74 -32 26 c-17 14 -58 46 -89 73 -32 26 -62 47 -66 47 -5 -1
-27 -24 -49 -51 -50 -63 -239 -256 -323 -329 -271 -236 -631 -447 -962 -566
-180 -65 -423 -129 -557 -148 -24 -3 -62 -9 -85 -12 -24 -3 -54 -7 -68 -10
-132 -23 -611 -22 -725 1 -11 3 -38 7 -60 10 -489 67 -964 257 -1376 552 -52
36 -96 69 -99 72 -3 3 -27 24 -55 46 -89 71 -118 98 -240 220 -402 403 -696
936 -816 1480 -12 55 -25 103 -28 106 -3 3 -54 -3 -113 -15z"/>
</g>
</svg>
