<svg xmlns="http://www.w3.org/2000/svg" width="49.55" height="19.56" viewBox="0 0 49.55 19.56"><defs><style>.cls-1{fill:#1e2626;}</style></defs><g id="Layer_2" data-name="Layer 2"><g id="home"><polygon class="cls-1" points="9.78 19.56 10.89 18.46 2.98 10.55 1.45 10.55 1.11 10.89 9.78 19.56"/><polygon class="cls-1" points="1.11 10.89 1.45 10.55 0.77 10.55 1.11 10.89"/><polygon class="cls-1" points="2.98 10.55 49.55 10.55 49.55 9.01 2.98 9.01 2.21 9.78 2.98 10.55"/><polygon class="cls-1" points="1.45 10.55 2.98 10.55 2.21 9.78 1.45 10.55"/><polygon class="cls-1" points="0.77 10.55 1.45 10.55 2.21 9.78 1.45 9.01 0.77 9.01 0 9.78 0.77 10.55"/><polygon class="cls-1" points="2.21 9.78 2.98 9.01 1.45 9.01 2.21 9.78"/><polygon class="cls-1" points="1.45 9.01 2.98 9.01 10.89 1.11 9.78 0 1.11 8.67 1.45 9.01"/><polygon class="cls-1" points="0.77 9.01 1.45 9.01 1.11 8.67 0.77 9.01"/></g></g></svg>