<svg xmlns="http://www.w3.org/2000/svg" width="255.4" height="21.27" viewBox="0 0 255.4 21.27"><g id="Layer_2" data-name="Layer 2"><g id="home"><path d="M255.4,19.51a1.91,1.91,0,0,1-1-.32,1.43,1.43,0,0,0-.7-.18l-3.13.09a1.45,1.45,0,0,1-.7-.2,1.8,1.8,0,0,0-1.05-.29c-.39,0-.79,0-1.17,0a1.74,1.74,0,0,1-1.06-.28,1.54,1.54,0,0,0-.69-.21l-2.35.07a1.47,1.47,0,0,1-.71-.18,1.78,1.78,0,0,0-1-.32c-.65.05-1.3,0-1.95.08a2.07,2.07,0,0,1-1.07-.25,2,2,0,0,0-1.07-.25c-.91.05-1.83.06-2.74.11a1.26,1.26,0,0,1-.72-.16,2.28,2.28,0,0,0-1.42-.34c-.65,0-1.3.06-1.95.07a1.44,1.44,0,0,1-.69-.22,1.92,1.92,0,0,0-1.06-.27c-1,.05-2.09.07-3.13.1a.84.84,0,0,1-.33-.13,2.73,2.73,0,0,0-1.42-.37c-1.17.07-2.34.09-3.52.13A1.14,1.14,0,0,1,220,16a2.1,2.1,0,0,0-1.43-.29c-.26,0-.53,0-.78,0a1.79,1.79,0,0,1-1.07-.25,2,2,0,0,0-1.07-.24c-1.18.06-2.35.07-3.52.13a1.92,1.92,0,0,1-1-.33,1.43,1.43,0,0,0-.71-.17l-2.74.1a2,2,0,0,1-1.08-.22,2,2,0,0,0-1.06-.27c-1,.06-2.09.08-3.13.12-.52,0-1,0-1.56,0a.73.73,0,0,1-.33-.14,2.56,2.56,0,0,0-1.42-.35c-.78.05-1.57,0-2.35.1a2.41,2.41,0,0,1-1.41-.35,1.16,1.16,0,0,0-.72-.14l-4.31.16a1.35,1.35,0,0,1-.73-.11,3,3,0,0,0-1.8-.37c-1,.07-2.08.07-3.13.12a1.33,1.33,0,0,1-.71-.17,2,2,0,0,0-1-.33c-.91.05-1.82.06-2.74.11a2.08,2.08,0,0,1-1.07-.23,1.87,1.87,0,0,0-1.07-.26l-3.12.12-1.57,0a.94.94,0,0,1-.33-.14,2.58,2.58,0,0,0-1.81-.32,2.85,2.85,0,0,1-1.48-.18c-.45-.25-.49-.24-.93,0a1.38,1.38,0,0,1-.68.26l-2.34.1a1.44,1.44,0,0,1-.71-.18,2,2,0,0,0-1-.32c-2,.09-3.91.14-5.87.23A2,2,0,0,1,157,12.1a2,2,0,0,0-1.07-.24l-5.87.22a1.91,1.91,0,0,1-1-.32,1.43,1.43,0,0,0-.71-.17l-5.86.22a2.18,2.18,0,0,1-1.09-.22,2,2,0,0,0-1.05-.27c-2.48.11-5,.18-7.43.29a1.67,1.67,0,0,1-1-.3.44.44,0,0,0-.65,0c-.41.32-.51.3-.92,0s-.57-.4-.88-.57c-.46-.25-.6.19-.92.27a.63.63,0,0,1-.3,0,2.42,2.42,0,0,0-1-.35,2.73,2.73,0,0,0-1.76.49.94.94,0,0,1-.33.14c-.65,0-1.31.06-2,.08a8,8,0,0,0-1-.43,3,3,0,0,0-.74,0,3.55,3.55,0,0,1-2.1.61,2.67,2.67,0,0,0-.4,0,1.83,1.83,0,0,1-1.07-.24,2,2,0,0,0-1.07-.24c-1,.05-2.09,0-3.12.13a2.31,2.31,0,0,1-1.7-.53c-.25-.18-.29-.32-.07-.43a1,1,0,0,1,.33-.13l10.17-.42a1.68,1.68,0,0,1,.39,0,.94.94,0,0,1,.32.15,2.54,2.54,0,0,0,1.42.34c2-.09,3.91-.16,5.87-.23a1.46,1.46,0,0,1,.69.21,1.9,1.9,0,0,0,1.44.27,1.5,1.5,0,0,0,.38,0c.56-.23,1-.66,1.69-.68.1,0,.2-.11.31-.17.58-.33.58-.33.93-.1a8.54,8.54,0,0,1,.86.57c.25.21.38.17.64,0a1.78,1.78,0,0,1,1.4-.4,4,4,0,0,1,2.17.39,1,1,0,0,0,1.05-.14,1,1,0,0,1,.61-.28c.11,0,.21.1.32.15a1.8,1.8,0,0,0,1.06.25c.26,0,.53,0,.79,0a2.14,2.14,0,0,1,1.43.3,1.12,1.12,0,0,0,.7.19l7.82-.29a1.3,1.3,0,0,1,.69.21,2,2,0,0,0,.32.17,1,1,0,0,0,1.25-.3c.05-.09,0-.19.06-.29s.25-.37.44-.33a.46.46,0,0,1,.37.46.46.46,0,0,0,.41.44,1.45,1.45,0,0,0,.75,0,4,4,0,0,1,2.12-.57c1.31,0,2.61-.1,3.91-.15.52,0,1.05,0,1.57,0a.66.66,0,0,1,.33.12,2.83,2.83,0,0,0,1.81.35c.12,0,.26,0,.39,0a2,2,0,0,1,1.41.33,1.17,1.17,0,0,0,.72.16l9-.35a2.21,2.21,0,0,1,1.08.24,2.07,2.07,0,0,0,1.07.25l6.65-.25a1.21,1.21,0,0,1,.38,0,1,1,0,0,1,.33.14,2.57,2.57,0,0,0,1.43.33c1.43-.07,2.86-.11,4.3-.15a1.43,1.43,0,0,1,.69.21,2,2,0,0,0,1.06.28c1.43-.07,2.86-.1,4.3-.16a1.45,1.45,0,0,1,.73.12,2.51,2.51,0,0,0,1.41.36c1.18-.06,2.35-.08,3.52-.12a1.45,1.45,0,0,1,.71.19,1.94,1.94,0,0,0,1,.3C210,12,211,12,212,12a.83.83,0,0,1,.34.1,3.07,3.07,0,0,0,1.8.37c1.3-.08,2.61-.09,3.91-.15a1.86,1.86,0,0,1,1,.33,1.34,1.34,0,0,0,.72.16c.65,0,1.3,0,1.95-.06a2,2,0,0,1,1.08.23,1.79,1.79,0,0,0,1.07.25c.25,0,.52,0,.78,0a2,2,0,0,1,1.44.29,1.32,1.32,0,0,0,.7.19c1.83-.06,3.65-.13,5.48-.18a1.48,1.48,0,0,1,.7.2,1.91,1.91,0,0,0,1.05.29c.64-.05,1.3,0,1.95-.07a1.82,1.82,0,0,1,1.06.27,2.07,2.07,0,0,0,1.09.21l1.17-.05a1.59,1.59,0,0,0,.37-.06c.34-.07,1.18-.86,1.18-1.11s0-.78,0-1.16a.72.72,0,0,1,.25-.53c.51-.54.49-.55.46-1.07a5.49,5.49,0,0,1,0-.58.92.92,0,0,0-.4-.77,1.16,1.16,0,0,1-.47-.76c-.49-.45-1-.89-.83-1.53,0-.08-.07-.18-.13-.25a1.88,1.88,0,0,0-.26-.22,3,3,0,0,0-.26.22c-.18.24,0,.59-.45.76a2.82,2.82,0,0,1-1.12.16l-6.26.25a2,2,0,0,1-1-.33,1.33,1.33,0,0,0-.71-.17c-.39,0-.79,0-1.17,0A2.08,2.08,0,0,1,227.39,7a1.82,1.82,0,0,0-1.06-.26c-.52,0-1,0-1.56,0-.78,0-1.57.06-2.35.07-.11,0-.22-.08-.33-.14a2.51,2.51,0,0,0-1.41-.35c-.91.07-1.83.08-2.74.12a1,1,0,0,0-.67.26c-.43.41-1.23.32-1.66.71-.22.21-.4.24-.62.09a1.93,1.93,0,0,0-1.43-.32,1.07,1.07,0,0,1-.72-.1c-.08,0-.21-.15-.19-.17a.6.6,0,0,1,.28-.2c.46-.17,1,0,1.47-.24a1.49,1.49,0,0,0,.29-.2,1.78,1.78,0,0,0-.3-.17,4.9,4.9,0,0,0-1.53,0c-.51,0-.51,0-1.39.44-.33.16-.37.13-.62-.43-.18-.38-.33-.46-.83-.45l-1.56.07a.65.65,0,0,0-.68.58c0,.2,0,.39,0,.58a1.51,1.51,0,0,0,.37-.07c.31-.13.49-.41.89-.44a2.57,2.57,0,0,1,.83.58c0,.06.1.17.07.22a.54.54,0,0,1-.3.18c-.38,0-.77.06-1.15.07a1.06,1.06,0,0,1-.35-.09.47.47,0,0,1-.35-.46l-.78,0a.9.9,0,0,1-.38,0c-.49-.29-1.11-.51-1.23-1a.63.63,0,0,0-.38-.47.6.6,0,0,0-.41.42c0,.09,0,.2-.06.29a1.12,1.12,0,0,1-1,.36,7.1,7.1,0,0,0-1-.43,6.1,6.1,0,0,0-1.54,0c-.39,0-.78,0-1.17,0a1.17,1.17,0,0,1-.69-.21l-.87-.57C198,5,198,5,197.41,5.35a1.4,1.4,0,0,1-.69.24L192,5.77a1.45,1.45,0,0,1-.7-.2,1.82,1.82,0,0,0-1-.3c-1,.06-2.08.08-3.12.1a.76.76,0,0,1-.34-.11,2.92,2.92,0,0,0-1.8-.37c-.9.05-1.81.05-2.71.06-.1,0-.28-.1-.29-.17s.15-.32.43-.34c1.17-.07,2.34-.1,3.51-.16.52,0,1,0,1.56-.09a.45.45,0,0,0,.28-.19c.09-.12,0-.25-.35-.34-1.3,0-2.61.07-3.91.14a1.85,1.85,0,0,1-1.05-.29A2.52,2.52,0,0,0,181,3.34c-.51,0-.63.12-.79.52-.22.56-.36.66-1,.68s-1.3,0-2,.08a1.25,1.25,0,0,1-.73-.13,2.4,2.4,0,0,0-1.41-.36c-1,.06-2.08.07-3.12.13a2.43,2.43,0,0,1-1.41-.35.42.42,0,0,0-.31,0c-.75.3-.76.32-1.25.07A1.17,1.17,0,0,0,168,4c-.22.1-.39.28-.62.37a1.11,1.11,0,0,1-1.06,0A2.08,2.08,0,0,0,164.91,4a1.74,1.74,0,0,1-1.08-.2,1.71,1.71,0,0,0-1.05-.29,11.33,11.33,0,0,1-1.17,0c-1.3.05-2.6.09-3.9.16a1.87,1.87,0,0,1-1.05-.28,1.56,1.56,0,0,0-.69-.22c-1.16,0-2.33,0-3.49.18-.1,0-.26.13-.27.2s.18.3.46.3c.91,0,1.82,0,2.73-.05a.53.53,0,0,1,.31.15.48.48,0,0,1,0,.76,1.05,1.05,0,0,1-1,.1l-.32-.16a1.22,1.22,0,0,0-1.38,0l-.3.19a2.57,2.57,0,0,1-1.83.17,1.15,1.15,0,0,1-.32-.14,2,2,0,0,0-1.06-.28c-1.17.06-2.34.08-3.51.14a1.35,1.35,0,0,1-.73-.13,2.52,2.52,0,0,0-1.4-.37c-1.95.09-3.91.15-5.86.23a1.44,1.44,0,0,1-.71-.18,2,2,0,0,0-1-.32c-1.17.07-2.35.08-3.52.14a1.66,1.66,0,0,1-1.06-.25c-.4-.27-.67-.07-.94.12a2.08,2.08,0,0,1-1.08.25A2,2,0,0,1,128.57,4a2,2,0,0,0-1-.28c-1.69.08-3.39.12-5.08.21a1.91,1.91,0,0,1-1-.29,2.76,2.76,0,0,0-1.84-.12.9.9,0,0,0-.31.18c-.29.18-.56.36-.94.1a1.78,1.78,0,0,0-1.07-.25l-9,.35a1.27,1.27,0,0,1-.72-.15,5.18,5.18,0,0,0-.63-.26,6.34,6.34,0,0,1-.62.37.49.49,0,0,1-.3,0,2.41,2.41,0,0,0-1-.34l-6.25.23a1.1,1.1,0,0,1-.36-.07A2,2,0,0,1,98,3.46c-.55-.25-.56-.23-1.83-.27-.29,0-.44-.2-.38-.32a.55.55,0,0,1,.28-.2,1.52,1.52,0,0,1,.38,0c2.21-.08,4.42-.16,6.63-.26a2.12,2.12,0,0,1,1.08.23,1.75,1.75,0,0,0,1.06.26,9.08,9.08,0,0,1,1.17-.05,1.16,1.16,0,0,0,.71-.2c.51-.32.52-.3,1.26-.05a.33.33,0,0,0,.46-.27c.09-.41-.3-.7-.91-.68l-2.73.09a1.7,1.7,0,0,1-.39,0,3.5,3.5,0,0,1-1-.41c-.49.1-.74.51-1.31.52-.91,0-1.82.06-2.73.11a2,2,0,0,1-1.07-.23,2,2,0,0,0-1.06-.27c-1,.06-2.08.08-3.12.12-.3-.11-.43-.24-.33-.36A.51.51,0,0,1,94.48,1c.39,0,.79,0,1.16-.08s.45-.22.41-.35a.41.41,0,0,0-.29-.17c-1.17,0-2.34,0-3.5.1a.79.79,0,0,0-.6.31,1.38,1.38,0,0,0-.08.29c.37,0,.74,0,1.11,0a.4.4,0,0,1,.26.18s0,.13-.07.18a.71.71,0,0,1-.65.18c-.37,0-.48-.14-.64-.54A.8.8,0,0,1,90.77.6c-.24-.55-.37-.62-1-.6L86.6.14c-.22.12-.42.26-.47.43a1.26,1.26,0,0,0,0,.58c.07.52-.31.74-.82.44a1.93,1.93,0,0,0-1.08-.23c-.85,0-.85,0-1.4-.34L82.24.64c-.52-.32-.57-.33-1.43-.29a3.69,3.69,0,0,0-2.12.57,3.06,3.06,0,0,0-1.36.51.4.4,0,0,1-.3.09,1,1,0,0,1-.32-.15c-.64-.3-.9-.32-1.38,0a4.43,4.43,0,0,1-.62.3c-.06,0-.21-.09-.31-.15l-.58-.38c-.61-.4-.61-.4-.91-.23s-.42.24-.62.37c-.91,0-1.83.1-2.74.11a1.81,1.81,0,0,1-.67-.24c-.43-.18-.44-.2-.92.12a1.05,1.05,0,0,1-.7.2c-.51,0-.61-.09-.75-.52a.7.7,0,0,0-.75-.52c-.88,0-1.84-.15-2.57.45-.18.16-.37.1-.62-.07A1.69,1.69,0,0,0,61.5.53c-.65,0-1.3.06-2,.08-.89,0-.84.25-.38.68.24.21.27.33-.1.43a1.55,1.55,0,0,1-.37,0c-.51,0-.63-.07-.79-.48S57.66.8,57.18.74a1,1,0,0,0-.71.18c-.57.37-.59.36-.91.14S55.18.8,55,.68c-.59-.38-.6-.38-.91-.2s-.42.24-.63.36L49.92,1a.79.79,0,0,1-.34-.1,3.15,3.15,0,0,0-1.8-.38c-4.43.2-8.86.37-13.29.54a2,2,0,0,0-1,.41,1.41,1.41,0,0,1-.7.22L23.4,2a1.12,1.12,0,0,1-.69-.22.71.71,0,0,0-.94.07,1.18,1.18,0,0,1-.68.25l-16,.64h-.4a1.61,1.61,0,0,1-.7-.2,1.93,1.93,0,0,0-1-.29c-.78.07-1.56.08-2.34.12L0,2.79c0,.48-.12,1,.41,1.34.29.21.32.5.46.76s.46.45.7.68c0,.53.51.85,1,1.16L4.35,7.86A1,1,0,0,0,5.07,8c.13,0,.27,0,.39,0a1,1,0,0,1,.72.13c.15.12.06.26-.12.46-.41.46-.4.68,0,1s.52.4.52.73c0,.87.09,1.74.11,2.61a1.06,1.06,0,0,0,.42.77,1.08,1.08,0,0,1,.43.76c0,.68,0,.67.53,1a2.07,2.07,0,0,0,1.73.45l12.51-.51a2.47,2.47,0,0,0,.39,0,1.37,1.37,0,0,0,.32-.16c.51-.29.51-.28,1.26,0a.47.47,0,0,0,.31,0,2.58,2.58,0,0,1,1.38-.46c2-.06,3.91-.16,5.87-.24a1.35,1.35,0,0,0,.67-.26,2,2,0,0,1,1.41-.4A3.85,3.85,0,0,0,36,13.26a1.53,1.53,0,0,1,.74-.07.63.63,0,0,1,.47.4c.31.59.4.64,1.05.62s1.57-.07,2.35-.12a.7.7,0,0,0,.3-.17c.08-.07.18-.16.19-.24.06-.62.58-.78,1.32-.78s.86.09,1.09.58.35.49.81.48l2.34-.09a.78.78,0,0,0,.62-.28s-.12-.16-.21-.23-.33-.33-.24-.45a.86.86,0,0,1,.69-.22c.79,0,1.57-.06,2.35-.07a.56.56,0,0,1,.32.13c.07,0,.15.14.13.17a.61.61,0,0,1-.29.2c-.47.14-1,0-1.47.24a1.29,1.29,0,0,0-.21.19,1.17,1.17,0,0,0,.31.17,1,1,0,0,0,.36.06c1.95-.07,3.91-.13,5.86-.23a2.67,2.67,0,0,1,1.41.37.44.44,0,0,0,.3,0,4.22,4.22,0,0,1,2.93-.44c.12,0,.22.09.33.14a2.05,2.05,0,0,0,1.45.28l.39,0,.39,0a1.46,1.46,0,0,0,1-.34c.54-.43.86.28,1.26.11a3.07,3.07,0,0,1,1.37-.48c.65,0,1.31,0,2-.07a1.21,1.21,0,0,1,.71.17,2.32,2.32,0,0,0,1.43.32A3.54,3.54,0,0,0,72,13a1.14,1.14,0,0,1,.73-.16c.39,0,.78,0,1.17,0a3.63,3.63,0,0,1,2.15.43,2.85,2.85,0,0,0,.74-.06,3.87,3.87,0,0,1,2.13-.57,6.77,6.77,0,0,1,.78,0,.82.82,0,0,1,.34.12,2.89,2.89,0,0,0,1.41.37c3.78-.16,7.56-.3,11.34-.44a1.15,1.15,0,0,1,.71.18c.58.39,1.46.32,2,.72a1.27,1.27,0,0,0,.74.1l16-.63a1.28,1.28,0,0,1,.73.15,5.19,5.19,0,0,0,.63.27c.21-.12.41-.25.63-.36a.72.72,0,0,1,.33-.13c.65,0,1.3-.07,2-.08a.73.73,0,0,1,.33.14,4.29,4.29,0,0,0,3,.21,1.34,1.34,0,0,0,.31-.17c.47-.27.48-.28.93-.05a1.46,1.46,0,0,0,.7.21l2.35-.07a1.43,1.43,0,0,1,.7.18,2,2,0,0,0,1,.31c3.78-.16,7.56-.29,11.34-.44a2,2,0,0,1,1.07.25,2.19,2.19,0,0,0,1.07.24c2.74-.12,5.48-.21,8.21-.32a2,2,0,0,1,1,.32,1.34,1.34,0,0,0,.71.18l4.7-.17a1.47,1.47,0,0,1,.69.22c.45.23.47.22.93-.07a1.24,1.24,0,0,1,1.38,0,2.12,2.12,0,0,0,1.06.3c1.43-.07,2.86-.1,4.3-.17a2,2,0,0,1,1,.28,1.5,1.5,0,0,0,.7.21l7.82-.28a1.34,1.34,0,0,1,.71.18,1.9,1.9,0,0,0,1.42.3,2.1,2.1,0,0,1,1.08.24,2.05,2.05,0,0,0,1.06.25l6.65-.25a2.54,2.54,0,0,1,.39,0,2,2,0,0,1,.33.15,2,2,0,0,0,1.42.33c.65,0,1.3-.05,2-.06a1.54,1.54,0,0,1,.69.21,1.91,1.91,0,0,0,1.06.28c1.43-.07,2.86-.1,4.3-.16a1.45,1.45,0,0,1,.73.12,2.56,2.56,0,0,0,1.41.37c1.69-.08,3.38-.13,5.08-.19a1.29,1.29,0,0,1,.7.19,1.88,1.88,0,0,0,1,.31c.91-.06,1.83-.05,2.74-.1a1.91,1.91,0,0,1,1.06.24,2,2,0,0,0,1.08.25c.91-.05,1.82-.06,2.73-.11a1.17,1.17,0,0,1,.72.16,2.28,2.28,0,0,0,1.42.34c.91-.06,1.82-.07,2.73-.1a1.2,1.2,0,0,1,.69.22,1.66,1.66,0,0,0,.33.15.91.91,0,0,0,1.23-.3c.08-.2.08-.39.26-.53a.38.38,0,0,1,.26-.08c.11,0,.27.12.27.19,0,.62.58.76,1.26.84a2.42,2.42,0,0,1,.65.31.94.94,0,0,0,1.24-.31c.07-.19,0-.43.24-.53.4-.21.63.12.94.21a2.33,2.33,0,0,0,.36.08l.78,0c.78,0,1.56,0,2.34-.09a1.67,1.67,0,0,1,1,.34c.42.26,1,.14,1.42.4s.6.3,1.43.26a1.18,1.18,0,0,1,.73.14,2.47,2.47,0,0,0,1.41.36c1.43-.07,2.86-.11,4.3-.16a1.15,1.15,0,0,1,.7.2c.29.19.57.38.87.56.5.3.5.29,1.44.26a1.16,1.16,0,0,0,.72-.19c.19-.13.4-.24.61-.36.21.1.44.2.64.32a1,1,0,0,0,.72.13,2.16,2.16,0,0,1,1.45.26,1.23,1.23,0,0,0,.69.22c1,0,2.08-.06,3.13-.1a1.33,1.33,0,0,1,.71.17,1.84,1.84,0,0,0,1.42.31,2.09,2.09,0,0,1,1.07.24,2,2,0,0,0,1.07.26c.65-.05,1.3,0,2-.08a1.69,1.69,0,0,1,1,.31,2.05,2.05,0,0,0,1.1.18M80.53,11.43a.42.42,0,0,1,.28.16c.07.11-.06.29-.34.35a8.32,8.32,0,0,1-1.12.06.72.72,0,0,1-.66-.55c-.64-.09-.92-.33-.79-.7a.4.4,0,0,1,.44-.28.42.42,0,0,1,.25.18.59.59,0,0,1,0,.27l0,.54C79.29,11.45,79.91,11.42,80.53,11.43ZM67.2,7.85a2,2,0,0,1-1.81-.75s0-.14.07-.19a.57.57,0,0,1,.3-.15,4.71,4.71,0,0,1,.75,0c.66,0,.95.15,1,.57,0,.18,0,.36,0,.55a10,10,0,0,1,1.1,0,.5.5,0,0,1,.43.36.42.42,0,0,1-.12.51.48.48,0,0,1-.58-.07,8.52,8.52,0,0,1-.74-.57c-.07-.06-.06-.17-.08-.26A2.3,2.3,0,0,0,67.2,7.85Zm25.37,3.6c-.28,0-.42-.18-.37-.31a.35.35,0,0,1,.25-.19c.36,0,.73-.06,1.1-.08a.82.82,0,0,1,.07-.28.71.71,0,0,1,.57-.32c1.67-.08,3.33-.13,5-.2.28.1.44.21.37.33a.48.48,0,0,1-.27.2l-5.75.26A.79.79,0,0,1,92.57,11.45Zm-7.31-9a1.78,1.78,0,0,1,1,.32A1.43,1.43,0,0,0,87,3l2.73-.1a2,2,0,0,0,1.07-.29c.44-.28.48-.29.92,0a3.43,3.43,0,0,0,1.07.26c.11,0,.28.12.27.18a.49.49,0,0,1-.48.33c-2.6.12-5.2.2-7.8.32a2,2,0,0,1-1-.31A1.38,1.38,0,0,0,83,3.16l-6.24.23a.88.88,0,0,1-.36-.06,1.78,1.78,0,0,1-.3-.17A1,1,0,0,1,76.36,3a.64.64,0,0,1,.32-.13l4.68-.19h0C82.66,2.6,84,2.56,85.26,2.49ZM47.18,6.91a1.24,1.24,0,0,1,.68.21,2.15,2.15,0,0,0,1.43.29,11.14,11.14,0,0,1,1.16,0,.9.9,0,0,1,.34.11c.2.1.16.25-.07.44-.57.5-.6.5-1.49.18a1.07,1.07,0,0,0-1,.11,1.89,1.89,0,0,1-.61.36,1.29,1.29,0,0,1-.73,0,3.79,3.79,0,0,0-2.14-.41c-1,.05-2.07.08-3.1.12-.26,0-.52,0-.77,0a1,1,0,0,1-.34-.1c-.24-.1-.21-.23,0-.43a2.22,2.22,0,0,1,1.62-.67c.77,0,1.55-.06,2.32-.09h0ZM69.69,2.54a.81.81,0,0,1,.35,0,.69.69,0,0,1,.3.18s-.11.13-.19.18a.83.83,0,0,1-.32.14l-14.35.57c-.29-.09-.46-.2-.41-.33a.43.43,0,0,1,.28-.19c2.58-.13,5.16-.24,7.74-.36v0Zm21.1,3.79a1.75,1.75,0,0,1,1,.27,2.58,2.58,0,0,0,1.46.22c.57,0,1,.35.82.73a.68.68,0,0,1-.2.22,1,1,0,0,1-.7.2,2.2,2.2,0,0,1-1.11-.11,1.78,1.78,0,0,0-.64-.3A4.43,4.43,0,0,1,89.76,7c-.08,0-.25,0-.38,0a1.37,1.37,0,0,0-.66.27,2.3,2.3,0,0,1-1,.36,2.15,2.15,0,0,1-1.93-.74s0-.15,0-.19a.56.56,0,0,1,.31-.17c.91,0,1.81-.08,2.72-.11C89.49,6.39,90.14,6.38,90.79,6.33Zm-9.41,1.5a1.15,1.15,0,0,1-.32-.15c-.54-.25-.55-.24-1.25.12a1.08,1.08,0,0,1-1,0A.51.51,0,0,1,78.7,7l.51-.45c.33-.27.4-.28.93,0a1.44,1.44,0,0,0,.7.19L84,6.62c.45,0,.69.15.73.5,0,.09.06.21,0,.28a.79.79,0,0,1-.6.33c-.39,0-.78,0-1.17,0v0ZM76.25,6.35a.56.56,0,0,1,.51.29.92.92,0,0,1-.64.27l-3.87.17a1.39,1.39,0,0,0-.68.24c-.5.29-.52.3-.91.08a3.06,3.06,0,0,0-1.06-.26c-.33-.06-.39-.24-.22-.37s.19-.16.29-.17c1.16-.06,2.32-.1,3.48-.14h0C74.18,6.42,75.21,6.36,76.25,6.35Zm10,5.34a.64.64,0,0,1-.47-.38c-.11-.21.19-.69.44-.7.76,0,1.53-.06,2.28-.12a2,2,0,0,1,1.59.6c.09.07.23.19.21.22a.89.89,0,0,1-.62.27c-.64,0-1.27.06-1.91.08v0C87.27,11.66,86.75,11.72,86.25,11.69ZM54.15,7.77a.66.66,0,0,1-.55-.28.92.92,0,0,1,.64-.28l1.56-.07,2-.07a5.1,5.1,0,0,0,1.52-.15c.35-.12.62-.36,1-.49A.82.82,0,0,1,61,6.5c.19.1.14.26-.09.45a2.78,2.78,0,0,1-.27.21,1.66,1.66,0,0,1-1,.41c-.91,0-1.82.07-2.73.1h0C56,7.71,55.05,7.76,54.15,7.77Zm109.39-2A2,2,0,0,1,161.69,5s0-.14.05-.19a.6.6,0,0,1,.3-.17c.88,0,1.77-.07,2.65-.08a.81.81,0,0,1,.61.27c.06.06,0,.18,0,.27,0,.32-.25.54-.64.56s-.51,0-.76,0v0C163.8,5.74,163.67,5.73,163.54,5.75Zm-55.95,5.37c-.11.26-.29.28-.55.15s-.41-.16-1.23.12a.53.53,0,0,1-.3,0l-.62-.29-.6.36a1.3,1.3,0,0,1-.32.14.94.94,0,0,1-.71-.09c-.17-.1-.12-.25.1-.44a2.23,2.23,0,0,1,1.6-.64c.63,0,1.27,0,1.91,0,.4,0,.68.17.71.42S107.63,11,107.59,11.12ZM87.21,4.75c.28,0,.44.19.4.31a.38.38,0,0,1-.27.18l-3.4.18a.93.93,0,0,1-.65-.22.62.62,0,0,1,.5-.31c.63-.06,1.26-.06,1.9-.09h0C86.19,4.78,86.7,4.73,87.21,4.75ZM62.69,8.58c-.46,0-.51-.28-.19-.56l.26-.2c.41-.32.45-.33.87-.12a3,3,0,0,0,1,.28c.46,0,.52.28.2.55s-.7.52-.84.48A3.12,3.12,0,0,0,62.69,8.58ZM171.42,6a.54.54,0,0,1-.29-.17c-.07-.1.07-.24.34-.37,1.14,0,2.28-.09,3.42-.12a.78.78,0,0,1,.57.27,1,1,0,0,1-.62.29l-.38,0L172.73,6C172.43,6,171.93,6,171.42,6Zm51.29,2a.91.91,0,0,1-.64-.22.6.6,0,0,1,.5-.32c.88-.06,1.76-.1,2.64-.1.28,0,.44.19.39.31a.42.42,0,0,1-.27.19c-.37.05-.74.07-.76.07ZM74.28,10.55a.49.49,0,0,1,.4.4.41.41,0,0,1-.19.5,1.09,1.09,0,0,1-1,.08c-.28-.17-.55-.36-.81-.55-.07-.05-.17-.18-.14-.21a.93.93,0,0,1,.63-.24l.41,0A4.23,4.23,0,0,1,74.28,10.55Zm14.23-9.1a.59.59,0,0,1-.87,0,1.39,1.39,0,0,1-.6-.6A2.35,2.35,0,0,1,88.41.62a1,1,0,0,1,.65.19C89,1.08,88.75,1.26,88.51,1.45ZM61.65,11.57c.29,0,.43.21.37.32a.41.41,0,0,1-.27.19,7.73,7.73,0,0,1-2.2,0,.83.83,0,0,1-.29-.16.77.77,0,0,1,.21-.19.72.72,0,0,1,.3-.13c.38,0,.76,0,1.13-.05h0A3.8,3.8,0,0,1,61.65,11.57Zm3.74,1a1,1,0,0,1-.64-.23.73.73,0,0,1,.52-.32,17,17,0,0,1,1.88-.07c.28,0,.43.2.37.32a.43.43,0,0,1-.28.18,5.66,5.66,0,0,1-.72.08C66.14,12.52,65.76,12.55,65.39,12.55ZM42.53,3.85a.75.75,0,0,1,.6-.26,3.55,3.55,0,0,1,1.08,0,.48.48,0,0,1,.28.17s-.06.12-.12.17a.67.67,0,0,1-.29.15c-.24,0-.49,0-1.06.05C42.92,4.15,42.44,4,42.53,3.85ZM159.79,5a1.24,1.24,0,0,1-1,.33c-.12,0-.25,0-.37,0a1.42,1.42,0,0,1-.36,0,.7.7,0,0,1-.29-.17c-.1-.1,0-.27.28-.36s.49,0-.07,0C159.25,4.76,159.88,5,159.79,5Zm-50.23,5.71c-.79.1-.88.1-1.1-.37a.37.37,0,0,1,.15-.5.49.49,0,0,1,.57.09c.25.19.46.39.69.58C109.75,10.62,109.67,10.72,109.56,10.74Zm-54.88,1.9a.64.64,0,0,1,.61-.25,3.19,3.19,0,0,1,1.07,0,1.69,1.69,0,0,1,.29.17,1.32,1.32,0,0,1-.22.18.67.67,0,0,1-.3.13c-.24,0-.49,0-.32,0C55,13,54.57,12.81,54.68,12.64Zm16.73-.55a.69.69,0,0,1-.62.25,3.41,3.41,0,0,1-1.06-.05,2,2,0,0,1-.29-.16,1,1,0,0,1,.22-.19.81.81,0,0,1,.3-.13l.4,0C71.15,11.74,71.52,11.92,71.41,12.09ZM143.69,8a1.32,1.32,0,0,1,1-.32H145a1.43,1.43,0,0,1,.36,0,.7.7,0,0,1,.29.17c.1.1,0,.26-.29.35a2.88,2.88,0,0,1-.73,0C144.23,8.27,143.6,8.08,143.69,8ZM53.39,3.73a.61.61,0,0,1-.63-.15.15.15,0,0,1,0-.18.6.6,0,0,1,.62-.21,1,1,0,0,1,.57.27A1,1,0,0,1,53.39,3.73ZM32.53,7.1a.69.69,0,0,1,.27-.17c.34-.08,1,.08.93.22s-.16.14-.25.19a1.16,1.16,0,0,1-.68.1C32.52,7.35,32.42,7.23,32.53,7.1Zm73.21-2.5a.61.61,0,0,1,.63.15.17.17,0,0,1,0,.18.58.58,0,0,1-.62.2.89.89,0,0,1-.57-.26A.85.85,0,0,1,105.74,4.6ZM39.24,8.09c-.09.18-.33.25-.55.3a.54.54,0,0,1-.62-.17c-.11-.13,0-.25.25-.35S39.31,8,39.24,8.09ZM179.8,6.24a1,1,0,0,1-.67-.06c-.11,0-.25-.11-.26-.18s.59-.34.93-.28c.1,0,.18.11.27.16S180.08,6.15,179.8,6.24ZM66.4,11.33a1,1,0,0,1-.68-.05c-.1,0-.24-.11-.25-.18s.59-.34.93-.28c.11,0,.19.1.28.16S66.68,11.25,66.4,11.33Zm1.54-.41a.52.52,0,0,1,.26-.17c.35-.08,1,.08.94.22s-.16.14-.26.19a1.12,1.12,0,0,1-.67.1C67.93,11.16,67.83,11,67.94,10.92Zm-4.52,1.63a.62.62,0,0,1-.36-.41.36.36,0,0,1,.23-.48.49.49,0,0,1,.24,0c.26.09.34.25.26.46A.61.61,0,0,1,63.42,12.55Zm20.21-1.32a1,1,0,0,1-.68-.06c-.1,0-.24-.11-.25-.18s.59-.34.93-.28a.78.78,0,0,1,.28.16C84,11,83.91,11.14,83.63,11.23ZM210.1,8.57a.63.63,0,0,1,.64.15.17.17,0,0,1,0,.18.6.6,0,0,1-.62.21.9.9,0,0,1-.57-.27A.85.85,0,0,1,210.1,8.57Z"/></g></g></svg>