<svg xmlns="http://www.w3.org/2000/svg" width="173.97" height="10.05" viewBox="0 0 173.97 10.05"><defs><style>.underline2{fill:#f5c614;}</style></defs><g id="Layer_2" data-name="Layer 2"><g id="home"><line class="underline2" y1="5.03" x2="173.97" y2="5.03"/><path class="underline2" d="M44.74,3.35h3.78a.59.59,0,0,0,.5-.29c.2-.3.32,0,.46.09s.1.14.15.15a1.23,1.23,0,0,0,.38,0c1.19,0,2.39,0,3.58,0a1,1,0,0,0,.86-.43c0-.06.11-.12.17-.12h2.83l.46.46.47-.46c.38,0,.75,0,1.13,0,.22,0,.35.16.5.32a.65.65,0,0,0,.34.22A.84.84,0,0,0,61.22,3a.53.53,0,0,1,.15-.15.41.41,0,0,1,.19,0l3.21,0a.65.65,0,0,0,.51-.29.64.64,0,0,1,.51-.26c1.26,0,2.52,0,3.77-.06,0,0,.11-.1.14-.18a.32.32,0,0,0-.06-.17c0-.06-.1-.14-.15-.14l-4.34,0c-.05,0-.11-.1-.14-.18s0-.24.15-.34c1,0,2,0,3,0,.21,0,.35-.15.5-.32S68.9.58,69,.58l3.21,0h3.21c.21,0,.34-.2.48-.37a.34.34,0,0,1,.52-.07c.11.08.2.24.31.33a.32.32,0,0,0,.51-.06A.73.73,0,0,1,77.93,0c.19,0,.38,0,.57,0s.33.22.34.53A.57.57,0,0,1,78.7,1S78.59,1,78.54.89s-.29-.3-.45,0a.46.46,0,0,1-.33.25H74.18L71,1.14c-.27,0-.45.31-.4.73,0,.25.14.29.26.18.43-.37.43-.37.68-.37h7.55l4.72,0c.13,0,.23-.1.33-.22s.29-.32.5-.32c2.08,0,4.16,0,6.24,0A.4.4,0,0,0,91.2,1c.1-.12.2-.22.3-.33l.3.3c.06.05.11.15.16.15.63,0,1.26,0,1.89,0a.67.67,0,0,0,.51-.29.67.67,0,0,1,.51-.27c.82,0,1.64,0,2.46,0,.21,0,.34-.19.49-.35s.2-.12.31.08a.75.75,0,0,0,.15.16c.17.16.36.09.54.11a.33.33,0,0,0,.35-.17c0-.06.11-.1.15-.16A.42.42,0,0,1,99.66,0h3.77c.13,0,.23.11.34.22s.22.24.44,0a.55.55,0,0,1,.34-.22c.57,0,1.13,0,1.7,0a.84.84,0,0,1,.67.4.38.38,0,0,0,.35.16,7.37,7.37,0,0,1,.94,0c.21,0,.36-.14.51-.29.34-.34.43-.35.82.1a.5.5,0,0,0,.34.19.76.76,0,0,0,.71-.26.62.62,0,0,1,.5-.3,11.63,11.63,0,0,0,1.32,0c.22,0,.35.18.5.34a.49.49,0,0,0,.34.21h17.94a.91.91,0,0,1,.67.4c0,.05.11.14.16.14.5,0,1,0,1.51,0a.72.72,0,0,1,.51.3.66.66,0,0,0,.51.25c.33,0,.33,0,.69-.36a.78.78,0,0,1,.15-.16.41.41,0,0,1,.19,0h5.1a.68.68,0,0,1,.51.28.67.67,0,0,0,.51.27h6.23c.22,0,.35.19.5.34a.48.48,0,0,0,.34.2h3a.45.45,0,0,0,.33-.23c.16-.25.31-.18.45,0a.46.46,0,0,0,.34.22l1.88,0c.13,0,.23.1.34.22s.23.25.45,0a.64.64,0,0,1,.52-.23.65.65,0,0,1,.53.22c.14.16.27.36.49.34s.63,0,.95,0a.65.65,0,0,1,.51.28.67.67,0,0,0,.51.27c.76,0,1.51,0,2.27,0,.56,0,1.13,0,1.7,0,.21,0,.34.2.49.36a.5.5,0,0,0,.34.19c.56,0,1.13,0,1.7,0,.28,0,.46.21.67.41.05,0,.11.12.16.12.51,0,1,0,1.51,0,.22,0,.35.18.5.34s.21.21.34.21a7.37,7.37,0,0,0,.94,0,.86.86,0,0,1,.68.39c.05.06.1.14.15.15.51,0,1,0,1.51,0a.66.66,0,0,1,.51.3.6.6,0,0,0,.51.26c.19,0,.38,0,.57,0a.32.32,0,0,1,.33.21s0,.15-.05.21-.26.41-.38.63-.15.29-.22.44c0,.51-.34.77-.38,1.22a2,2,0,0,1-.55,1.08A.32.32,0,0,1,172,10a.36.36,0,0,1-.15-.15.82.82,0,0,0-.68-.38c-.69,0-1.39,0-2.08,0-.12,0-.22-.12-.33-.24a.72.72,0,0,0-.5-.3c-.51,0-1,0-1.52,0-.31,0-.63,0-.94,0s-.35-.16-.5-.32-.21-.22-.33-.22l-4.16,0a.47.47,0,0,1-.33-.21c-.15-.16-.29-.33-.5-.33-1.2,0-2.4,0-3.59,0a.65.65,0,0,1-.51-.29.68.68,0,0,0-.52-.26h-6.23a.39.39,0,0,1-.34-.19.74.74,0,0,0-.68-.36.59.59,0,0,0-.51.27c-.18.27-.32.1-.46-.06s-.1-.14-.16-.15c-.31,0-.62,0-.94,0H135.12c-1.2,0-2.39,0-3.59,0a1,1,0,0,1-.67-.41c-.05,0-.11-.12-.16-.12a5.43,5.43,0,0,0-.57,0l-18.51,0h-1.51S110,6,110,6c-.26-.26-.26-.25-.61,0-.26,0-.38-.39-.64-.39h-5.86a.93.93,0,0,0-.67.39c-.09.09-.21,0-.3-.16s-.19-.18-.32,0-.29.34-.5.31-.5,0-.75,0l-7,0c-.21,0-.35.15-.5.31s-.21.22-.34.22H90.21a.43.43,0,0,1-.34-.2c-.14-.2-.29-.3-.45,0a.43.43,0,0,1-.33.23l-4.16,0c-.2,0-.34.19-.49.36a.41.41,0,0,1-.34.17,3.62,3.62,0,0,0-.57,0A.61.61,0,0,1,83,7a.67.67,0,0,0-.51-.27c-.57,0-1.14,0-1.7,0-.22,0-.35.19-.5.34a.48.48,0,0,1-.34.2H70.72c-1.39,0-2.77,0-4.16,0a1,1,0,0,0-.67.4c0,.05-.11.12-.16.12a5.43,5.43,0,0,1-.57,0l-8.5,0c-.21,0-.35.15-.5.31s-.21.22-.34.22h-33c-1,0-2,0-3,0A.84.84,0,0,1,19.08,8a.36.36,0,0,0-.35-.16c-.18,0-.37,0-.54.12l-.31.33a4,4,0,0,1-.3-.28A.34.34,0,0,0,17.06,8c-.11.08-.2.25-.31.31a.66.66,0,0,1-.89-.07L15.71,8c-.24-.25-.39-.26-.67.06s-.55.33-.82,0a.81.81,0,0,0-.16-.16.55.55,0,0,0-.18-.06c-.56,0-1.13,0-1.7,0a.93.93,0,0,1-.67-.39c0-.06-.11-.13-.16-.14a2.42,2.42,0,0,0-.38,0H5.3A.69.69,0,0,1,4.8,7a.64.64,0,0,0-.52-.25H1.07c-.21,0-.33-.2-.47-.39a1.35,1.35,0,0,1-.32-1c0-.1,0-.19,0-.28a.88.88,0,0,0-.13-.51C0,4.38-.1,4.16.1,3.91S.24,3.2.43,3s.36-.12.51-.31.2-.22.3-.33l.3.34a.31.31,0,0,0,.51,0c.11-.11.2-.23.31-.34.09.11.19.21.28.33s.18.27.28.39a.63.63,0,0,0,.5.32c.37,0,.75,0,1.13,0,.57,0,1.13,0,1.7,0,.21,0,.35.16.5.32a.55.55,0,0,0,.33.22h1.7q9.45,0,18.89,0a.9.9,0,0,0,.68-.38c0-.06.1-.14.15-.15a2.48,2.48,0,0,1,.38,0l8.88,0c.05,0,.11-.08.15-.14A.32.32,0,0,0,38,3c0-.08-.09-.17-.14-.18a13,13,0,0,0-2.07,0,1,1,0,0,1-.86-.43.25.25,0,0,0-.16-.12c-.38,0-.76,0-1.13,0s-.35.18-.5.33-.21.22-.33.22H25.6c-.12,0-.23-.1-.31-.25s.15-.28.27-.29.51,0,.76,0h1.13A.37.37,0,0,0,27.79,2a.76.76,0,0,1,.87-.34c.19,0,.32.27.48.42a.32.32,0,0,0,.51-.05l.15-.16c.25-.27.42-.26.67,0s.25.27.45,0,.18-.19.31,0,.28.35.49.34c.39,0,.39,0,.7-.31a.69.69,0,0,1,.51-.26c.88,0,1.76,0,2.64,0h1.7a.42.42,0,0,1,.34.19c.2.22.2.2.61-.08.05,0,.11-.1.17-.1l2.07,0c.18,0,.39-.06.52.21,0,.33-.2.34-.37.39a.45.45,0,0,0-.15.13.7.7,0,0,0-.09.51.57.57,0,0,0,.22.4l4.15.05Z"/></g></g></svg>