<svg xmlns="http://www.w3.org/2000/svg" width="191.48" height="17.97" viewBox="0 0 191.48 17.97"><defs><style>.cls-1{fill:#f5c614;}</style></defs><g id="Layer_2" data-name="Layer 2"><g id="home"><path class="cls-1" d="M191.48,16.22a1.12,1.12,0,0,1-.78-.29.84.84,0,0,0-.53-.17l-2.34.15a.85.85,0,0,1-.52-.19,1.1,1.1,0,0,0-.79-.26c-.29,0-.59,0-.88.06a1,1,0,0,1-.79-.26,1,1,0,0,0-.52-.19l-1.76.11A.86.86,0,0,1,182,15a1.11,1.11,0,0,0-.78-.29c-.48.06-1,.06-1.46.11a1.15,1.15,0,0,1-.8-.23,1.23,1.23,0,0,0-.8-.22c-.69.07-1.37.09-2.06.15a.7.7,0,0,1-.54-.14,1.36,1.36,0,0,0-1.06-.31,14.52,14.52,0,0,1-1.47.1.92.92,0,0,1-.51-.19,1.16,1.16,0,0,0-.79-.26c-.79.08-1.57.12-2.35.16a.53.53,0,0,1-.25-.12,1.62,1.62,0,0,0-1.06-.34c-.88.09-1.76.13-2.64.19a.66.66,0,0,1-.52-.17,1.26,1.26,0,0,0-1.08-.26c-.19,0-.39,0-.59,0a1,1,0,0,1-.79-.23,1.27,1.27,0,0,0-.81-.21c-.88.07-1.76.11-2.64.19a1.2,1.2,0,0,1-.77-.3.8.8,0,0,0-.54-.16c-.68.06-1.37.09-2,.15a1.25,1.25,0,0,1-.81-.2,1.19,1.19,0,0,0-.79-.25c-.78.08-1.57.12-2.35.17-.39,0-.78.07-1.17.08-.09,0-.17-.08-.25-.13a1.53,1.53,0,0,0-1.06-.33c-.59.07-1.18.07-1.76.14a1.39,1.39,0,0,1-1.06-.32.72.72,0,0,0-.54-.12c-1.08.09-2.16.15-3.23.23a.77.77,0,0,1-.55-.09,1.81,1.81,0,0,0-1.35-.34c-.78.09-1.56.12-2.34.18a.8.8,0,0,1-.54-.15,1.16,1.16,0,0,0-.77-.31c-.68.07-1.37.09-2.05.16a1.25,1.25,0,0,1-.81-.21,1.2,1.2,0,0,0-.79-.24c-.79.08-1.57.12-2.35.18l-1.18.06c-.08,0-.16-.08-.24-.13-.56-.35-.56-.34-1.36-.29a1.59,1.59,0,0,1-1.11-.15c-.33-.24-.36-.22-.69,0a.94.94,0,0,1-.52.27l-1.76.14a1,1,0,0,1-.53-.17,1.18,1.18,0,0,0-.77-.29c-1.47.13-2.94.21-4.41.33a1.24,1.24,0,0,1-.8-.23,1.23,1.23,0,0,0-.8-.22c-1.46.12-2.93.21-4.4.33a1.15,1.15,0,0,1-.77-.3.86.86,0,0,0-.54-.16l-4.4.33a1.32,1.32,0,0,1-.81-.19,1.14,1.14,0,0,0-.79-.25c-1.86.15-3.72.26-5.58.42a1,1,0,0,1-.77-.28c-.2-.17-.29-.16-.49,0s-.39.3-.69.05-.42-.37-.65-.54-.46.2-.7.28a.32.32,0,0,1-.23,0c-.24-.13-.44-.34-.76-.33a1.78,1.78,0,0,0-1.33.52c-.08.05-.17.14-.25.15l-1.47.11a4.83,4.83,0,0,0-.74-.41,1.52,1.52,0,0,0-.56,0c-.91.59-.91.59-1.58.63a1.37,1.37,0,0,0-.29,0,1.06,1.06,0,0,1-.8-.22,1.17,1.17,0,0,0-.8-.22c-.79.07-1.57.08-2.35.19a1.46,1.46,0,0,1-1.27-.49c-.18-.18-.21-.31,0-.43a.75.75,0,0,1,.25-.13L91.76,9A.66.66,0,0,1,92,9a.69.69,0,0,1,.25.14,1.5,1.5,0,0,0,1.06.31c1.47-.13,2.94-.23,4.4-.34a1,1,0,0,1,.52.2,1.15,1.15,0,0,0,1.08.24.7.7,0,0,0,.29,0c.42-.23.73-.66,1.27-.69.08,0,.15-.12.23-.18.44-.33.44-.33.7-.12a6.84,6.84,0,0,1,.64.55c.19.2.28.16.48,0,.44-.41.46-.38,1.06-.42a2.24,2.24,0,0,1,1.62.35.64.64,0,0,0,.79-.16.72.72,0,0,1,.46-.29c.08,0,.16.09.24.15a1.07,1.07,0,0,0,.8.22c.19,0,.39,0,.58-.05a1.26,1.26,0,0,1,1.07.27.75.75,0,0,0,.53.18L116,8.86a.72.72,0,0,1,.51.2l.24.15a.66.66,0,0,0,1-.31c0-.09,0-.2,0-.29s.19-.38.33-.34a.43.43,0,0,1,.28.45.42.42,0,0,0,.31.43.9.9,0,0,0,.56-.06c.92-.55.92-.56,1.59-.6l2.94-.22,1.17-.08a.48.48,0,0,1,.26.12,1.59,1.59,0,0,0,1.34.31l.3,0a1.26,1.26,0,0,1,1.06.31.7.7,0,0,0,.53.14l6.75-.5a1.24,1.24,0,0,1,.81.21,1.22,1.22,0,0,0,.8.23l5-.37a.94.94,0,0,1,.29,0,.69.69,0,0,1,.25.14,1.55,1.55,0,0,0,1.06.3c1.08-.1,2.15-.16,3.23-.23a.89.89,0,0,1,.52.2,1.22,1.22,0,0,0,.79.25C149,9.18,150,9.12,151.11,9a.76.76,0,0,1,.54.1,1.56,1.56,0,0,0,1.06.33c.88-.08,1.76-.12,2.64-.18a.93.93,0,0,1,.53.17,1.18,1.18,0,0,0,.78.28c.79-.07,1.57-.11,2.35-.15a.49.49,0,0,1,.26.1,1.86,1.86,0,0,0,1.35.33c1-.1,1.95-.14,2.93-.22a1.23,1.23,0,0,1,.78.3.77.77,0,0,0,.53.15l1.47-.09a1.2,1.2,0,0,1,.81.2,1,1,0,0,0,.79.23c.19,0,.39,0,.59,0a1.17,1.17,0,0,1,1.07.27.86.86,0,0,0,.53.17l4.11-.28a.93.93,0,0,1,.52.18,1.16,1.16,0,0,0,.79.28c.49-.07,1-.05,1.47-.11a1.09,1.09,0,0,1,.79.25,1.21,1.21,0,0,0,.81.19l.88-.07a1.28,1.28,0,0,0,.28-.07,2.28,2.28,0,0,0,.9-1.12c0-.38,0-.76,0-1.14a.93.93,0,0,1,.19-.53c.39-.53.38-.54.36-1.05a5.43,5.43,0,0,1,0-.57,1,1,0,0,0-.29-.75,1.22,1.22,0,0,1-.35-.75A1.82,1.82,0,0,1,179.94,4a.33.33,0,0,0-.09-.24,1.9,1.9,0,0,0-.19-.21,1.37,1.37,0,0,0-.2.22c-.14.24,0,.58-.34.76a2.09,2.09,0,0,1-.85.18c-1.56.12-3.13.23-4.69.36a1.25,1.25,0,0,1-.77-.31.8.8,0,0,0-.54-.16c-.29,0-.59,0-.88.06a1.16,1.16,0,0,1-.81-.2,1.13,1.13,0,0,0-.79-.24c-.39.06-.78.06-1.17.09l-1.77.11c-.08,0-.16-.08-.24-.13a1.46,1.46,0,0,0-1.06-.32c-.68.08-1.37.11-2.05.17a.69.69,0,0,0-.51.26c-.33.41-.93.34-1.25.73-.17.21-.31.24-.47.09a1.19,1.19,0,0,0-1.06-.28.64.64,0,0,1-.55-.08c-.06-.05-.16-.14-.14-.17a.45.45,0,0,1,.21-.2c.35-.18.77,0,1.11-.26.08-.06.15-.14.22-.2a1.24,1.24,0,0,0-.23-.17,2.74,2.74,0,0,0-1.14,0c-.39,0-.39,0-1.05.46-.25.16-.28.14-.47-.41-.12-.37-.23-.45-.61-.43l-1.18.09a.58.58,0,0,0-.5.59,5.43,5.43,0,0,0,0,.57,1.28,1.28,0,0,0,.28-.07c.23-.14.37-.41.67-.45a2,2,0,0,1,.62.56.26.26,0,0,1,0,.2.47.47,0,0,1-.23.19c-.28,0-.57.07-.86.09a.92.92,0,0,1-.27-.08.45.45,0,0,1-.25-.45l-.59,0c-.1,0-.22,0-.28,0-.37-.27-.83-.48-.92-1a.55.55,0,0,0-.28-.46.57.57,0,0,0-.31.42,2.54,2.54,0,0,1,0,.29c-.07.21-.56.46-.73.37a4.76,4.76,0,0,0-.73-.4,3.23,3.23,0,0,0-1.16,0L150,4a.75.75,0,0,1-.52-.18l-.65-.55c-.27-.22-.27-.23-.69.1a1,1,0,0,1-.52.25l-3.51.26a.8.8,0,0,1-.52-.19,1.16,1.16,0,0,0-.78-.27c-.78.07-1.57.11-2.35.16a.51.51,0,0,1-.25-.11,1.75,1.75,0,0,0-1.34-.33c-.68.07-1.36.08-2,.1a.25.25,0,0,1-.22-.16.34.34,0,0,1,.33-.33c.88-.1,1.76-.15,2.64-.22.39,0,.78-.06,1.16-.12.08,0,.17-.11.22-.2s0-.24-.26-.33c-1,.07-2,.12-2.93.21a1.13,1.13,0,0,1-.79-.26,1.46,1.46,0,0,0-1.1-.14c-.38.05-.48.13-.6.52-.17.56-.28.66-.76.69s-1,.06-1.47.12a.72.72,0,0,1-.54-.12,1.45,1.45,0,0,0-1.06-.33c-.78.08-1.56.1-2.34.19A1.51,1.51,0,0,1,128,2.4a.23.23,0,0,0-.23,0c-.56.31-.57.33-.93.09a.71.71,0,0,0-.8,0c-.17.1-.3.27-.47.37a.68.68,0,0,1-.8,0,1.26,1.26,0,0,0-1-.31,1.06,1.06,0,0,1-.81-.18,1,1,0,0,0-.78-.26c-.29,0-.59,0-.88.07-1,.07-2,.13-2.93.22a1.12,1.12,0,0,1-.79-.25.85.85,0,0,0-.51-.21,23.19,23.19,0,0,0-2.62.24.35.35,0,0,0-.21.2.32.32,0,0,0,.34.29c.69,0,1.37-.08,2.06-.1.07,0,.16.08.22.14a.56.56,0,0,1,0,.75.64.64,0,0,1-.78.12c-.08,0-.16-.11-.24-.15-.47-.28-.68-.28-1,0l-.23.19a1.5,1.5,0,0,1-1.37.21.89.89,0,0,1-.25-.14,1.25,1.25,0,0,0-.79-.26c-.87.09-1.75.13-2.63.21a.8.8,0,0,1-.55-.11,1.54,1.54,0,0,0-1-.35c-1.46.13-2.93.22-4.39.33a.79.79,0,0,1-.53-.16,1.17,1.17,0,0,0-.78-.29c-.88.08-1.76.12-2.64.19A1,1,0,0,1,98.79,3c-.3-.26-.5-.06-.7.13a1.32,1.32,0,0,1-.82.27,1.15,1.15,0,0,1-.81-.2A1.16,1.16,0,0,0,95.68,3c-1.27.11-2.55.18-3.82.29A1.15,1.15,0,0,1,91.08,3a1.56,1.56,0,0,0-1.38-.08c-.09,0-.16.11-.24.17s-.42.37-.7.12A1,1,0,0,0,88,3l-6.74.5a.7.7,0,0,1-.54-.14,3.45,3.45,0,0,0-.47-.24,4,4,0,0,1-.47.37.29.29,0,0,1-.23,0c-.24-.12-.44-.33-.77-.31-1.56.11-3.12.23-4.69.33a.65.65,0,0,1-.27,0c-.08,0-.16-.1-.24-.15-.42-.23-.42-.21-1.37-.23-.22,0-.34-.19-.29-.31a.48.48,0,0,1,.22-.2.64.64,0,0,1,.28,0c1.66-.13,3.32-.25,5-.39a1.23,1.23,0,0,1,.8.22,1.12,1.12,0,0,0,.8.23,5.14,5.14,0,0,1,.88-.07.76.76,0,0,0,.53-.21c.39-.32.4-.31.95-.07.16.07.3,0,.35-.27.07-.41-.22-.69-.68-.66l-2,.14a1.43,1.43,0,0,1-.29,0A2.19,2.19,0,0,1,77.91,1c-.37.11-.56.51-1,.53-.68,0-1.37.1-2,.16a1.16,1.16,0,0,1-.8-.2,1.14,1.14,0,0,0-.79-.25c-.78.08-1.57.12-2.35.17-.22-.1-.31-.22-.23-.34s.13-.19.21-.2c.29-.05.59,0,.88-.1s.34-.22.3-.35a.29.29,0,0,0-.21-.16c-.88,0-1.76.09-2.63.16a.56.56,0,0,0-.45.32,1.27,1.27,0,0,0-.06.28c.27,0,.55,0,.83,0,.07,0,.15.09.19.16a.24.24,0,0,1-.05.19.5.5,0,0,1-.49.19c-.28,0-.36-.13-.48-.53a.58.58,0,0,1-.61-.45C68,0,67.86,0,67.35,0L65,.2a.84.84,0,0,0-.35.43,1.57,1.57,0,0,0,0,.57c.05.52-.24.74-.62.45a1.18,1.18,0,0,0-.81-.21c-.63,0-.63,0-1-.31L61.73.77c-.39-.31-.42-.31-1.07-.26a2.29,2.29,0,0,0-1.59.6,2,2,0,0,0-1,.53.33.33,0,0,1-.23.09c-.08,0-.16-.09-.24-.14-.48-.29-.66-.3-1,0a2.94,2.94,0,0,1-.47.31s-.16-.09-.23-.15-.29-.24-.43-.36C55,1,55,1,54.73,1.17s-.32.24-.47.37c-.69.05-1.37.13-2,.16a1.34,1.34,0,0,1-.51-.22c-.32-.18-.33-.2-.69.12a.65.65,0,0,1-.53.21c-.38,0-.45-.07-.55-.49s-.29-.53-.56-.5c-.66.07-1.38-.12-1.93.49-.14.16-.29.1-.47-.05a1,1,0,0,0-.8-.22c-.49.05-1,.07-1.46.11-.67.05-.64.26-.29.67.17.21.2.32-.09.43a.82.82,0,0,1-.28,0c-.37,0-.46,0-.58-.45s-.18-.47-.54-.52a.62.62,0,0,0-.53.19c-.44.37-.45.36-.69.15l-.43-.36c-.45-.37-.45-.37-.69-.19l-.47.37-2.64.2a.49.49,0,0,1-.26-.1,1.82,1.82,0,0,0-1.34-.33c-3.33.27-6.65.52-10,.77a1.36,1.36,0,0,0-.76.41,1,1,0,0,1-.53.24l-7,.53A.67.67,0,0,1,17.06,3c-.27-.25-.49-.12-.71.09a.78.78,0,0,1-.52.25l-12,.92-.3,0A1,1,0,0,1,3,4.08a1.07,1.07,0,0,0-.79-.26C1.61,3.89,1,3.92.43,4L0,4.36a1.48,1.48,0,0,0,.3,1.32,1.73,1.73,0,0,1,.34.74,2.66,2.66,0,0,0,.52.65A1.56,1.56,0,0,0,1.92,8.2l1.3,1.08a.58.58,0,0,0,.54.12c.1,0,.2,0,.29,0a.54.54,0,0,1,.54.12c.11.1,0,.25-.09.45-.32.46-.31.67,0,1a1.11,1.11,0,0,1,.38.72c0,.85,0,1.7.06,2.56a1.14,1.14,0,0,0,.3.75,1.05,1.05,0,0,1,.32.74c0,.67,0,.66.39,1a1.29,1.29,0,0,0,1.29.41l9.39-.73a1.45,1.45,0,0,0,.3,0,1.77,1.77,0,0,0,.24-.17c.38-.29.39-.29.95-.06a.24.24,0,0,0,.23,0,1.67,1.67,0,0,1,1-.47c1.47-.1,2.94-.23,4.4-.35a.85.85,0,0,0,.51-.27,1.27,1.27,0,0,1,1.06-.41A2.46,2.46,0,0,0,26.93,14a.93.93,0,0,1,.55-.08c.2,0,.28.22.35.39.22.57.3.63.78.59l1.76-.16c.08,0,.17-.11.23-.17a.57.57,0,0,0,.15-.24c.05-.61.44-.78,1-.8s.64.07.81.56.26.48.6.45c.59,0,1.17-.07,1.76-.12a.57.57,0,0,0,.46-.29s-.09-.15-.15-.22-.24-.33-.17-.44a.55.55,0,0,1,.52-.23c.58,0,1.17-.09,1.76-.12a.5.5,0,0,1,.24.12c.05,0,.11.14.09.17a.5.5,0,0,1-.21.2c-.36.15-.78,0-1.11.27a1,1,0,0,0-.16.19,1,1,0,0,0,.23.17.61.61,0,0,0,.27,0c1.46-.1,2.93-.2,4.4-.33a1.58,1.58,0,0,1,1,.34.26.26,0,0,0,.23,0,2.56,2.56,0,0,1,2.2-.49c.09,0,.17.08.25.13a1.19,1.19,0,0,0,1.08.25l.29,0,.3,0a1,1,0,0,0,.77-.36c.42-.43.64.27,1,.09s.6-.49,1-.5,1-.06,1.47-.1a.72.72,0,0,1,.53.15,1.4,1.4,0,0,0,1.07.29,2.3,2.3,0,0,0,1.62-.56.79.79,0,0,1,.55-.17c.29,0,.59,0,.88-.07.67-.06.67-.06,1.61.39.19,0,.41,0,.56-.08.89-.54.89-.55,1.6-.6l.58,0a.68.68,0,0,1,.26.12A1.74,1.74,0,0,0,61,13c2.84-.23,5.68-.43,8.52-.64a.66.66,0,0,1,.52.17c.44.37,1.1.29,1.53.67a.68.68,0,0,0,.55.08l12-.9a.73.73,0,0,1,.54.13,2.73,2.73,0,0,0,.48.25c.15-.12.31-.25.47-.36a.52.52,0,0,1,.25-.14c.49-.05,1-.09,1.47-.11.08,0,.17.07.24.13.67.54,1.45.31,2.21.15.09,0,.16-.11.24-.17.35-.27.37-.28.7-.06a.88.88,0,0,0,.52.19c.59,0,1.18-.07,1.76-.12a.93.93,0,0,1,.53.17,1.17,1.17,0,0,0,.78.29l8.51-.64a1.22,1.22,0,0,1,.8.23,1.22,1.22,0,0,0,.8.21c2.06-.16,4.11-.29,6.17-.46a1.26,1.26,0,0,1,.77.3.79.79,0,0,0,.53.16c1.18-.09,2.35-.17,3.53-.24a.83.83,0,0,1,.51.19c.35.22.36.21.71-.08a.76.76,0,0,1,1-.06,1.26,1.26,0,0,0,.79.27c1.08-.1,2.15-.15,3.23-.24a1.19,1.19,0,0,1,.79.25.89.89,0,0,0,.52.2l5.87-.42a.85.85,0,0,1,.53.16,1.12,1.12,0,0,0,1.07.27,1.29,1.29,0,0,1,.8.22,1.17,1.17,0,0,0,.8.23l5-.37a1.4,1.4,0,0,1,.29,0,.84.84,0,0,1,.24.14c.56.34.56.34,1.07.3s1-.07,1.47-.09a.88.88,0,0,1,.52.19,1.17,1.17,0,0,0,.78.26c1.08-.1,2.16-.15,3.23-.24a.79.79,0,0,1,.55.11,1.54,1.54,0,0,0,1,.34c1.28-.11,2.55-.19,3.82-.28a.8.8,0,0,1,.53.17,1.13,1.13,0,0,0,.77.29c.69-.08,1.37-.09,2.06-.16a1.14,1.14,0,0,1,.79.23,1.19,1.19,0,0,0,.81.22c.68-.07,1.37-.09,2.05-.15a.7.7,0,0,1,.54.14,1.36,1.36,0,0,0,1.06.31c.68-.07,1.37-.11,2.05-.15a.81.81,0,0,1,.52.2,1,1,0,0,0,.24.15.63.63,0,0,0,.93-.33c.06-.18.06-.38.2-.52s.15-.1.19-.08.2.11.2.18c0,.61.43.74.94.8.18,0,.32.2.48.29a.63.63,0,0,0,.94-.32c.05-.19,0-.42.18-.52s.48.1.71.18a.84.84,0,0,0,.26.07,3.82,3.82,0,0,0,.59,0c.59,0,1.18-.07,1.76-.12a1,1,0,0,1,.77.31c.31.24.74.12,1.06.36s.45.29,1.07.23a.8.8,0,0,1,.55.13,1.42,1.42,0,0,0,1.05.33c1.07-.1,2.15-.16,3.23-.23a.68.68,0,0,1,.52.18l.65.53c.38.29.38.29,1.08.24a.82.82,0,0,0,.54-.2,5.32,5.32,0,0,1,.46-.37,4.9,4.9,0,0,1,.48.31.64.64,0,0,0,.54.11,1.25,1.25,0,0,1,1.08.23.77.77,0,0,0,.52.21l2.35-.16a.74.74,0,0,1,.53.16,1.15,1.15,0,0,0,1.06.28,1.17,1.17,0,0,1,.8.21,1.17,1.17,0,0,0,.8.23c.49-.05,1,0,1.47-.11a1.06,1.06,0,0,1,.78.29,1.22,1.22,0,0,0,.82.16M60.35,11.42a.3.3,0,0,1,.21.16c0,.1-.05.28-.27.34a3.37,3.37,0,0,1-.84.08c-.21,0-.39-.18-.49-.53-.47-.07-.68-.31-.58-.66s.19-.32.33-.29a.29.29,0,0,1,.19.17.55.55,0,0,1,0,.26c0,.18,0,.36,0,.53C59.42,11.46,59.88,11.43,60.35,11.42Zm-10-3.28c-.67.13-1-.27-1.35-.71,0,0,0-.14,0-.19a.49.49,0,0,1,.23-.15,3.43,3.43,0,0,1,.56,0c.5,0,.71.13.75.54,0,.18,0,.36,0,.54a7.48,7.48,0,0,1,.82,0c.19,0,.28.18.32.35a.46.46,0,0,1-.1.5c-.11.12-.27.1-.43-.05s-.38-.36-.55-.55,0-.17-.05-.26A2.4,2.4,0,0,0,50.38,8.14Zm19,3.08c-.21,0-.32-.16-.28-.3s.12-.18.19-.19c.28-.05.55-.07.83-.1a.82.82,0,0,1,.06-.27.55.55,0,0,1,.43-.33l3.75-.28c.21.09.33.2.27.32s-.13.19-.2.19l-4.32.36C70,11.08,69.75,11.3,69.38,11.22ZM64,2.53a1.13,1.13,0,0,1,.77.3.86.86,0,0,0,.53.17q1-.09,2-.15a1.37,1.37,0,0,0,.81-.3c.33-.29.36-.3.69-.06a1.86,1.86,0,0,0,.8.24c.08,0,.21.12.2.17a.41.41,0,0,1-.36.34c-1.95.16-3.91.29-5.86.46a1.15,1.15,0,0,1-.77-.29.86.86,0,0,0-.53-.17l-4.68.34a.58.58,0,0,1-.26-.06.94.94,0,0,1-.23-.16,1.06,1.06,0,0,1,.17-.2A.63.63,0,0,1,57.54,3l3.51-.27h0C62,2.69,63,2.63,64,2.53ZM35.36,7.58a.7.7,0,0,1,.52.19A1.28,1.28,0,0,0,36.94,8a6.35,6.35,0,0,1,.87,0,.52.52,0,0,1,.26.1c.15.1.12.24-.06.44-.43.5-.45.49-1.12.19a.68.68,0,0,0-.79.13,1.47,1.47,0,0,1-.46.37.75.75,0,0,1-.55,0c-.9-.42-.89-.43-1.6-.37L31.17,9c-.2,0-.39,0-.59,0a.53.53,0,0,1-.25-.1c-.17-.09-.15-.22,0-.42a1.57,1.57,0,0,1,1.22-.69c.58,0,1.16-.09,1.75-.13h0C34,7.68,34.68,7.62,35.36,7.58ZM52.3,2.86a.75.75,0,0,1,.26.05.54.54,0,0,1,.22.17s-.08.13-.14.19-.16.13-.24.13l-10.78.82c-.21-.08-.34-.19-.3-.31s.14-.19.21-.19c1.94-.18,3.88-.34,5.82-.5v0ZM68.09,6.22a1,1,0,0,1,.79.25A1.53,1.53,0,0,0,70,6.65a.56.56,0,0,1,.61.7.57.57,0,0,1-.15.23.67.67,0,0,1-.53.21c-.28,0-.58.1-.83-.09a1.21,1.21,0,0,0-.48-.29,2.69,2.69,0,0,1-1.28-.53c-.06,0-.19,0-.28,0a.88.88,0,0,0-.5.28,1.59,1.59,0,0,1-.77.37,1.39,1.39,0,0,1-1.44-.69.19.19,0,0,1,0-.19.4.4,0,0,1,.24-.17l2-.16C67.12,6.3,67.61,6.28,68.09,6.22ZM61,7.86c-.08,0-.16-.09-.24-.14-.4-.23-.41-.23-.94.14a.64.64,0,0,1-.79,0,.59.59,0,0,1,0-.76,5.63,5.63,0,0,1,.38-.45c.25-.28.31-.29.7,0a.87.87,0,0,0,.53.18L63,6.63a.46.46,0,0,1,.55.47.53.53,0,0,1,0,.28.62.62,0,0,1-.45.33c-.29,0-.59,0-.88.08v0C61.8,7.83,61.41,7.86,61,7.86ZM57.18,6.5a.39.39,0,0,1,.38.27.64.64,0,0,1-.48.28l-2.9.24a.94.94,0,0,0-.52.25c-.37.3-.39.31-.68.1a1.71,1.71,0,0,0-.79-.25c-.25,0-.3-.22-.17-.35s.15-.17.23-.18l2.61-.2h0C55.63,6.6,56.41,6.53,57.18,6.5Zm7.46,5.07c-.19,0-.29-.21-.35-.36s.15-.68.33-.7c.58,0,1.15-.09,1.72-.16a1.34,1.34,0,0,1,1.19.56c.06.07.17.19.15.22a.65.65,0,0,1-.47.28l-1.43.11v0A7.35,7.35,0,0,1,64.64,11.57ZM40.58,8.3a.46.46,0,0,1-.4-.27.65.65,0,0,1,.48-.29l1.17-.09,1.47-.11a3.16,3.16,0,0,0,1.14-.17c.26-.13.46-.37.72-.51a.5.5,0,0,1,.54.06c.14.1.11.26-.07.44a2.18,2.18,0,0,1-.21.22c-.22.19-.4.41-.74.42-.68,0-1.37.1-2,.15h0C42,8.2,41.27,8.27,40.58,8.3Zm82.11-4a1.32,1.32,0,0,1-1.39-.69s0-.14,0-.19a.46.46,0,0,1,.23-.17c.66,0,1.32-.1,2-.13a.53.53,0,0,1,.45.25c0,.07,0,.18,0,.28a.53.53,0,0,1-.49.56l-.57,0v0A2.66,2.66,0,0,0,122.69,4.34Zm-42,6.29c-.08.26-.21.28-.41.16s-.31-.15-.92.14a.38.38,0,0,1-.23,0c-.16-.08-.31-.18-.47-.27-.15.12-.29.25-.45.37a.7.7,0,0,1-.24.13.54.54,0,0,1-.53-.06c-.13-.1-.09-.25.08-.44A1.51,1.51,0,0,1,78.69,10c.47,0,1-.05,1.43-.08a.46.46,0,0,1,.53.41A1.19,1.19,0,0,1,80.65,10.63ZM65.42,4.73c.21,0,.33.17.3.29a.31.31,0,0,1-.21.19L63,5.45a.6.6,0,0,1-.49-.21.54.54,0,0,1,.38-.32c.48-.06.95-.08,1.43-.12h0A8.72,8.72,0,0,1,65.42,4.73ZM47,8.94c-.34,0-.39-.27-.14-.55a1.89,1.89,0,0,1,.2-.2c.31-.32.34-.34.65-.14a1.64,1.64,0,0,0,.75.26c.35,0,.4.26.15.54s-.53.52-.63.49A2,2,0,0,0,47,8.94ZM128.6,4.41a.31.31,0,0,1-.22-.15c0-.11.05-.24.26-.37.85-.07,1.71-.14,2.57-.18a.5.5,0,0,1,.42.25.74.74,0,0,1-.47.3l-.29,0-1.3.1C129.35,4.39,129,4.42,128.6,4.41Zm38.46,1.1a.54.54,0,0,1-.48-.21A.52.52,0,0,1,167,5c.66-.07,1.32-.13,2-.14a.26.26,0,0,1,.29.3.37.37,0,0,1-.2.19c-.28,0-.56.08-.57.08ZM55.66,10.67a.42.42,0,0,1,.3.39.51.51,0,0,1-.14.49.66.66,0,0,1-.76.1c-.21-.17-.4-.35-.6-.53s-.13-.17-.1-.2a.66.66,0,0,1,.48-.26l.3,0A3.08,3.08,0,0,1,55.66,10.67ZM66.43,1.45c-.26.28-.39.29-.65.06a1.28,1.28,0,0,1-.45-.58,1.43,1.43,0,0,1,1-.29.58.58,0,0,1,.48.17A1.23,1.23,0,0,1,66.43,1.45ZM46.18,11.9c.22,0,.32.2.27.31a.34.34,0,0,1-.2.19,4.39,4.39,0,0,1-1.65.08c-.09,0-.15-.1-.22-.15a1,1,0,0,1,.16-.19.51.51,0,0,1,.23-.14l.85-.07h0A2.15,2.15,0,0,1,46.18,11.9Zm2.79.9a.6.6,0,0,1-.47-.22.57.57,0,0,1,.39-.32,9.55,9.55,0,0,1,1.41-.1c.21,0,.32.19.27.3a.34.34,0,0,1-.2.19,5.25,5.25,0,0,1-.55.09C49.54,12.76,49.26,12.79,49,12.8ZM31.9,4.65a.52.52,0,0,1,.46-.27,2,2,0,0,1,.81,0,.41.41,0,0,1,.21.16s-.05.12-.1.17a.62.62,0,0,1-.21.16c-.19,0-.37,0-.8.06C32.19,4.94,31.84,4.78,31.9,4.65Zm88-1a.85.85,0,0,1-.73.33l-.28,0a1.22,1.22,0,0,1-.27,0,.47.47,0,0,1-.21-.16c-.08-.1,0-.27.22-.36s.36,0-.06,0C119.48,3.44,119.94,3.61,119.88,3.7ZM82.14,10.21c-.6.12-.67.13-.82-.34a.41.41,0,0,1,.11-.49c.11-.1.27-.07.43.08s.34.37.51.56C82.28,10.1,82.22,10.2,82.14,10.21Zm-41.2,2.87a.45.45,0,0,1,.46-.26,1.66,1.66,0,0,1,.8,0,1.43,1.43,0,0,1,.22.15,1,1,0,0,1-.17.19.5.5,0,0,1-.22.13c-.19,0-.37,0-.25,0C41.14,13.42,40.85,13.25,40.94,13.08Zm12.55-.84a.46.46,0,0,1-.46.25,1.8,1.8,0,0,1-.8,0,1,1,0,0,1-.21-.15,1.46,1.46,0,0,1,.16-.19.59.59,0,0,1,.23-.13c.19,0,.37,0,.3,0C53.3,11.9,53.58,12.06,53.49,12.24ZM107.77,6.9a.86.86,0,0,1,.72-.34,2.62,2.62,0,0,0,.28,0,.82.82,0,0,1,.27,0,.47.47,0,0,1,.21.16c.08.1,0,.26-.21.35a2,2,0,0,1-.55.06C108.17,7.16,107.7,7,107.77,6.9ZM40.06,4.33a.39.39,0,0,1-.48-.14.2.2,0,0,1,0-.17.41.41,0,0,1,.47-.22.66.66,0,0,1,.43.25A.69.69,0,0,1,40.06,4.33ZM24.37,8a.52.52,0,0,1,.21-.18c.25-.09.73.07.69.21s-.12.13-.19.18a.74.74,0,0,1-.51.12C24.36,8.27,24.29,8.15,24.37,8ZM79.32,4.24a.39.39,0,0,1,.48.14.2.2,0,0,1,0,.17.41.41,0,0,1-.47.22.66.66,0,0,1-.43-.25A.65.65,0,0,1,79.32,4.24ZM29.4,8.88a.57.57,0,0,1-.42.3A.35.35,0,0,1,28.51,9c-.07-.13,0-.25.2-.35S29.45,8.74,29.4,8.88ZM134.88,4.52a.6.6,0,0,1-.51,0c-.07-.05-.18-.1-.19-.17s.45-.35.7-.29c.08,0,.14.09.21.14S135.09,4.43,134.88,4.52ZM49.74,11.58a.55.55,0,0,1-.5,0c-.08,0-.18-.1-.19-.17s.45-.35.7-.3c.08,0,.14.1.21.15S50,11.49,49.74,11.58Zm1.16-.43a.57.57,0,0,1,.2-.18c.26-.08.74.07.7.21s-.11.13-.19.19a.73.73,0,0,1-.51.11C50.9,11.39,50.82,11.27,50.9,11.15Zm-3.4,1.68a.57.57,0,0,1-.27-.4.4.4,0,0,1,.18-.47.19.19,0,0,1,.18,0,.33.33,0,0,1,.19.44A.6.6,0,0,1,47.5,12.83Zm15.18-1.66a.6.6,0,0,1-.51,0C62.09,11.08,62,11,62,11s.45-.35.7-.3c.08,0,.14.1.21.16S62.89,11.08,62.68,11.17Zm94.91-4.9a.38.38,0,0,1,.48.14.28.28,0,0,1,0,.18.44.44,0,0,1-.48.21.64.64,0,0,1-.42-.25A.62.62,0,0,1,157.59,6.27Z"/></g></g></svg>