<svg xmlns="http://www.w3.org/2000/svg" width="168.5" height="15.86" viewBox="0 0 168.5 15.86"><defs><style>.underline3{fill:#f5c614;}</style></defs><g id="Layer_2" data-name="Layer 2"><g id="home"><line class="underline3" y1="7.93" x2="168.5" y2="7.93"/><path class="underline3" d="M5.54,5.28c-.12,0-.17-.11-.14-.18A.13.13,0,0,1,5.51,5C5.66,5,5.82,5,6,5c0-.19-.16-.31-.29-.31h-1a.33.33,0,0,0-.37.23s0,.11,0,.15a.33.33,0,0,1-.38.2.34.34,0,0,1-.23-.19c-.19-.4-.19-.4-.56-.4H2.78a.62.62,0,0,0-.45.15A.87.87,0,0,1,2.06,5c-.12,0-.39-.11-.39-.21,0-.31,0-.62,0-.93a.48.48,0,0,1,.18-.41c.1-.11.12-.17,0-.26s-.17-.24,0-.37.12-.18,0-.23a.94.94,0,0,0-.15-.06.86.86,0,0,0-.75.21,4.89,4.89,0,0,1-.47.44c-.12.1-.12.15,0,.25A.6.6,0,0,1,.66,4a.41.41,0,0,1-.08.29l-.44.46A.53.53,0,0,0,0,5.14c0,.05,0,.1,0,.15A.33.33,0,0,0,.3,5.6l.49,0a.23.23,0,0,1,.12.1s0,.08-.06.1-.44.06-.5.32.15.36.26.54a.33.33,0,0,1,0,.14c0,.18.14.27.22.4a.16.16,0,0,1,0,.12c-.06.09-.13.17-.19.25s.1.17.16.25A.37.37,0,0,1,1,8.14c0,.35-.07.72.26,1,.11.11.05.3.17.42a.7.7,0,0,1,.23.56.46.46,0,0,0,.14.42.68.68,0,0,1,.2.57.34.34,0,0,0,.08.29.88.88,0,0,1,.27.54c.09.13.19.25.29.37a.89.89,0,0,0,.26.55.38.38,0,0,1,.08.29.63.63,0,0,0,.21.56c.28.25.54.52.82.77a.58.58,0,0,0,.45.14,4.85,4.85,0,0,1,.66,0,.88.88,0,0,0,.7-.32c.11-.1.12-.15,0-.25-.25-.28-.19-.37.31-.36h.5a.28.28,0,0,0,.28-.31.68.68,0,0,0,0-.14c-.06-.14-.14-.15-.25,0s-.09,0-.13.09a.41.41,0,0,1-.45,0A.33.33,0,0,1,6,12.9a1,1,0,0,0,.28-.85.78.78,0,0,0-.19-.56c-.14-.18-.11-.21.17-.28s.34-.08.13-.38a.36.36,0,0,1,0-.54s.08-.07.11-.11.17-.15.26-.14.09.05.13.08a.65.65,0,0,0,.45.15.75.75,0,0,0,.6-.18c.05,0,.12-.08.14-.07a.32.32,0,0,1,.13.27c0,.2,0,.41,0,.62v.29a.28.28,0,0,1-.14.26L8,11.52H7.67a.28.28,0,0,0-.29.11c0,.06,0,.16.12.25a1.06,1.06,0,0,1,.1.12.44.44,0,0,1,0,.3c-.06.13-.14.13-.25,0a.76.76,0,0,0-.28-.15.28.28,0,0,0-.3.06c-.07.06,0,.14.06.23s.39.37.6.54a.59.59,0,0,0,.3.09c.19,0,.22.15.06.32s-.11.15,0,.25.17.22,0,.36l-.24.22c-.25.26-.26.3-.24.7a.39.39,0,0,0,.13.27l.14-.08c.19-.21.52-.15.72-.34a.77.77,0,0,1,.61-.16.36.36,0,0,1,.38.39c0,.21,0,.42,0,.62s.26.26.38.22a.85.85,0,0,0,.28-.15.7.7,0,0,1,.45-.15.74.74,0,0,1,.59.2.45.45,0,0,0,.59,0,1.28,1.28,0,0,0,.3-.36s-.08-.09-.13-.09a1.05,1.05,0,0,1-.68-.39c-.14-.16-.12-.19.19-.27s.31-.08.2-.26l-.09-.13c-.07-.09,0-.16.1-.22.36,0,.54-.35.89-.34a.27.27,0,0,0,.14-.07l.12-.1a.77.77,0,0,0,.32-.68c0-.25.13-.37.39-.37h.5a.63.63,0,0,1,.44.16c.18.11.24.08.31-.13s.16-.33.28-.33H16a.22.22,0,0,1,.13.09s0,.08,0,.11a2.41,2.41,0,0,1-.21.24,1.72,1.72,0,0,0-.32.35c-.06.14,0,.3-.17.42s-.13.18-.07.24a.32.32,0,0,0,.3.09,2.78,2.78,0,0,1,.5,0,.67.67,0,0,0,.44-.17c.25-.16.37-.17.58,0a.71.71,0,0,0,.6.19.6.6,0,0,1,.45.16c.1.09.17.11.27,0a2.15,2.15,0,0,1,.26-.14L19,14a.41.41,0,0,0,.45,0l.25-.21c.14-.13.13-.19-.05-.36a.8.8,0,0,0-.4-.25c-.19,0-.3.1-.43.18s-.11.07-.13.06a1.92,1.92,0,0,1-.46-.44.26.26,0,0,1,0-.15c0-.22.09-.27.31-.27a.41.41,0,0,1,.29.11c.09.09.19.13.26.09s.1-.16.11-.28c0-.47.09-.56.53-.56.28,0,.56,0,.83,0a.62.62,0,0,1,.28.14c.2.13.2.13.39,0l.36-.32c.13-.12.31-.07.45-.15a1.42,1.42,0,0,1,.41-.24.26.26,0,0,1,.3.08c0,.06,0,.15-.1.24a.94.94,0,0,1-.55.3C22,11.86,22,12,22,12a.2.2,0,0,0,.12.1,1.22,1.22,0,0,0,.33,0,.42.42,0,0,1,.31.08c.09.07.08.11-.16.34l-.23.23c-.11.1-.12.17,0,.23a.39.39,0,0,0,.14.05H23c.52,0,.54,0,.33-.36,0,0-.08-.11-.07-.12a.34.34,0,0,1,.28-.13,4.9,4.9,0,0,1,1.15,0s.08.06.12.09a4.25,4.25,0,0,0-.25.39.25.25,0,0,0,.06.29c.06.07.15,0,.25,0,.26-.22.49-.13.73,0s.26.05.25-.21a.92.92,0,0,1,.26-.7.72.72,0,0,0,.1-.29c.05-.19.15-.2.33-.05l.24.22a.7.7,0,0,0,.58.22h.5c.17,0,.28-.08.31-.29a.45.45,0,0,1,.14-.27c.12-.11.22-.23.34-.33s.18-.37.29-.54a.22.22,0,0,1,.13-.08c.25,0,.45.07.43.32s0,.41,0,.62.13.22.33.28c.07-.25.21-.36.42-.3s.18.1.15.17a.16.16,0,0,1-.11.1c-.15,0-.31,0-.46,0v.62a.34.34,0,0,0,0,.14A.23.23,0,0,0,30,13s.08,0,.11-.08,0-.3.2-.4a1.09,1.09,0,0,1,.47-.08c.06,0,.12,0,.16,0a.33.33,0,0,0,.21-.22,3.44,3.44,0,0,1,0-.46,2.4,2.4,0,0,1,.27-.38.27.27,0,0,0,.05-.14c0-.26,0-.52,0-.78s0-.51.62-.48c.26,0,.34.08.25.24a1.48,1.48,0,0,0-.08.13c-.1.17-.09.17.23.26s.25.07.31.3.1.27.31.29a.43.43,0,0,0,.16,0c.15,0,.17-.12.07-.22a1.61,1.61,0,0,1-.15-.26.59.59,0,0,1,.29-.13c.24,0,.24-.05.31-.29s.1-.32.29-.18.63.19.85.43a.41.41,0,0,0,.46,0l.13-.09a.84.84,0,0,1,.77,0c.12,0,.14.14.16.25,0,.26.11.28.29.16a1.25,1.25,0,0,1,.44-.19c.21,0,.23-.12.08-.3s-.11-.18,0-.23a.32.32,0,0,1,.15-.06c.55,0,1.1,0,1.66,0a.63.63,0,0,0,.42-.21l.36-.32a.41.41,0,0,1,.45,0l.13.09c.38.25.49.21.68-.23,0-.11.12-.17.2-.13a.2.2,0,0,1,.11.11c.18.41.18.41.54.41h.83c.15,0,.24.11.3.31s.09.29.29.17c.37-.23.38-.22.72,0s.4.2.58,0S44.89,10,45,10a.88.88,0,0,0,.69-.38.89.89,0,0,1,.73-.26.33.33,0,0,0,.36-.25.22.22,0,0,0-.08-.28c-.06,0-.15,0-.26.07s-.26.07-.28-.14a.3.3,0,0,1,.27-.32h.49a.69.69,0,0,0,.6-.2.41.41,0,0,1,.29-.11,1,1,0,0,0,.76-.23.33.33,0,0,1,.31,0A.29.29,0,0,1,49,8.3a1,1,0,0,0-.28.54.28.28,0,0,1-.24.18.85.85,0,0,0-.63.45s0,.08,0,.1a.35.35,0,0,0,.3.08h.5a.3.3,0,0,1,.3.1c0,.06,0,.15-.08.24s-.12.18,0,.23a.4.4,0,0,0,.32,0,.76.76,0,0,0,.26-.18c.2-.14.31-.14.58,0,.12.07.19.11.26,0a.29.29,0,0,0,.09-.28c0-.28,0-.52.4-.55s.25-.14.26-.34a.68.68,0,0,0-.16-.58c-.1-.09-.12-.17-.05-.23a.35.35,0,0,1,.31-.08h.17a.26.26,0,0,1,.29.09c0,.07,0,.15-.08.25s-.1.21.16.28a.7.7,0,0,1,.16,0,1.65,1.65,0,0,1,.27.19.35.35,0,0,0,.59-.21c-.05,0-.11,0-.15,0a1.6,1.6,0,0,1-.45-.41.33.33,0,0,1,0-.4.36.36,0,0,1,.42,0s.1.07.11.11c0,.25,0,.5,0,.74a.29.29,0,0,1,.27.13.53.53,0,0,1,.06.14c.1.28.11.29.27.33a.34.34,0,0,0,.31-.07.84.84,0,0,1,1.17,0,.15.15,0,0,0,.13,0l.62-.5s.11,0,.16,0c.22,0,.26,0,.32.27s0,.21.15.25.19-.16.19-.35,0-.21,0-.31a.58.58,0,0,0-.21-.56c-.1-.09-.08-.15,0-.25.42-.38.41-.38,1-.11a.13.13,0,0,0,.12,0,.51.51,0,0,0,.12-.28.32.32,0,0,1,.36-.24.86.86,0,0,0,.47-.07c.12-.06.17-.21.09-.4s-.13-.13-.25,0a.81.81,0,0,1-.27.16.29.29,0,0,1-.3-.06c-.07-.06,0-.15.06-.24L58,6.09c.19-.2.53-.13.71-.35s.16-.11.26,0a.72.72,0,0,0,.43.2c.13,0,.21.1.17.17a.26.26,0,0,1-.28.12,1.82,1.82,0,0,0-.33,0,.37.37,0,0,0-.26.16s0,.1,0,.15a.28.28,0,0,0,.29.3h.66c.23,0,.34.13.34.42a.67.67,0,0,0,.22.55.84.84,0,0,0,.56.28,2.48,2.48,0,0,0,.4.26.42.42,0,0,0,.31,0,.26.26,0,0,0,.16-.25s0-.1,0-.15c0-.4.1-.48.45-.48a.91.91,0,0,0,.6-.2.43.43,0,0,1,.58,0c.19.14.2.15.39,0s.43-.08.59-.24.19-.15.26-.12.11.16.13.27.34.4.34.68c0,0,0,.09.09.12a.35.35,0,0,0,.3.08,1.46,1.46,0,0,0,.41-.25,1.39,1.39,0,0,0,.71-.34s.11,0,.16,0c.24-.06.28-.14.14-.29l-.34-.33c-.11-.1-.13-.18,0-.24s.09-.06.14-.06a1.59,1.59,0,0,1,.49,0,1.76,1.76,0,0,1,.4.27.76.76,0,0,0,.16,0c.07-.25.21-.36.42-.3s.18.1.15.17-.06.1-.1.1a3.77,3.77,0,0,1-.47,0,.31.31,0,0,0,.12.27.81.81,0,0,1,.23.39c0,.22.13.26.32.27h.49c.22,0,.22,0,.59.2.14.08.15.06.24-.24s.13-.23.31-.13.29.11.34-.07a.81.81,0,0,1,.11-.27c.12-.14.3-.1.45-.11h.49c.13,0,.23.12.29.31h0c.18,0,.28.12.41.21a.51.51,0,0,0,.13.09,5,5,0,0,0,1.28,0,.21.21,0,0,0,.11-.1c.21-.46.21-.46.39-.63s.14-.13.38,0a.41.41,0,0,0,.29.1h0c.06-.2.16-.3.3-.31h.32c.24,0,.36-.13.38-.39a1.62,1.62,0,0,1,0-.31.3.3,0,0,1,.21-.2.32.32,0,0,1,.3,0c.09.06.08.14,0,.23s-.11.18,0,.24a.32.32,0,0,0,.3.08h.16a.3.3,0,0,0,.3-.09c.06-.06,0-.14-.06-.23s-.12-.18,0-.24a.41.41,0,0,1,.31,0,.31.31,0,0,1,.13.08.91.91,0,0,0,.75.21h0V6.09c0-.26.07-.46.41-.49.16,0,.18-.08.26-.3-.23-.06-.29-.1-.33-.25a.25.25,0,0,1,.09-.26.15.15,0,0,1,.11,0s.1.06.1.1a3.24,3.24,0,0,1,0,.44h1.66a.45.45,0,0,1,.29.12l.84.75c.12.1.34,0,.44.18a3.89,3.89,0,0,1,.19.41.94.94,0,0,0,.09.12c.12.18.09.22-.17.29l-.16,0a.36.36,0,0,0-.16.4c0,.11.31.23.41.18l.14-.08a.88.88,0,0,1,.42-.21h1.33a.53.53,0,0,1,.29.12c.21.14.23.16.39,0s.41-.11.59-.25.39-.24.71-.05.28.11.32-.09a.69.69,0,0,1,.11-.28.69.69,0,0,0,.24-.55c0-.15,0-.31,0-.46s.07-.27.29-.31a.62.62,0,0,0,.3-.12c.27-.21.24-.19.51.07.09.08.16.18.13.24a.29.29,0,0,1-.29.11H87.2a.36.36,0,0,0-.26.17s0,.1,0,.15.11.28.31.28h1.31c0-.11,0-.21,0-.32a.31.31,0,0,1,.3-.3h1a.58.58,0,0,1,.3.11.72.72,0,0,0,.43.2h1.33a.25.25,0,0,0,.22-.16.37.37,0,0,0-.28-.14H91.2l-.15,0c-.13,0-.13-.13,0-.23l.35-.34c.13-.12.13-.12,0-.37s-.1-.17.22-.25a1.5,1.5,0,0,1,1,0c.26.07.27.07.32.29a.32.32,0,0,0,.15.26c.17-.06.19-.2.21-.35a.21.21,0,0,1,.1-.11.15.15,0,0,1,.2.14c0,.34.27.39.57.39s.35,0,.44.34.13.24.31.13a.77.77,0,0,1,.45-.16c.38,0,.77,0,1.16,0a.6.6,0,0,0,.43-.19l.72-.64a.15.15,0,0,1,.13,0c.52.23.52.23.75.23l.82,0a.39.39,0,0,1,.19.24c0,.15,0,.31,0,.46s.13.18.22.11a1.37,1.37,0,0,1,.58-.25.19.19,0,0,0,.12-.11s-.06-.08-.1-.1-.32,0-.43-.18a1.23,1.23,0,0,1,.14-.25c.08-.09.07-.16,0-.25s-.12-.18,0-.24a.33.33,0,0,1,.44,0s.07.08.07.12,0,.24.12.28.25-.11.39-.15a1.23,1.23,0,0,0,.58-.26c.08-.08.17,0,.26,0a.49.49,0,0,0,.28.15c.28,0,.35.18.4.4s.16.19.34,0l.24-.21a.83.83,0,0,1,.75-.22l.15.05c.13.06.12.13,0,.23a.75.75,0,0,0-.16.73.27.27,0,0,0,.21.2.31.31,0,0,0,.31,0c.07-.06,0-.14-.05-.24s-.12-.18,0-.23a.34.34,0,0,1,.31,0,3.18,3.18,0,0,1,.4.23l.27-.18a.25.25,0,0,1,.14-.06c.44,0,.89,0,1.33,0a.77.77,0,0,1,.43.19c.29.19.53.13.62-.16,0-.05,0-.12,0-.15a1.6,1.6,0,0,0,.38-.67c0-.09.13-.16.21-.24a.31.31,0,0,1,.25-.14.31.31,0,0,1,.14.09c.1.1.19.11.25,0s.07-.08.07-.13c0-.26,0-.52,0-.78a.44.44,0,0,1,.25-.18h1.49s.09.05.14.08l.13.09a.44.44,0,0,0,.59,0c.2-.14.22-.15.39,0s.18.11.27,0,.2-.15.26-.11.1.28.11.43a.31.31,0,0,1-.07.28c-.07.08-.15.06-.26,0a.63.63,0,0,0-.45-.15h-.49a.4.4,0,0,0-.16,0,.27.27,0,0,0-.13.1c0,.07,0,.17.16.18a1.6,1.6,0,0,1,.9.28.75.75,0,0,0,.16,0c.31.09.31.09.22.25-.21.34-.19.36.33.36.28,0,.55,0,.83,0a.27.27,0,0,1,.23.16.35.35,0,0,1-.28.13h-.83a1.77,1.77,0,0,0-.65,0,.37.37,0,0,0-.11.09,1.36,1.36,0,0,0,.32.36.44.44,0,0,0,.58,0,.67.67,0,0,1,.44-.18c.17,0,.34,0,.5,0a.63.63,0,0,0,.44-.18,3.61,3.61,0,0,0,.35-.33c.1-.09.28-.17.18-.34s-.19-.08-.3-.1-.18-.12-.14-.19a.2.2,0,0,1,.13-.09c.22,0,.44,0,.66,0a.62.62,0,0,1,.44.17l.36.33a.42.42,0,0,0,.58,0c.22-.15.25-.15.39,0a1,1,0,0,1,.34.51.33.33,0,0,0,.5.19,2.43,2.43,0,0,0,.25-.2c.19-.17.2-.21,0-.36s-.13-.17,0-.25l.11-.12c.32-.3.4-.31.84,0,.11.07.19.06.24-.08a.26.26,0,0,0,0-.15.21.21,0,0,0,0-.14,1,1,0,0,0-.48-.42,1.86,1.86,0,0,0-.48,0l-.15,0c-.12-.05-.14-.14-.13-.26s0-.22.15-.26a.47.47,0,0,1,.45.08c.18.15.19.15.39,0a.53.53,0,0,1,.29-.12h.66a.33.33,0,0,1,.28.13c0,.08-.1.13-.21.17-.35.11-.37.14-.37.41s0,.35.19.56a.89.89,0,0,0,.72.29.34.34,0,0,1,.4.37.76.76,0,0,1,0,.15q0,.39.39.39l1,0a.32.32,0,0,1,.15.06c.32.17.32.18.53,0a.45.45,0,0,1,.3-.1h.66a.32.32,0,0,0,.15-.06c.11,0,.1-.13,0-.23l-.47-.44c-.16-.15-.2-.17-.39,0a.9.9,0,0,1-.62.13c-.16,0-.33-.13-.34-.26s0-.21,0-.31a.26.26,0,0,1,.11-.28l.35-.33a1.63,1.63,0,0,1,.4.24,1,1,0,0,1,.68.38l.12.11c.16.13.25.1.32-.12,0,0,0-.11,0-.16a.29.29,0,0,1,.25-.16.29.29,0,0,1,.29.08.7.7,0,0,1,.12.28.36.36,0,0,0,.53.16c.16-.14.33-.27.49-.42s.19-.12.24,0a.32.32,0,0,1,0,.3,3.51,3.51,0,0,1-.33.34.41.41,0,0,1-.29.13h-.66a.37.37,0,0,0-.28.14.28.28,0,0,0,.23.16h1a.61.61,0,0,0,.42-.21c.14-.12.32-.07.45-.16a2.79,2.79,0,0,0,.38-.3l.12-.11c.16-.18.28,0,.4.05s.21,0,.23-.09.18-.36.27-.54a1.69,1.69,0,0,1,.4-.65c.16-.13.19-.16.4,0s.31.09.45.17a1.74,1.74,0,0,1,.37.3l.23.22c.19.17.2.23.06.37l-.35.33c-.12.1-.12.18,0,.23A.44.44,0,0,0,130,5a1,1,0,0,0,.76-.2c.09-.06.16,0,.26,0a.63.63,0,0,0,.44.16H134a.42.42,0,0,1,.16,0l.14.08c.14.08.25.21.43.21h1.66a.29.29,0,0,0,.26-.14s-.05-.09-.09-.12a.75.75,0,0,1-.16-.73.25.25,0,0,1,.2-.22,1.35,1.35,0,0,0,.58-.27.25.25,0,0,1,.14-.06.82.82,0,0,1,.76.19,2.39,2.39,0,0,0,.23.22c.24.21.31.19.4-.13s.14-.27.33-.28h1a.55.55,0,0,0,.29-.13,1,1,0,0,1,.44-.2.31.31,0,0,0,.26-.34,1.1,1.1,0,0,1,0-.31.26.26,0,0,1,.18-.23,1.24,1.24,0,0,0,.58-.27c.15-.1.39-.08.45,0s0,.15-.1.24-.23.23-.33.35-.09.1-.08.12a.41.41,0,0,0,.29.13,2.45,2.45,0,0,1,.81.06,1,1,0,0,1,.13.09.41.41,0,0,1-.13.1.2.2,0,0,1-.14,0,1,1,0,0,0-.87.34c-.14.16-.3.3-.45.45s0,.1,0,.16h.17a.77.77,0,0,0,.59-.22.35.35,0,0,1,.44,0,1.14,1.14,0,0,0,.91.25h.16c.2,0,.33-.05.36-.24s.28-.39.58-.38h.17c.43,0,.44,0,.72-.26.1-.08.16-.16.14-.24s-.06-.08-.09-.13-.11-.26.11-.29a1.09,1.09,0,0,0,.44-.19l.14-.09a.4.4,0,0,1,.14.27c0,.31,0,.62,0,.92a.32.32,0,0,1-.13.27s-.09,0-.13-.07c-.27-.15-.26-.14-.4,0a1.14,1.14,0,0,0-.39.65c-.26.37-.2.34.07.59s.25.11.32-.11.15-.34.43-.35h.17a1.71,1.71,0,0,0,.32,0,.31.31,0,0,1,.3.1c0,.06,0,.14-.08.24-.22.3-.16.53.15.57a.34.34,0,0,0,.36-.22,1.62,1.62,0,0,0,0-.31.32.32,0,0,1,.24-.35,1.1,1.1,0,0,0,.55-.3c.16-.15.16-.22,0-.37-.34-.31-.34-.32-.49.09a.32.32,0,0,1-.2.21c-.16,0-.41,0-.42-.14a.42.42,0,0,1,.12-.42l.11-.11a.67.67,0,0,1,.58-.23h.49a.53.53,0,0,0,.29-.12c.27-.17.27-.16.38.18.06.19.14.21.32.1a.66.66,0,0,1,.45-.15,4,4,0,0,0,.49,0,.44.44,0,0,1,.31.09c.28.21.28.21.75.22a.26.26,0,0,1,.14-.26.44.44,0,0,1,.15-.05h.33a.3.3,0,0,1,.28.11c0,.07,0,.16-.12.24l-.24.21c-.17,0-.26-.16-.39-.22a.65.65,0,0,0-.16,0,.31.31,0,0,1-.29.31.88.88,0,0,0-.16,0c-.15,0-.17.12-.1.21a.9.9,0,0,0,.84.4,5.61,5.61,0,0,1,.82,0c.14,0,.18.12.12.21l-.18.25a2.41,2.41,0,0,0,.21.24,1.4,1.4,0,0,0,.26.16s.08,0,.13-.08a.69.69,0,0,1,.44-.17c.22,0,.44,0,.66,0a.85.85,0,0,0,.72-.31c.14-.14.16-.15,0-.36s-.09-.16,0-.26.14-.16,0-.37c0,0-.1-.11-.08-.13a.28.28,0,0,1,.28-.11.27.27,0,0,1,.31.27l0,.62a.31.31,0,0,0,.28.31h.17c.57,0,.52-.09.33-.36,0,0-.08-.11-.07-.13a.34.34,0,0,1,.29-.12h1a.48.48,0,0,1,.29.13c.2.14.22.14.39,0s.16-.1.27,0a1,1,0,0,1,.4.65l.2.25c.11.12.06.3.19.41a.14.14,0,0,0,.11,0,.23.23,0,0,0,.11-.11c0-.09,0-.2.08-.29a1.57,1.57,0,0,1,.2-.25c0-.16-.16-.25-.24-.37a.47.47,0,0,1,0-.3c.2-.24.4-.5.8-.46a.61.61,0,0,0,.45-.13c.2-.14.24-.13.39,0a.77.77,0,0,1,.31.52.14.14,0,0,0,.21.12s.1-.08.1-.12,0-.31,0-.46a.27.27,0,0,1,.2-.22.34.34,0,0,1,.31,0,1.38,1.38,0,0,1,.45.45c.05.08,0,.2.08.29a1.31,1.31,0,0,0,.48.42.35.35,0,0,0,.31,0c.1,0,.09-.13,0-.23s-.23-.22-.34-.34a.47.47,0,0,1-.16-.42c0-.1,0-.2,0-.31s.26-.2.43-.17a.28.28,0,0,1,.13.09.15.15,0,0,1,0,.11c-.05.09-.12.17-.17.26l.21.23a.61.61,0,0,0,.59.22h.49l.15-.05c.14,0,.14-.12,0-.23s-.16-.49-.36-.67-.12-.18,0-.24.39,0,.43.08a1,1,0,0,0,.29.53l.6.54a1,1,0,0,1,.58.26,2.39,2.39,0,0,0,.23.22c.22.19.22.2.6.19a.63.63,0,0,1,.44.16,1.21,1.21,0,0,1,.21.24c.08.08,0,.17-.1.2s-.31,0-.38.2a.56.56,0,0,0,.45.13.6.6,0,0,0,.45-.14c.08-.07.15-.15.23-.23a.38.38,0,0,0,.08-.42,1.89,1.89,0,0,1-.27-.38,2.42,2.42,0,0,1,0-.47s0-.08-.09-.12-.16,0-.22.1,0,.2-.09.29-.15.12-.28.1-.23,0-.26-.14a.38.38,0,0,1,.1-.42c.13-.11.23-.23.35-.34s.15-.2,0-.36a.3.3,0,0,1-.13-.27h-.33A.36.36,0,0,1,166.9,3a2.39,2.39,0,0,0-.23-.22c-.17-.16-.17-.32,0-.54l.14-.25a.58.58,0,0,0-.46-.11.67.67,0,0,0-.45.14.63.63,0,0,1-.44.16H165c-.27,0-.37-.12-.42-.35s-.17-.23-.33-.09l-.24.21-.12.11a.45.45,0,0,1-.28.13c-.21,0-.43,0-.63-.11a.64.64,0,0,0-.42-.2c-.17,0-.28-.15-.42-.23a.27.27,0,0,0-.14-.07h-2.8a.33.33,0,0,0-.14.06l-.26.18-.26-.17-.23-.21c-.23-.19-.23-.19-.6-.18s-.41.12-.42.35v.31c0,.12.12.22.33.27,0-.15,0-.29,0-.44a.18.18,0,0,1,.11-.1.13.13,0,0,1,.1,0,.29.29,0,0,1-.08.48.76.76,0,0,1-.16,0,.26.26,0,0,1-.14.26.39.39,0,0,1-.15.06c-.28,0-.33.19-.38.4s-.14.17-.21.11a.28.28,0,0,1-.1-.12,1.14,1.14,0,0,1,.27-.84.37.37,0,0,0,0-.15.19.19,0,0,0-.11-.26s-.09,0-.13,0-.25.21-.36.32-.17.14-.26.12S156,2.05,155.9,2a.69.69,0,0,0-.29-.13,11,11,0,0,0-1.15,0s-.09.06-.12.1a.79.79,0,0,0-.12.28.36.36,0,0,1-.53.14c-.2-.17-.4-.35-.61-.51,0,0-.1,0-.16,0h0a.25.25,0,0,1-.15.25.47.47,0,0,1-.15.06h-.33c-.22,0-.3,0-.35-.25a1.07,1.07,0,0,0-.21-.41s-.1-.11-.09-.12a.32.32,0,0,1,.27-.14,7.2,7.2,0,0,0,1.14-.05.26.26,0,0,0,.13-.1.35.35,0,0,0-.09-.1.4.4,0,0,0-.31-.06.75.75,0,0,1-.59-.21c-.09-.08-.16-.05-.27,0-.27.2-.38.21-.57.07a.85.85,0,0,0-.59-.22h-.83c-.19,0-.29.07-.32.28a.69.69,0,0,1-.24.4.34.34,0,0,0,0,.42c.24.44.24.45-.31.45h-.33a.29.29,0,0,0-.3.1c0,.06,0,.16.08.25s.11.18,0,.23-.23.08-.31,0a3.5,3.5,0,0,1-.82-.76.74.74,0,0,1,0-.3,1.48,1.48,0,0,0,.31-.53A.3.3,0,0,1,148,1a1.22,1.22,0,0,0,.33,0,.23.23,0,0,0,.21-.18s-.07-.09-.12-.1A1,1,0,0,1,148,.5a.67.67,0,0,0-.44-.18c-1.82,0-3.65,0-5.47,0h-.5s-.09,0-.14-.07l-.27-.18c-.08.06-.17.11-.25.18l-.24.22c-.16.14-.18.15-.39,0s-.42-.09-.59-.25a.57.57,0,0,0-.43-.18,7.66,7.66,0,0,1-.83,0,.79.79,0,0,0-.45.16c-.29.18-.33.18-.71-.06a.19.19,0,0,0-.27.05c-.09.11-.18.13-.27,0s-.18-.15-.26-.13-.17.13-.27.18a.41.41,0,0,1-.45,0,.7.7,0,0,0-.43-.21h-1.65c-.16,0-.26.1-.31.3s-.12.32-.28.19-.24-.22-.37-.32a.63.63,0,0,0-.43-.18h-1.82a.47.47,0,0,0-.31.08l-.27.18L129.61.1a.39.39,0,0,0-.45,0l-.27.19a1.83,1.83,0,0,1-.26-.16.45.45,0,0,0-.3-.1c-.66,0-1.32,0-2,0a1.14,1.14,0,0,0-.76.25c-.14.1-.31,0-.47.06a.42.42,0,0,1-.31-.09.76.76,0,0,0-.59-.21h-.17a1,1,0,0,0-.75.23.42.42,0,0,1-.31.08,2.78,2.78,0,0,0-.5,0,.69.69,0,0,1-.44-.17.48.48,0,0,0-.29-.13c-.38,0-.77,0-1.16,0a14.91,14.91,0,0,0-1.64,0s-.1.05-.13.1,0,.07.07.1a.88.88,0,0,0,.3.09c.14,0,.17.13.09.19s-.08.09-.13.09L118,.65s-.09,0-.13.08a.29.29,0,0,0,.11.49c.15.05.3.05.37.21-.1.15-.3.11-.43.18a1.76,1.76,0,0,1-.42.24.43.43,0,0,1-.16,0c-.14,0-.2-.11-.13-.19a.49.49,0,0,0,0-.8c-.09-.08-.09-.18-.12-.28s-.14-.25-.35-.25c-.37,0-.37,0-1.08.23a.21.21,0,0,1-.13,0c-.13-.06-.22-.24-.41-.07a.57.57,0,0,1-.44.17c-.22,0-.44,0-.66,0-.42,0-.42,0-.57-.38-.07-.18-.14-.19-.35,0a.45.45,0,0,1-.59,0,.66.66,0,0,0-.43-.19h-1.16a.63.63,0,0,0-.45.15c-.23.22-.35-.1-.53-.08s-.09.06-.14.09a.76.76,0,0,1-.45.15c-.27,0-.55,0-.83,0a.66.66,0,0,0-.43.19.74.74,0,0,1-.46.12.61.61,0,0,1-.45-.14l-.28-.16h-.82a3.45,3.45,0,0,1-.41.25.44.44,0,0,1-.45-.06.65.65,0,0,0-.44-.2,7.66,7.66,0,0,1-.83,0,.69.69,0,0,0-.44.15.75.75,0,0,1-.45.16c-.28,0-.55,0-.83,0s-.36,0-.9-.29a3.16,3.16,0,0,0-.32,0s-.09.06-.13.09a.73.73,0,0,1-.61.18.37.37,0,0,0-.42.36c0,.11-.11.2-.19.17S99.53,1,99.51.91s-.12-.26-.3-.14-.23.13-.4,0L98.45.43c-.08-.08-.16,0-.26,0s-.17.13-.4,0a.4.4,0,0,0-.45,0c-.49.24-.49.25-.75.25-1,0-2,0-3,0a.74.74,0,0,0-.44.19.53.53,0,0,1-.29.12h-4.3a2.63,2.63,0,0,0-.49,0s-.09.06-.12.1a1,1,0,0,0-.07.45c0,.23-.16.33-.44.33H87c-.2,0-.33-.05-.36-.24s-.28-.4-.58-.38a.55.55,0,0,1-.45-.16c-.1-.1-.17-.12-.27,0s-.32.28-.49.42a.38.38,0,0,1-.3.08c-.16,0-.34,0-.47-.08a1.24,1.24,0,0,0-.93-.23c-.28,0-.28,0-.59.21a.47.47,0,0,1-.3.1H81.06a.76.76,0,0,1-.45-.15.64.64,0,0,0-.44-.17c-.11,0-.22,0-.33,0a.72.72,0,0,0-.61.19.53.53,0,0,1-.29.12H77.61a.55.55,0,0,0-.29.13c-.2.12-.2.13-.4,0a.53.53,0,0,0-.29-.12H74.31a.37.37,0,0,0-.15,0s-.11.06-.12.1-.05.2-.1.29a.31.31,0,0,1-.26.16.28.28,0,0,1-.29-.09,1.25,1.25,0,0,1-.11-.29.35.35,0,0,0-.53-.13,1,1,0,0,1-.59.22c-.28,0-.55,0-.83,0s-.27.06-.34.27-.15.31-.29.32l-.33,0c-.34,0-.38.08-.18.35s.11.18,0,.23a.41.41,0,0,1-.16,0,.36.36,0,0,1-.15,0,1.94,1.94,0,0,1-.47-.43c0-.16,0-.31,0-.47h0c-1.16,0-2.32,0-3.47,0a.85.85,0,0,0-.59.21c-.17.14-.43.09-.59.25a.57.57,0,0,1-.44.16c-.28,0-.56,0-.83,0A.64.64,0,0,1,63,2.61a.5.5,0,0,0-.3-.11h-3c-.17,0-.27.09-.32.28s-.08.28-.3.31a1.32,1.32,0,0,0-.43.21c-.19.12-.19.12-.28-.2s-.14-.29-.31-.29H55.75a.46.46,0,0,0-.3.11.73.73,0,0,1-.6.2A.57.57,0,0,1,54.41,3c-.11-.1-.18-.12-.27-.06a.75.75,0,0,1-.44.2H52.05a.6.6,0,0,0-.29.14.71.71,0,0,1-.6.17l-.5,0a.27.27,0,0,1-.14-.07l-.27-.18L50,3.35a.37.37,0,0,1-.45,0,1.16,1.16,0,0,0-.27-.18,1.13,1.13,0,0,0-.32,0,1.75,1.75,0,0,1-.71.35c-.1,0-.18.12-.27.18a2.2,2.2,0,0,1-.26-.15c-.1-.06-.17,0-.27.05a.57.57,0,0,1-.44.16c-.5,0-1,0-1.49,0a.6.6,0,0,1-.43-.19c-.11-.09-.18-.09-.27,0s-.18.13-.27.08c-.38-.22-.38-.22-.59-.22-.72,0-.54-.09-1.14.46-.15.13-.15.13-.4,0a.52.52,0,0,0-.29-.11H40.78a.54.54,0,0,0-.29.13.62.62,0,0,1-.44.17H37.24a.62.62,0,0,0-.44.17c-.19.17-.28,0-.41-.08a.15.15,0,0,0-.13,0,.86.86,0,0,1-.59.22c-.22,0-.44,0-.66,0s-.23,0-.59.2-.34-.19-.55-.2H33.7c-.27,0-.55,0-.82,0s-.3-.12-.44-.19-.11-.06-.13,0l-.37.31a.75.75,0,0,1-.57.24H29.55a.72.72,0,0,0-.43.2c-.1.07-.17,0-.27,0a.74.74,0,0,0-.61-.15.51.51,0,0,1-.3-.1c-.13-.09-.24-.22-.43-.2a.88.88,0,0,0-.42.21.48.48,0,0,1-.31.08c-.17,0-.33,0-.5,0a.6.6,0,0,0-.43.18.62.62,0,0,1-.29.13h-2a.46.46,0,0,1-.29-.11.68.68,0,0,0-.43-.19c-.39,0-.78,0-1.16,0a.69.69,0,0,0-.45.14.76.76,0,0,1-.61.16.42.42,0,0,1-.31-.09,2.4,2.4,0,0,0-.27-.16l-.25.19-.24.22A.43.43,0,0,1,19,5.2.9.9,0,0,0,18.39,5c-.28,0-.55,0-.83,0a.69.69,0,0,0-.29.13c-.18.14-.19.14-.39,0A.48.48,0,0,0,16.59,5a10.45,10.45,0,0,0-1.48,0,.23.23,0,0,0-.12.1c0,.09-.05.2-.1.29a.29.29,0,0,1-.24.17c-.19,0-.33,0-.37-.21C14.22,5,14,5,13.69,5h-.33a.63.63,0,0,0-.44.16.81.81,0,0,1-.45.15.84.84,0,0,1-.6-.2.41.41,0,0,0-.3-.11h-4a.39.39,0,0,0-.28.13.26.26,0,0,1-.4,0A.47.47,0,0,0,6.62,5H6C5.9,5.23,5.75,5.33,5.54,5.28Zm80.84-.84a.15.15,0,0,1,.11,0,.27.27,0,0,1,.07.27.28.28,0,0,1-.18.21.41.41,0,0,1-.16,0h-.31c0,.2-.15.32-.26.32a2.55,2.55,0,0,1-.48,0c-.12,0-.18-.12-.16-.18A.18.18,0,0,1,85.13,5c.26,0,.53,0,.79,0C86,4.76,86.07,4.64,86.38,4.44ZM153.59,4c0,.25,0,.51,0,.76s-.13.17-.19.14a.2.2,0,0,1-.11-.11c0-.35,0-.7,0-1-.15,0-.31,0-.46,0a.14.14,0,0,1-.11-.09c0-.07,0-.14.15-.17s.34,0,.41.3C153.46,3.79,153.59,3.89,153.59,4ZM134,2.52c0-.2.08-.28.26-.3s.4.1.35.33-.1.23-.31.25H134a.39.39,0,0,1-.11.27c-.21.26-.2.26.16.35s.25.13.14.29S134,3.89,134,4c0,.33-.26.4-.57.39a.52.52,0,0,1-.3-.08c-.09-.06-.08-.13,0-.23a.47.47,0,0,0,.09-.12.34.34,0,0,0,0-.42c-.07-.08-.13-.17-.19-.25a2.29,2.29,0,0,1,.21-.23c.22-.22.22-.22.57-.23H134A2.81,2.81,0,0,1,134,2.52Zm-8.46-1.24a1.43,1.43,0,0,1-.71.34c-.32.18-.33.19-.52.06s-.17-.08-.27,0a.47.47,0,0,1-.27.14.34.34,0,0,1-.3-.08.31.31,0,0,1,0-.41s.09-.08.13-.08c.33,0,.66,0,1,0s.33-.05.44-.34.12-.26.34-.24.28,0,.29.28,0,.2,0,.31h.47a.19.19,0,0,1,.1.1s0,.07,0,.1a.26.26,0,0,1-.27.08c-.16,0-.2-.08-.27-.3C125.67,1.26,125.6,1.25,125.57,1.28ZM27.34,10.53a.44.44,0,0,0,.15.05h.33a.36.36,0,0,1,.37.4,1.61,1.61,0,0,1,0,.31c0,.13-.13.17-.22.13s-.25-.21-.43-.21-.28-.14-.42-.21-.16-.08-.26.23a.26.26,0,0,1-.18.21.36.36,0,0,1-.14-.26c-.08-.42.17-.67.5-.89a.78.78,0,0,1,.16,0,.37.37,0,0,1,0-.15.29.29,0,0,1,.25-.16h1a.45.45,0,0,1,.3.09,2.46,2.46,0,0,0,.27.17,2.4,2.4,0,0,1,.26-.18c.31-.16.64-.05,1-.07l.27.17.12.1.1.12a.32.32,0,0,1,0,.42c-.07.05-.16,0-.26-.07a.45.45,0,0,0-.28-.13c-.44,0-.88,0-1.32,0a.77.77,0,0,1-.43-.19.47.47,0,0,0-.29-.12h-1A.29.29,0,0,0,27.34,10.53Zm2.47-.89a.34.34,0,0,1-.26-.17.29.29,0,0,1,0-.29,3.68,3.68,0,0,1,.33-.35c.38-.37.38-.36,1-.43a.37.37,0,0,0,.27-.33c0-.21,0-.42,0-.62a.25.25,0,0,1,.06-.14c.06-.1.14-.1.25,0s.28.07.4,0,.19-.09.24.06a.59.59,0,0,1,0,.14.35.35,0,0,1-.13.28c-.18.14-.15.37-.27.54a1.39,1.39,0,0,0-.29.55c0,.1-.14.15-.25.17s-.12,0-.16,0-.33.26-.5.4a.62.62,0,0,1-.59.2ZM54.64,7s0,.16-.11.24-.1.16,0,.25a.27.27,0,0,1,.09.12,2.24,2.24,0,0,0,.36.66.25.25,0,0,1,0,.28.32.32,0,0,1-.23.19h-.33a.41.41,0,0,1-.38-.21A.88.88,0,0,0,53.8,8a.48.48,0,0,1-.07-.29.58.58,0,0,0-.18-.56c-.1-.11-.12-.17,0-.22a.34.34,0,0,1,.14,0c.16,0,.33,0,.58,0C54.36,6.86,54.54,6.83,54.64,7Zm72.67-4.06a.35.35,0,0,0-.13-.08.46.46,0,0,0-.31,0c-.12.06-.1.13,0,.24a.82.82,0,0,1,.16.25.24.24,0,0,1-.07.28c-.06.06-.15,0-.25,0a1,1,0,0,0-.44-.18.3.3,0,0,1-.13-.49l.35-.32s.09-.09.13-.09h1.47a.3.3,0,0,1,.25.16s0,.1,0,.15a.28.28,0,0,1-.29.29h-.16C127.61,3.12,127.61,3.13,127.31,2.91Zm7.94-.78c.07-.07.16-.13.24-.2l.26.15c.05,0,.09.08.14.09a1.67,1.67,0,0,0,.32,0h1.95a.64.64,0,0,1,.45.12,2.35,2.35,0,0,1-.19.25c-.07.07-.16.13-.24.2l-.26-.16s-.08-.08-.13-.08a3.93,3.93,0,0,0-.49,0c-.7,0-1.4,0-2.1,0,0,0-.09-.06-.13-.09A2.15,2.15,0,0,1,135.25,2.13ZM38.53,8.89a1.59,1.59,0,0,1,.2-.24.57.57,0,0,1,.11-.11.48.48,0,0,1,.29-.13h.66c.35,0,.34,0,.89-.29a.33.33,0,0,1,.3,0c.1.06.09.14,0,.24s-.31.29-.46.44-.21.17-.38,0a.52.52,0,0,0-.45-.13.64.64,0,0,0-.26.18.38.38,0,0,1-.3.11H39C38.75,9,38.49,9,38.53,8.89ZM10.09,13.14c.13-.09.32-.05.45-.16a1.13,1.13,0,0,1,.26-.16,1.59,1.59,0,0,0,.27.18,2.63,2.63,0,0,0,1,.08.28.28,0,0,1,.12.1c.05.07,0,.18-.13.2a4.85,4.85,0,0,1-.66,0c-.26,0-.41.13-.42.36s0,.21,0,.31-.09.19-.18.18-.11-.06-.11-.1a.83.83,0,0,0-.29-.54c-.12-.11-.22-.23-.33-.34S10.06,13.16,10.09,13.14Zm14.31-2c-.1,0-.23-.32-.18-.39l.21-.23a.8.8,0,0,1,.86-.25c.08,0,.15.12.23.18s0,.3,0,.45a.33.33,0,0,1-.33.27h-.51ZM3.6,7.6A.75.75,0,0,1,4,8.37c0,.05,0,.1,0,.15a.6.6,0,0,0,.19.55c.12.1.12.18,0,.22a1.48,1.48,0,0,1-.31,0,.47.47,0,0,1-.19-.39.56.56,0,0,0-.18-.54l-.34-.33C3,7.94,3,7.91,3.23,7.71l.24-.19A.57.57,0,0,1,3.6,7.6ZM103.77,4.25c-.09.09-.17.08-.25,0a1.31,1.31,0,0,0-.12-.11c-.23-.21-.23-.23,0-.45s.18-.17.5,0a.24.24,0,0,0,.12,0c.1-.06.17-.13.26-.18a.36.36,0,0,1,.5.2c0,.1,0,.2,0,.3a.24.24,0,0,1-.1.27c-.06,0-.15,0-.25-.07C104.21,4,104,4.05,103.77,4.25ZM33.7,7.45a1.37,1.37,0,0,1,.44.16c.19.14.2.13.38,0a.5.5,0,0,1,.28-.12.28.28,0,0,1,.28.1s0,.09,0,.12l-.55.54c-.14.14-.17.13-.38,0s-.33-.4-.63-.44-.33-.17-.27-.43c0,0,.06-.08.1-.12A1.74,1.74,0,0,0,33.7,7.45Zm40.54-3-.11-.11c-.14-.14-.11-.23.14-.28A.44.44,0,0,0,74.56,4a.88.88,0,0,1,.74-.2.36.36,0,0,1,.28.12s0,.09-.08.13-.13.16-.18.24c-.25.43-.25.43-.54.43A.61.61,0,0,1,74.24,4.45ZM88.35,1.34a.28.28,0,0,1,.29-.09,1.82,1.82,0,0,0,.33,0,.86.86,0,0,1,.81.39c.08.1.06.19-.09.2a1.29,1.29,0,0,0-.57.26A.36.36,0,0,1,88.59,2s0-.1,0-.15-.1-.17-.15-.26S88.29,1.4,88.35,1.34ZM3.5,12.73a.34.34,0,0,1-.13-.09c-.41-.37-.46-.26,0-.67.1-.1.17-.11.26,0a2.48,2.48,0,0,0,.26.19.87.87,0,0,1,.66.38c.11.11.11.17-.12.23A2.67,2.67,0,0,1,3.5,12.73ZM83.93,5.25c0,.11,0,.2-.11.27s-.16,0-.25-.09A.82.82,0,0,0,83,5.29a.32.32,0,0,1-.35-.22.26.26,0,0,1,.06-.27.29.29,0,0,1,.12-.1.37.37,0,0,1,.15,0h.32C83.79,4.67,84,4.71,83.93,5.25ZM136,4.58a.26.26,0,0,1,0,.15.33.33,0,0,1-.48.21,1.51,1.51,0,0,0-.55-.28c-.21,0-.24-.12-.11-.28A1.05,1.05,0,0,0,135,4c0-.19.17-.2.32-.07l.19.18A2,2,0,0,1,136,4.58ZM24.56,9.64c-.21,0-.29-.07-.32-.27a.26.26,0,0,1,0-.15c.05-.14.13-.15.24-.08a.75.75,0,0,0,.43.2c.44,0,.89,0,1.33,0a.33.33,0,0,1,.25.15.37.37,0,0,1-.27.15H24.56ZM9.74,7.82A.29.29,0,0,1,9.92,8c0,.14-.1.35-.21.35H8.9a.84.84,0,0,1-.14-.06.21.21,0,0,1-.11-.26.28.28,0,0,1,.29-.28h.62A.5.5,0,0,1,9.74,7.82Zm-4.3,3.72c.1,0,.24.31.18.4l-.31.35c-.13.14-.22.12-.39,0l-.46-.45c-.12-.1-.12-.17,0-.22a.48.48,0,0,1,.14-.05h.53ZM113.8,3.74c0-.19,0-.2.35-.49s.27,0,.39.1a1.76,1.76,0,0,0,.3.1c.22,0,.24.15.09.29l-.11.11a.65.65,0,0,1-.58.21C113.93,4.05,113.79,4,113.8,3.74ZM28.57,9.19c-.07-.13,0-.29-.16-.42s-.22-.19.06-.46a.64.64,0,0,1,.25-.18.56.56,0,0,1,.31,0,.18.18,0,0,1,.11.1.48.48,0,0,1,0,.29,2.33,2.33,0,0,1-.27.37.39.39,0,0,1-.08.28l-.12.1ZM9.69,9.64c-.23,0-.37.13-.41.37s-.16.25-.31.12l-.23-.22a.32.32,0,0,1-.06-.41c0-.1.15-.14.26-.15a3.58,3.58,0,0,1,.8,0s.08.06.12.1S9.82,9.63,9.69,9.64Zm8.8-.94c-.12,0-.24-.19-.22-.33a.27.27,0,0,1,.16-.24.68.68,0,0,1,.15,0,.84.84,0,0,1,.83.31c.09.11.11.18,0,.23a.33.33,0,0,1-.14.06h-.5ZM47,7.34c-.06.11-.14.12-.26.12s-.23,0-.26-.13a1,1,0,0,0-.26-.52c-.11-.1-.11-.17,0-.21l.14,0h.32a.34.34,0,0,1,.36.37v.16A.36.36,0,0,1,47,7.34Zm86.56-5.78c-.38,0-.38,0-.71-.29-.1-.09-.13-.18-.07-.24a.27.27,0,0,1,.3-.07,3.25,3.25,0,0,0,1,.32.2.2,0,0,1,.12.1s0,.07,0,.1a.28.28,0,0,1-.13.07h-.5Zm-99.4,5c0-.19.08-.26.28-.29s.34.09.35.22,0,.3,0,.44a.29.29,0,0,1-.19.21.34.34,0,0,1-.44-.28,1.13,1.13,0,0,1,0-.3Zm13.31.79a1.64,1.64,0,0,1,.19-.25c.23-.22.33-.25.75-.23a.39.39,0,0,1,.28.13l-.09.13-.11.12a.68.68,0,0,1-.57.23A.55.55,0,0,1,47.49,7.34ZM4.25,10a.25.25,0,0,1,.28.09c0,.06,0,.14-.07.23-.45.4-.58.4-1-.06,0,0-.09-.1-.08-.12A.37.37,0,0,1,3.62,10h.63ZM85.87,6.39l-.21.23-.25.19a2.23,2.23,0,0,1-.24-.19L85,6.39c.07-.08.13-.16.21-.24L85.42,6a2.19,2.19,0,0,1,.25.2C85.74,6.23,85.8,6.31,85.87,6.39Zm9.8-3.25a1.36,1.36,0,0,1,.46.43.58.58,0,0,1,.05.29c0,.17-.18.16-.36,0s-.3-.3-.46-.44-.12-.18,0-.23a.38.38,0,0,1,.13,0C95.56,3.14,95.63,3.12,95.67,3.14ZM5.87,10.07c0,.06,0,.15-.1.23l-.24.2a.37.37,0,0,1-.42,0A.28.28,0,0,1,5,10.12a.36.36,0,0,1,.11-.1,1,1,0,0,1,.46,0A.25.25,0,0,1,5.87,10.07Zm58.54-4.3c.09-.15.27-.14.42-.19a.93.93,0,0,0,.26-.18.5.5,0,0,1,.14-.08.35.35,0,0,1,.3,0c.12.06.12.13,0,.22a1.14,1.14,0,0,1-.11.11.62.62,0,0,1-.58.22C64.63,5.93,64.37,5.83,64.41,5.77Zm19.79.28L84,6.28a1,1,0,0,1-.11.1c-.14.13-.2.13-.36,0s-.23-.18-.22-.34.13-.11.45-.1A.52.52,0,0,1,84.2,6.05ZM50,6.05a.3.3,0,0,1,0,.39.32.32,0,0,1-.29.07c-.19,0-.27-.12-.24-.3s.07-.24.29-.26A.22.22,0,0,1,50,6.05Zm16.83-.18-.29,0-.35-.29c-.1-.08-.13-.16-.09-.22a.24.24,0,0,1,.28-.08.33.33,0,0,1,.14,0,1.27,1.27,0,0,1,.42.41S66.88,5.86,66.84,5.87Zm9.31-.31s-.09,0-.12-.07-.23-.21-.33-.31a.75.75,0,0,1-.06-.13.27.27,0,0,1,.08-.27c.07,0,.15,0,.25.06.3.28.33.32.31.47A.25.25,0,0,1,76.15,5.56ZM12.25,9C12,9,12,9,12,8.73a.2.2,0,0,1,.12-.25.4.4,0,0,1,.29,0,.28.28,0,0,1,.2.33C12.54,9,12.45,9,12.25,9Zm25.16.65c-.12,0-.19-.11-.16-.18a.14.14,0,0,1,.11-.09l.79,0a.33.33,0,0,1,.26.14.28.28,0,0,1-.21.15,3.85,3.85,0,0,1-.48,0h0A1.61,1.61,0,0,1,37.41,9.64ZM23.76,12.12a.2.2,0,0,1-.12-.1c0-.06,0-.13.15-.19.27,0,.54,0,.8,0a.33.33,0,0,1,.23.16.45.45,0,0,1-.27.14H24A1.16,1.16,0,0,1,23.76,12.12ZM67.4,3.29c.09-.15.24-.16.39-.18s.09-.06.14-.09a1,1,0,0,0,.13-.09c.1-.09.19-.08.23.06a.49.49,0,0,1,0,.29.18.18,0,0,1-.11.1c-.1,0-.21,0-.31.05A.56.56,0,0,1,67.4,3.29ZM17.72,10a.37.37,0,0,1,.42,0,.28.28,0,0,1,.07.27.25.25,0,0,1-.32.22c-.21,0-.27-.07-.28-.26A.2.2,0,0,1,17.72,10ZM20,8.58a2.31,2.31,0,0,1,.2-.24,2.43,2.43,0,0,1,.25-.2,2.73,2.73,0,0,1,.25.2c.08.08.13.17.2.25a.73.73,0,0,1-.46.13A.55.55,0,0,1,20,8.58Zm3.13.11a.33.33,0,0,1-.18-.37A.37.37,0,0,1,23,8.2c.07,0,.15,0,.24.06s.19.22.29.33l-.13.09A.48.48,0,0,1,23.08,8.69ZM16.63,12a.48.48,0,0,1,.41-.15h.31a.29.29,0,0,1,.12.1c0,.05,0,.14-.13.18s-.2,0,0,0C16.85,12.14,16.59,12,16.63,12ZM35.47,9.33a.3.3,0,0,1-.25-.13s0-.08.08-.11a2,2,0,0,1,.2-.21c.09-.09.18-.11.24,0A.45.45,0,0,1,35.8,9,.31.31,0,0,1,35.47,9.33Zm53.75-4a.24.24,0,0,1-.12.24s-.09,0-.13-.06a.77.77,0,0,1-.31-.31c0-.08,0-.14.15-.18S89.21,5.1,89.22,5.31ZM12.48,6.51a.19.19,0,0,1-.12-.09c0-.06,0-.16.16-.18a1.77,1.77,0,0,1,.46,0,.27.27,0,0,1,.22.16.4.4,0,0,1-.26.14h-.18Zm100.72-2a.28.28,0,0,1,.26-.13,1.43,1.43,0,0,1,.46,0,.27.27,0,0,1,.11.1s0,.06,0,.09a.35.35,0,0,1-.13.08h-.21C113.36,4.68,113.16,4.57,113.2,4.5Zm18.94.1a.2.2,0,0,1-.09-.11.67.67,0,0,1,0-.28c0-.1.15-.12.25-.14a.24.24,0,0,1,.27.09C132.65,4.29,132.34,4.6,132.14,4.6ZM47.21,4.18c0-.11.14-.13.26-.12a1,1,0,0,1,.45.05A.94.94,0,0,1,48,4.2a.43.43,0,0,1-.1.09.22.22,0,0,1-.13.06c-.1,0-.2,0,0,0C47.31,4.36,47.16,4.27,47.21,4.18Zm-2.7.35s0-.07.07-.11l.21-.21c.09-.09.17-.1.23,0a.22.22,0,0,1,.06.26.27.27,0,0,1-.32.23A.29.29,0,0,1,44.51,4.53Zm56.3-3.09c0,.14,0,.29-.12.38l-.14,0a.21.21,0,0,1-.27-.09c0-.06,0-.14.09-.22s.25-.22.35-.22S100.81,1.4,100.81,1.44ZM67.44,3.87a.24.24,0,0,1,.26-.12,1.13,1.13,0,0,1,.45,0l.12.1L68.18,4a.25.25,0,0,1-.13.06h-.13C67.55,4.06,67.39,4,67.44,3.87Zm48,0c0-.29-.06-.35.23-.43a.25.25,0,0,1,.28.06c.06.06,0,.14-.06.23l-.35.26S115.49,3.93,115.48,3.89Zm44.28-.22a.35.35,0,0,1-.41,0s0-.08,0-.1a.84.84,0,0,1,.3-.32s.12-.08.13-.07a.28.28,0,0,1,.12.25A.22.22,0,0,1,159.76,3.67Zm-142,4.72c-.15,0-.32,0-.41-.12a.33.33,0,0,1,0-.13.18.18,0,0,1,.09-.26c.07,0,.15,0,.24.09a.57.57,0,0,1,.24.33S17.76,8.38,17.72,8.39ZM130.31,3.11A.29.29,0,0,1,130.1,3a.34.34,0,0,1,.25-.14l.46,0a.2.2,0,0,1,.12.1c0,.06,0,.13-.15.18a.4.4,0,0,1-.16,0h0C130.52,3.11,130.41,3.12,130.31,3.11ZM161.11,3c-.08.09-.23.1-.41,0a.22.22,0,0,1-.12-.25.26.26,0,0,1,.11-.24s.09,0,.13.06l.22.19s.06.08.09.11S161.13,3,161.11,3Zm-72.06.05c-.28.07-.4,0-.46-.21a.24.24,0,0,1,.07-.27c.07-.05.16,0,.24.06s.19.22.29.32C89.13,3,89.1,3.07,89.05,3.08Zm72.25-.76a.26.26,0,0,1,.26-.13,1.19,1.19,0,0,1,.46,0,.27.27,0,0,1,.11.1s0,.07-.06.09a.26.26,0,0,1-.13.08h-.31C161.45,2.49,161.26,2.39,161.3,2.32ZM41.71,6.72a.28.28,0,0,1-.26.13,1.13,1.13,0,0,1-.45,0,.22.22,0,0,1-.12-.09s0-.07.06-.09a.35.35,0,0,1,.13-.08h.31C41.55,6.55,41.75,6.65,41.71,6.72Zm1.77,1.5a.77.77,0,0,1-.24.12c-.08,0-.13-.23-.08-.39s.23-.16.4-.14.08.05.12.08S43.58,8.13,43.48,8.22Zm-17.3,1.95a.32.32,0,0,1,0,.27c-.08.14-.14.13-.21,0a.34.34,0,0,1,0-.26c0-.05.06-.08.1-.11S26.14,10.06,26.18,10.17Zm-2.85-.62s-.09-.07-.1-.11.08-.38.16-.36.07.07.1.1a.36.36,0,0,1,0,.27C23.47,9.56,23.4,9.6,23.33,9.55Zm-6.8-.36a.3.3,0,0,1-.24.14.2.2,0,0,1-.26-.1q-.06-.11.12-.18C16.3,9,16.56,9.12,16.53,9.19Zm27.36-.27s0-.07,0-.1a.24.24,0,0,1,.27-.09.45.45,0,0,1,.24.15.4.4,0,0,1-.25.14A.23.23,0,0,1,43.89,8.92ZM14.7,9a.36.36,0,0,1-.29,0,.19.19,0,0,1-.1-.1c0-.07.25-.17.4-.14s.07.06.09.08S14.82,9,14.7,9Zm31-.39c-.06.11-.22.12-.39,0s-.11-.08-.1-.09a.33.33,0,0,1,.24-.15.21.21,0,0,1,.26.1A.17.17,0,0,1,45.66,8.62Zm-30-.54a.33.33,0,0,1-.28,0,.27.27,0,0,1-.11-.1c0-.08.26-.16.4-.13s.08.06.11.09S15.81,8,15.7,8.08Zm-9-.63a.32.32,0,0,1-.29,0s-.1-.06-.1-.1.25-.16.39-.12.08,0,.12.08S6.86,7.42,6.74,7.45Zm66.34-.3a.31.31,0,0,1-.28-.05.19.19,0,0,1-.1-.1c0-.08.25-.16.4-.12s.07.06.11.09S73.2,7.11,73.08,7.15ZM51.4,6.81a.21.21,0,0,1-.1.26.11.11,0,0,1-.1,0,.19.19,0,0,1-.11-.25.16.16,0,1,1,.31,0Zm-8,0a.21.21,0,0,1-.1.25.17.17,0,0,1-.1,0,.19.19,0,0,1-.11-.25.35.35,0,0,1,.16-.22A.29.29,0,0,1,43.44,6.81ZM11.88,6.7a.3.3,0,0,1-.24.14.2.2,0,0,1-.26-.1q-.06-.11.12-.18C11.65,6.54,11.92,6.63,11.88,6.7Zm57.67-.26c-.06.11-.22.13-.4,0a.3.3,0,0,1-.1-.09.37.37,0,0,1,.24-.15.2.2,0,0,1,.26.11S69.57,6.41,69.55,6.44Zm-13,.31c-.11-.06-.13-.21,0-.37s.09-.1.1-.09a.3.3,0,0,1,.16.22.18.18,0,0,1-.11.24Zm-36.72,0c-.07,0-.16,0-.2-.11s.08-.38.16-.36.07.06.1.1a.36.36,0,0,1,0,.27A.32.32,0,0,1,19.78,6.75Zm-9.87-.5c.12,0,.21,0,.26.09a.07.07,0,0,1,0,.09.22.22,0,0,1-.26.1.38.38,0,0,1-.24-.15A.36.36,0,0,1,9.91,6.25ZM2.14,6.8A.33.33,0,0,1,2,6.58a.2.2,0,0,1,.1-.25h.1a.2.2,0,0,1,.11.25A.31.31,0,0,1,2.14,6.8Zm72.15-.67a.32.32,0,0,1-.05.27c-.08.13-.14.13-.21,0a.36.36,0,0,1,0-.27s.07-.07.1-.11S74.24,6,74.29,6.13ZM61.47,6a.22.22,0,0,1,.12-.09c.15,0,.41.06.39.14a.36.36,0,0,1-.11.1.47.47,0,0,1-.29,0C61.46,6.16,61.42,6.09,61.47,6Zm-1.33-.22a.1.1,0,0,1,0-.09.23.23,0,0,1,.26-.1.38.38,0,0,1,.24.15.38.38,0,0,1-.24.14A.22.22,0,0,1,60.14,5.81ZM77.33,4.35a.23.23,0,0,1-.27-.1.1.1,0,0,1,0-.09c.05-.1.14-.12.26-.1a.36.36,0,0,1,.23.16A.32.32,0,0,1,77.33,4.35Zm7.08,0a.33.33,0,0,1-.14-.22.2.2,0,0,1,.1-.25.12.12,0,0,1,.1,0,.17.17,0,0,1,.1.24A.3.3,0,0,1,84.41,4.31Zm47.23-.72a.33.33,0,0,1-.24.14.21.21,0,0,1-.26-.1c0-.07,0-.13.11-.18S131.67,3.51,131.64,3.59Zm-29.1.14a.22.22,0,0,1-.27-.1.1.1,0,0,1,0-.09.2.2,0,0,1,.26-.1.4.4,0,0,1,.24.16A.36.36,0,0,1,102.54,3.73ZM90,4s-.09-.06-.1-.11.08-.38.16-.36.07.07.09.11a.33.33,0,0,1,0,.26C90.14,4,90.07,4,90,4ZM121,3.64a.12.12,0,0,1-.1,0,.2.2,0,0,1-.1-.25.36.36,0,0,1,.16-.23.45.45,0,0,1,.15.24A.2.2,0,0,1,121,3.64ZM94.76,3c-.06.1-.23.12-.4,0a.31.31,0,0,1-.1-.1.4.4,0,0,1,.24-.14.21.21,0,0,1,.26.1A.34.34,0,0,1,94.76,3Zm37.16-.32c-.06.11-.24.13-.4,0s-.11-.08-.1-.1a.32.32,0,0,1,.24-.14.2.2,0,0,1,.26.1S131.93,2.68,131.92,2.7Zm-11.74,0c0-.06,0-.14.13-.18s.41.06.39.14-.07.06-.12.09a.38.38,0,0,1-.28,0A.54.54,0,0,1,120.18,2.7Zm-13.92-.41a.28.28,0,0,1,.11-.08c.15,0,.41.06.39.14a.24.24,0,0,1-.11.09.4.4,0,0,1-.29,0C106.25,2.42,106.21,2.36,106.26,2.29ZM101,2.48a.42.42,0,0,1-.29,0c-.14-.07-.14-.13,0-.2a.41.41,0,0,1,.29,0s.07.06.11.09S101.07,2.44,101,2.48ZM84.53,2.34c0,.09-.14.12-.24.15a.21.21,0,0,1-.26-.1c0-.07,0-.14.12-.19S84.57,2.27,84.53,2.34ZM160,2.17a.36.36,0,0,1-.29,0s-.1-.07-.1-.1.26-.18.4-.14.08.06.12.09S160.12,2.13,160,2.17Zm-16.33,0a.23.23,0,0,1-.27-.1.12.12,0,0,1,0-.1.22.22,0,0,1,.27-.1.36.36,0,0,1,.23.16A.37.37,0,0,1,143.67,2.18Zm-39-.41c-.06.11-.22.13-.4,0s-.1-.08-.09-.09a.31.31,0,0,1,.23-.14c.12,0,.21,0,.26.1S104.72,1.75,104.71,1.77ZM91,1.85a.34.34,0,0,1-.28,0s-.1-.06-.11-.1.26-.17.4-.13.07.06.11.09S91.12,1.81,91,1.85Zm16.58,2a.22.22,0,0,1,.12-.09c.14,0,.41.07.39.14A.36.36,0,0,1,108,4a.4.4,0,0,1-.29,0C107.58,4,107.54,3.91,107.58,3.85ZM131,1.1a.3.3,0,0,1-.24.14.19.19,0,0,1-.25-.1c0-.07,0-.13.11-.18S131,1,131,1.1ZM4.68,14a.23.23,0,0,1-.27-.1.14.14,0,0,1,0-.09.22.22,0,0,1,.27-.1.35.35,0,0,1,.24.15A.37.37,0,0,1,4.68,14Zm5.38-1.25a.36.36,0,0,1-.29,0s-.1-.07-.1-.11.26-.17.4-.13.07.06.11.09S10.18,12.71,10.06,12.75ZM9.9,11.22a.25.25,0,0,1,.27.1.07.07,0,0,1,0,.09.22.22,0,0,1-.27.1.35.35,0,0,1-.23-.15A.33.33,0,0,1,9.9,11.22Z"/></g></g></svg>